SplineFontDB: 3.2
FontName: Alegreya-Medium
FullName: Alegreya Medium
FamilyName: Alegreya Medium
Weight: Medium
Copyright: Copyright 2011 The Alegreya Project Authors \\(https://github.com/huertatipografica/Alegreya\\)
Version: 002.008
ItalicAngle: 0
UnderlinePosition: -209
UnderlineWidth: 64
Ascent: 800
Descent: 200
InvalidEm: 0
sfntRevision: 0x0002020c
LayerCount: 2
Layer: 0 0 "Back" 1
Layer: 1 0 "Fore" 0
XUID: [1021 596 -667042339 2915211]
StyleMap: 0x0040
FSType: 0
OS2Version: 4
OS2_WeightWidthSlopeOnly: 0
OS2_UseTypoMetrics: 1
CreationTime: 1533728605
ModificationTime: 1730114321
PfmFamily: 81
TTFWeight: 500
TTFWidth: 5
LineGap: 0
VLineGap: 0
Panose: 0 0 6 0 0 0 0 0 0 0
OS2TypoAscent: 1016
OS2TypoAOffset: 0
OS2TypoDescent: -345
OS2TypoDOffset: 0
OS2TypoLinegap: 0
OS2WinAscent: 1123
OS2WinAOffset: 0
OS2WinDescent: 345
OS2WinDOffset: 0
HheadAscent: 1016
HheadAOffset: 0
HheadDescent: -345
HheadDOffset: 0
OS2SubXSize: 650
OS2SubYSize: 600
OS2SubXOff: 0
OS2SubYOff: 75
OS2SupXSize: 650
OS2SupYSize: 600
OS2SupXOff: 0
OS2SupYOff: 350
OS2StrikeYSize: 64
OS2StrikeYPos: 273
OS2CapHeight: 639
OS2XHeight: 456
OS2Vendor: 'HT  '
OS2CodePages: 2000019f.00000000
OS2UnicodeRanges: 6000028f.00000003.00000000.00000000
Lookup: 1 0 0 "'aalt' Access All Alternates lookup 0" { "'aalt' Access All Alternates lookup 0 subtable"  } ['aalt' ('DFLT' <'dflt' > 'cyrl' <'SRB ' 'dflt' > 'latn' <'AZE ' 'CAT ' 'CRT ' 'ESP ' 'KAZ ' 'MOL ' 'NLD ' 'ROM ' 'TAT ' 'TRK ' 'dflt' > ) ]
Lookup: 3 0 0 "'aalt' Access All Alternates lookup 1" { "'aalt' Access All Alternates lookup 1 subtable"  } ['aalt' ('DFLT' <'dflt' > 'cyrl' <'SRB ' 'dflt' > 'latn' <'AZE ' 'CAT ' 'CRT ' 'ESP ' 'KAZ ' 'MOL ' 'NLD ' 'ROM ' 'TAT ' 'TRK ' 'dflt' > ) ]

StartChar: .notdef
Encoding: 65536 -1 0
Width: 641
GlyphClass: 1
Flags: MW
HStem: -109 674<-1 -1 -1 641>
VStem: -17 674<-93 -93 -93 549>
LayerCount: 2
Back
SplineSet
657 549 m 1
 336 228 l 1
 657 -93 l 1
 641 -109 l 1
 320 212 l 1
 -1 -109 l 1
 -17 -93 l 1
 304 228 l 1
 -17 549 l 1
 -1 565 l 1
 320 244 l 1
 641 565 l 1
 657 549 l 1
EndSplineSet
Fore
SplineSet
657 549 m 1
 336 228 l 1
 657 -93 l 1
 641 -109 l 1
 320 212 l 1
 -1 -109 l 1
 -17 -93 l 1
 304 228 l 1
 -17 549 l 1
 -1 565 l 1
 320 244 l 1
 641 565 l 1
 657 549 l 1
EndSplineSet
EndChar

StartChar: A
Encoding: 65 65 1
Width: 603
GlyphClass: 2
Flags: MW
HStem: 0 50 221 58<267 283 283 295 203 298> 631 20G<359 359>
VStem: -13 625<-3 46>
AnchorPoint: "Anchor-17" 0 0 basechar 0
AnchorPoint: "Anchor-16" 0 0 basechar 0
AnchorPoint: "Anchor-15" 301 639 basechar 0
AnchorPoint: "Anchor-14" 543 10 basechar 0
AnchorPoint: "Anchor-13" 301 0 basechar 0
LayerCount: 2
Back
SplineSet
334 -9 m 1
 330 -2 l 1
 334 47 l 1
 402 52 418 59 418 84 c 0
 418 95 416 109 411 126 c 2
 383 220 l 1
 358 221 311 221 285 221 c 0
 249 221 205 217 182 214 c 1
 150 122 l 2
 145 106 142 95 142 87 c 0
 142 60 158 50 196 50 c 2
 247 50 l 1
 250 45 l 1
 244 -6 l 1
 244 -6 167 0 102 0 c 0
 51 0 -13 -3 -13 -3 c 1
 -5 52 l 1
 29 57 48 74 67 125 c 2
 255 634 l 1
 359 651 l 1
 369 648 l 1
 369 648 455 322 521 121 c 0
 536 72 556 56 609 51 c 1
 612 46 l 1
 605 -3 l 1
 605 -3 530 0 492 0 c 0
 411 0 334 -9 334 -9 c 1
203 279 m 1
 283 279 l 2
 307 279 345 281 367 283 c 1
 298 527 l 1
 288 527 l 1
 203 279 l 1
EndSplineSet
Fore
SplineSet
334 -9 m 1
 330 -2 l 1
 334 47 l 1
 402 52 418 59 418 84 c 0
 418 95 416 109 411 126 c 2
 383 220 l 1
 358 221 311 221 285 221 c 0
 249 221 205 217 182 214 c 1
 150 122 l 2
 145 106 142 95 142 87 c 0
 142 60 158 50 196 50 c 2
 247 50 l 1
 250 45 l 1
 244 -6 l 1
 244 -6 167 0 102 0 c 0
 51 0 -13 -3 -13 -3 c 1
 -5 52 l 1
 29 57 48 74 67 125 c 2
 255 634 l 1
 359 651 l 1
 369 648 l 1
 369 648 455 322 521 121 c 0
 536 72 556 56 609 51 c 1
 612 46 l 1
 605 -3 l 1
 605 -3 530 0 492 0 c 0
 411 0 334 -9 334 -9 c 1
203 279 m 1
 283 279 l 2
 307 279 345 281 367 283 c 1
 298 527 l 1
 288 527 l 1
 203 279 l 1
EndSplineSet
Substitution2: "Single Substitution lookup 51 subtable" ordfeminine
Substitution2: "'c2sc' Capitals to Small Capitals lookup 35 subtable" a.sc
AlternateSubs2: "'aalt' Access All Alternates lookup 1 subtable" ordfeminine a.sc
Position2: "'cpsp' Capital Spacing lookup 0 subtable" dx=10 dy=0 dh=20 dv=0
EndChar

StartChar: Aacute
Encoding: 193 193 2
Width: 603
GlyphClass: 2
Flags: MW
HStem: 0 50 221 58<267 283 283 295 203 298> 631 20G<359 359>
VStem: -13 625<-3 46>
AnchorPoint: "Anchor-17" 0 0 basechar 0
AnchorPoint: "Anchor-16" 0 0 basechar 0
AnchorPoint: "Anchor-15" 337 775 basechar 0
AnchorPoint: "Anchor-14" 543 10 basechar 0
AnchorPoint: "Anchor-13" 301 0 basechar 0
LayerCount: 2
Back
SplineSet
252 701 m 1
 242 707 l 1
 233 741 l 1
 333 789 442 848 442 848 c 1
 453 842 l 1
 473 782 l 1
 468 771 l 1
 468 771 361 739 252 701 c 1
334 -9 m 1
 330 -2 l 1
 334 47 l 1
 402 52 418 59 418 84 c 0
 418 95 416 109 411 126 c 2
 383 220 l 1
 358 221 311 221 285 221 c 0
 249 221 205 217 182 214 c 1
 150 122 l 2
 145 106 142 95 142 87 c 0
 142 60 158 50 196 50 c 2
 247 50 l 1
 250 45 l 1
 244 -6 l 1
 244 -6 167 0 102 0 c 0
 51 0 -13 -3 -13 -3 c 1
 -5 52 l 1
 29 57 48 74 67 125 c 2
 255 634 l 1
 359 651 l 1
 369 648 l 1
 369 648 455 322 521 121 c 0
 536 72 556 56 609 51 c 1
 612 46 l 1
 605 -3 l 1
 605 -3 530 0 492 0 c 0
 411 0 334 -9 334 -9 c 1
203 279 m 1
 283 279 l 2
 307 279 345 281 367 283 c 1
 298 527 l 1
 288 527 l 1
 203 279 l 1
EndSplineSet
Fore
SplineSet
252 701 m 1
 242 707 l 1
 233 741 l 1
 333 789 442 848 442 848 c 1
 453 842 l 1
 473 782 l 1
 468 771 l 1
 468 771 361 739 252 701 c 1
334 -9 m 1
 330 -2 l 1
 334 47 l 1
 402 52 418 59 418 84 c 0
 418 95 416 109 411 126 c 2
 383 220 l 1
 358 221 311 221 285 221 c 0
 249 221 205 217 182 214 c 1
 150 122 l 2
 145 106 142 95 142 87 c 0
 142 60 158 50 196 50 c 2
 247 50 l 1
 250 45 l 1
 244 -6 l 1
 244 -6 167 0 102 0 c 0
 51 0 -13 -3 -13 -3 c 1
 -5 52 l 1
 29 57 48 74 67 125 c 2
 255 634 l 1
 359 651 l 1
 369 648 l 1
 369 648 455 322 521 121 c 0
 536 72 556 56 609 51 c 1
 612 46 l 1
 605 -3 l 1
 605 -3 530 0 492 0 c 0
 411 0 334 -9 334 -9 c 1
203 279 m 1
 283 279 l 2
 307 279 345 281 367 283 c 1
 298 527 l 1
 288 527 l 1
 203 279 l 1
EndSplineSet
Substitution2: "'c2sc' Capitals to Small Capitals lookup 35 subtable" aacute.sc
Substitution2: "'aalt' Access All Alternates lookup 0 subtable" aacute.sc
Position2: "'cpsp' Capital Spacing lookup 0 subtable" dx=10 dy=0 dh=20 dv=0
EndChar

StartChar: Abreve
Encoding: 258 258 3
Width: 603
GlyphClass: 2
Flags: MW
HStem: 0 50 221 58<267 283 283 295 203 298> 631 20G<359 359> 703 74<283.5 327 283.5 343>
VStem: -13 625<-3 46>
AnchorPoint: "Anchor-17" 0 0 basechar 0
AnchorPoint: "Anchor-16" 0 0 basechar 0
AnchorPoint: "Anchor-15" 305 831 basechar 0
AnchorPoint: "Anchor-14" 543 10 basechar 0
AnchorPoint: "Anchor-13" 301 0 basechar 0
LayerCount: 2
Back
SplineSet
305 703 m 0
 230 703 189 756 174 809 c 1
 194 829 l 1
 206 831 l 1
 224 795 262 777 305 777 c 0
 349 777 387 795 405 831 c 1
 416 829 l 1
 437 809 l 1
 422 756 381 703 305 703 c 0
334 -9 m 1
 330 -2 l 1
 334 47 l 1
 402 52 418 59 418 84 c 0
 418 95 416 109 411 126 c 2
 383 220 l 1
 358 221 311 221 285 221 c 0
 249 221 205 217 182 214 c 1
 150 122 l 2
 145 106 142 95 142 87 c 0
 142 60 158 50 196 50 c 2
 247 50 l 1
 250 45 l 1
 244 -6 l 1
 244 -6 167 0 102 0 c 0
 51 0 -13 -3 -13 -3 c 1
 -5 52 l 1
 29 57 48 74 67 125 c 2
 255 634 l 1
 359 651 l 1
 369 648 l 1
 369 648 455 322 521 121 c 0
 536 72 556 56 609 51 c 1
 612 46 l 1
 605 -3 l 1
 605 -3 530 0 492 0 c 0
 411 0 334 -9 334 -9 c 1
203 279 m 1
 283 279 l 2
 307 279 345 281 367 283 c 1
 298 527 l 1
 288 527 l 1
 203 279 l 1
EndSplineSet
Fore
SplineSet
305 703 m 0
 230 703 189 756 174 809 c 1
 194 829 l 1
 206 831 l 1
 224 795 262 777 305 777 c 0
 349 777 387 795 405 831 c 1
 416 829 l 1
 437 809 l 1
 422 756 381 703 305 703 c 0
334 -9 m 1
 330 -2 l 1
 334 47 l 1
 402 52 418 59 418 84 c 0
 418 95 416 109 411 126 c 2
 383 220 l 1
 358 221 311 221 285 221 c 0
 249 221 205 217 182 214 c 1
 150 122 l 2
 145 106 142 95 142 87 c 0
 142 60 158 50 196 50 c 2
 247 50 l 1
 250 45 l 1
 244 -6 l 1
 244 -6 167 0 102 0 c 0
 51 0 -13 -3 -13 -3 c 1
 -5 52 l 1
 29 57 48 74 67 125 c 2
 255 634 l 1
 359 651 l 1
 369 648 l 1
 369 648 455 322 521 121 c 0
 536 72 556 56 609 51 c 1
 612 46 l 1
 605 -3 l 1
 605 -3 530 0 492 0 c 0
 411 0 334 -9 334 -9 c 1
203 279 m 1
 283 279 l 2
 307 279 345 281 367 283 c 1
 298 527 l 1
 288 527 l 1
 203 279 l 1
EndSplineSet
Substitution2: "'c2sc' Capitals to Small Capitals lookup 35 subtable" abreve.sc
Substitution2: "'aalt' Access All Alternates lookup 0 subtable" abreve.sc
Position2: "'cpsp' Capital Spacing lookup 0 subtable" dx=10 dy=0 dh=20 dv=0
EndChar

StartChar: uni1EAE
Encoding: 7854 7854 4
Width: 603
GlyphClass: 2
Flags: MW
HStem: 0 50 221 58<267 283 283 295 203 298> 631 20G<359 359> 683 74<288 331.5 288 348>
VStem: 283 19
AnchorPoint: "Anchor-17" 0 0 basechar 0
AnchorPoint: "Anchor-16" 0 0 basechar 0
AnchorPoint: "Anchor-15" 310 954 basechar 0
AnchorPoint: "Anchor-14" 543 10 basechar 0
AnchorPoint: "Anchor-13" 301 0 basechar 0
LayerCount: 2
Back
SplineSet
302 796 m 1
 282 805 l 1
 284 853 l 1
 352 952 l 1
 380 939 l 1
 409 909 l 1
 385 872 l 1
 302 796 l 1
310 683 m 0
 234 683 193 743 178 802 c 1
 199 823 l 1
 211 824 l 1
 228 779 266 757 310 757 c 0
 353 757 391 779 409 824 c 1
 421 823 l 1
 442 802 l 1
 426 743 386 683 310 683 c 0
334 -9 m 1
 330 -2 l 1
 334 47 l 1
 402 52 418 59 418 84 c 0
 418 95 416 109 411 126 c 2
 383 220 l 1
 358 221 311 221 285 221 c 0
 249 221 205 217 182 214 c 1
 150 122 l 2
 145 106 142 95 142 87 c 0
 142 60 158 50 196 50 c 2
 247 50 l 1
 250 45 l 1
 244 -6 l 1
 244 -6 167 0 102 0 c 0
 51 0 -13 -3 -13 -3 c 1
 -5 52 l 1
 29 57 48 74 67 125 c 2
 255 634 l 1
 359 651 l 1
 369 648 l 1
 369 648 455 322 521 121 c 0
 536 72 556 56 609 51 c 1
 612 46 l 1
 605 -3 l 1
 605 -3 530 0 492 0 c 0
 411 0 334 -9 334 -9 c 1
203 279 m 1
 283 279 l 2
 307 279 345 281 367 283 c 1
 298 527 l 1
 288 527 l 1
 203 279 l 1
EndSplineSet
Fore
SplineSet
302 796 m 1
 282 805 l 1
 284 853 l 1
 352 952 l 1
 380 939 l 1
 409 909 l 1
 385 872 l 1
 302 796 l 1
310 683 m 0
 234 683 193 743 178 802 c 1
 199 823 l 1
 211 824 l 1
 228 779 266 757 310 757 c 0
 353 757 391 779 409 824 c 1
 421 823 l 1
 442 802 l 1
 426 743 386 683 310 683 c 0
334 -9 m 1
 330 -2 l 1
 334 47 l 1
 402 52 418 59 418 84 c 0
 418 95 416 109 411 126 c 2
 383 220 l 1
 358 221 311 221 285 221 c 0
 249 221 205 217 182 214 c 1
 150 122 l 2
 145 106 142 95 142 87 c 0
 142 60 158 50 196 50 c 2
 247 50 l 1
 250 45 l 1
 244 -6 l 1
 244 -6 167 0 102 0 c 0
 51 0 -13 -3 -13 -3 c 1
 -5 52 l 1
 29 57 48 74 67 125 c 2
 255 634 l 1
 359 651 l 1
 369 648 l 1
 369 648 455 322 521 121 c 0
 536 72 556 56 609 51 c 1
 612 46 l 1
 605 -3 l 1
 605 -3 530 0 492 0 c 0
 411 0 334 -9 334 -9 c 1
203 279 m 1
 283 279 l 2
 307 279 345 281 367 283 c 1
 298 527 l 1
 288 527 l 1
 203 279 l 1
EndSplineSet
Substitution2: "'c2sc' Capitals to Small Capitals lookup 35 subtable" uni1EAF.sc
Substitution2: "'aalt' Access All Alternates lookup 0 subtable" uni1EAF.sc
Position2: "'cpsp' Capital Spacing lookup 0 subtable" dx=10 dy=0 dh=20 dv=0
EndChar

StartChar: uni1EB6
Encoding: 7862 7862 5
Width: 603
GlyphClass: 2
Flags: MW
HStem: -200 135<280.5 317> 0 50 221 58<267 283 283 295 203 298> 631 20G<359 359> 695 74<279.5 322.5 279.5 339>
VStem: 232 134<-150 -115>
AnchorPoint: "Anchor-17" 0 0 basechar 0
AnchorPoint: "Anchor-16" 0 0 basechar 0
AnchorPoint: "Anchor-15" 301 823 basechar 0
AnchorPoint: "Anchor-14" 543 10 basechar 0
AnchorPoint: "Anchor-13" 299 -200 basechar 0
LayerCount: 2
Back
SplineSet
301 695 m 0
 225 695 185 748 169 801 c 1
 190 821 l 1
 202 823 l 1
 220 787 258 769 301 769 c 0
 344 769 382 787 400 823 c 1
 412 821 l 1
 433 801 l 1
 418 748 377 695 301 695 c 0
334 -9 m 1
 330 -2 l 1
 334 47 l 1
 402 52 418 59 418 84 c 0
 418 95 416 109 411 126 c 2
 383 220 l 1
 358 221 311 221 285 221 c 0
 249 221 205 217 182 214 c 1
 150 122 l 2
 145 106 142 95 142 87 c 0
 142 60 158 50 196 50 c 2
 247 50 l 1
 250 45 l 1
 244 -6 l 1
 244 -6 167 0 102 0 c 0
 51 0 -13 -3 -13 -3 c 1
 -5 52 l 1
 29 57 48 74 67 125 c 2
 255 634 l 1
 359 651 l 1
 369 648 l 1
 369 648 455 322 521 121 c 0
 536 72 556 56 609 51 c 1
 612 46 l 1
 605 -3 l 1
 605 -3 530 0 492 0 c 0
 411 0 334 -9 334 -9 c 1
203 279 m 1
 283 279 l 2
 307 279 345 281 367 283 c 1
 298 527 l 1
 288 527 l 1
 203 279 l 1
295 -200 m 0
 253 -200 232 -171 232 -135 c 0
 232 -95 259 -65 302 -65 c 0
 343 -65 366 -93 366 -130 c 0
 366 -170 339 -200 295 -200 c 0
EndSplineSet
Fore
SplineSet
301 695 m 0
 225 695 185 748 169 801 c 1
 190 821 l 1
 202 823 l 1
 220 787 258 769 301 769 c 0
 344 769 382 787 400 823 c 1
 412 821 l 1
 433 801 l 1
 418 748 377 695 301 695 c 0
334 -9 m 1
 330 -2 l 1
 334 47 l 1
 402 52 418 59 418 84 c 0
 418 95 416 109 411 126 c 2
 383 220 l 1
 358 221 311 221 285 221 c 0
 249 221 205 217 182 214 c 1
 150 122 l 2
 145 106 142 95 142 87 c 0
 142 60 158 50 196 50 c 2
 247 50 l 1
 250 45 l 1
 244 -6 l 1
 244 -6 167 0 102 0 c 0
 51 0 -13 -3 -13 -3 c 1
 -5 52 l 1
 29 57 48 74 67 125 c 2
 255 634 l 1
 359 651 l 1
 369 648 l 1
 369 648 455 322 521 121 c 0
 536 72 556 56 609 51 c 1
 612 46 l 1
 605 -3 l 1
 605 -3 530 0 492 0 c 0
 411 0 334 -9 334 -9 c 1
203 279 m 1
 283 279 l 2
 307 279 345 281 367 283 c 1
 298 527 l 1
 288 527 l 1
 203 279 l 1
295 -200 m 0
 253 -200 232 -171 232 -135 c 0
 232 -95 259 -65 302 -65 c 0
 343 -65 366 -93 366 -130 c 0
 366 -170 339 -200 295 -200 c 0
EndSplineSet
Substitution2: "'c2sc' Capitals to Small Capitals lookup 35 subtable" uni1EB7.sc
Substitution2: "'aalt' Access All Alternates lookup 0 subtable" uni1EB7.sc
Position2: "'cpsp' Capital Spacing lookup 0 subtable" dx=10 dy=0 dh=20 dv=0
EndChar

StartChar: uni1EB0
Encoding: 7856 7856 6
Width: 603
GlyphClass: 2
Flags: MW
HStem: 0 50 221 58<267 283 283 295 203 298> 631 20G<359 359> 685 74<288 331.5 288 348>
VStem: 319 19
AnchorPoint: "Anchor-17" 0 0 basechar 0
AnchorPoint: "Anchor-16" 0 0 basechar 0
AnchorPoint: "Anchor-15" 310 954 basechar 0
AnchorPoint: "Anchor-14" 543 10 basechar 0
AnchorPoint: "Anchor-13" 301 0 basechar 0
LayerCount: 2
Back
SplineSet
319 798 m 1
 236 874 l 1
 212 911 l 1
 241 941 l 1
 269 954 l 1
 337 855 l 1
 339 807 l 1
 319 798 l 1
310 685 m 0
 234 685 193 745 178 804 c 1
 199 825 l 1
 211 826 l 1
 228 781 266 759 310 759 c 0
 353 759 391 781 409 826 c 1
 421 825 l 1
 442 804 l 1
 426 745 386 685 310 685 c 0
334 -9 m 1
 330 -2 l 1
 334 47 l 1
 402 52 418 59 418 84 c 0
 418 95 416 109 411 126 c 2
 383 220 l 1
 358 221 311 221 285 221 c 0
 249 221 205 217 182 214 c 1
 150 122 l 2
 145 106 142 95 142 87 c 0
 142 60 158 50 196 50 c 2
 247 50 l 1
 250 45 l 1
 244 -6 l 1
 244 -6 167 0 102 0 c 0
 51 0 -13 -3 -13 -3 c 1
 -5 52 l 1
 29 57 48 74 67 125 c 2
 255 634 l 1
 359 651 l 1
 369 648 l 1
 369 648 455 322 521 121 c 0
 536 72 556 56 609 51 c 1
 612 46 l 1
 605 -3 l 1
 605 -3 530 0 492 0 c 0
 411 0 334 -9 334 -9 c 1
203 279 m 1
 283 279 l 2
 307 279 345 281 367 283 c 1
 298 527 l 1
 288 527 l 1
 203 279 l 1
EndSplineSet
Fore
SplineSet
319 798 m 1
 236 874 l 1
 212 911 l 1
 241 941 l 1
 269 954 l 1
 337 855 l 1
 339 807 l 1
 319 798 l 1
310 685 m 0
 234 685 193 745 178 804 c 1
 199 825 l 1
 211 826 l 1
 228 781 266 759 310 759 c 0
 353 759 391 781 409 826 c 1
 421 825 l 1
 442 804 l 1
 426 745 386 685 310 685 c 0
334 -9 m 1
 330 -2 l 1
 334 47 l 1
 402 52 418 59 418 84 c 0
 418 95 416 109 411 126 c 2
 383 220 l 1
 358 221 311 221 285 221 c 0
 249 221 205 217 182 214 c 1
 150 122 l 2
 145 106 142 95 142 87 c 0
 142 60 158 50 196 50 c 2
 247 50 l 1
 250 45 l 1
 244 -6 l 1
 244 -6 167 0 102 0 c 0
 51 0 -13 -3 -13 -3 c 1
 -5 52 l 1
 29 57 48 74 67 125 c 2
 255 634 l 1
 359 651 l 1
 369 648 l 1
 369 648 455 322 521 121 c 0
 536 72 556 56 609 51 c 1
 612 46 l 1
 605 -3 l 1
 605 -3 530 0 492 0 c 0
 411 0 334 -9 334 -9 c 1
203 279 m 1
 283 279 l 2
 307 279 345 281 367 283 c 1
 298 527 l 1
 288 527 l 1
 203 279 l 1
EndSplineSet
Substitution2: "'c2sc' Capitals to Small Capitals lookup 35 subtable" uni1EB1.sc
Substitution2: "'aalt' Access All Alternates lookup 0 subtable" uni1EB1.sc
Position2: "'cpsp' Capital Spacing lookup 0 subtable" dx=10 dy=0 dh=20 dv=0
EndChar

StartChar: uni1EB2
Encoding: 7858 7858 7
Width: 603
GlyphClass: 2
Flags: MW
HStem: 0 50 221 58<267 283 283 295 203 298> 631 20G<359 359> 685 74<286.5 332.5 286.5 341.5> 929 54<291 293>
VStem: 316 61<910 912.5>
AnchorPoint: "Anchor-17" 0 0 basechar 0
AnchorPoint: "Anchor-16" 0 0 basechar 0
AnchorPoint: "Anchor-15" 310 983 basechar 0
AnchorPoint: "Anchor-14" 543 10 basechar 0
AnchorPoint: "Anchor-13" 301 0 basechar 0
LayerCount: 2
Back
SplineSet
302 788 m 1
 267 845 l 1
 303 870 316 887 316 905 c 0
 316 920 303 929 283 929 c 0
 255 929 228 911 228 911 c 1
 215 931 l 1
 215 931 253 970 291 983 c 1
 344 983 377 960 377 921 c 0
 377 899 358 871 321 843 c 1
 342 808 l 1
 302 788 l 1
310 685 m 0
 246 685 197 730 178 804 c 1
 199 825 l 1
 211 826 l 1
 227 784 263 759 310 759 c 0
 355 759 392 783 409 826 c 1
 421 825 l 1
 442 804 l 1
 422 730 373 685 310 685 c 0
334 -9 m 1
 330 -2 l 1
 334 47 l 1
 402 52 418 59 418 84 c 0
 418 95 416 109 411 126 c 2
 383 220 l 1
 358 221 311 221 285 221 c 0
 249 221 205 217 182 214 c 1
 150 122 l 2
 145 106 142 95 142 87 c 0
 142 60 158 50 196 50 c 2
 247 50 l 1
 250 45 l 1
 244 -6 l 1
 244 -6 167 0 102 0 c 0
 51 0 -13 -3 -13 -3 c 1
 -5 52 l 1
 29 57 48 74 67 125 c 2
 255 634 l 1
 359 651 l 1
 369 648 l 1
 369 648 455 322 521 121 c 0
 536 72 556 56 609 51 c 1
 612 46 l 1
 605 -3 l 1
 605 -3 530 0 492 0 c 0
 411 0 334 -9 334 -9 c 1
203 279 m 1
 283 279 l 2
 307 279 345 281 367 283 c 1
 298 527 l 1
 288 527 l 1
 203 279 l 1
EndSplineSet
Fore
SplineSet
302 788 m 1
 267 845 l 1
 303 870 316 887 316 905 c 0
 316 920 303 929 283 929 c 0
 255 929 228 911 228 911 c 1
 215 931 l 1
 215 931 253 970 291 983 c 1
 344 983 377 960 377 921 c 0
 377 899 358 871 321 843 c 1
 342 808 l 1
 302 788 l 1
310 685 m 0
 246 685 197 730 178 804 c 1
 199 825 l 1
 211 826 l 1
 227 784 263 759 310 759 c 0
 355 759 392 783 409 826 c 1
 421 825 l 1
 442 804 l 1
 422 730 373 685 310 685 c 0
334 -9 m 1
 330 -2 l 1
 334 47 l 1
 402 52 418 59 418 84 c 0
 418 95 416 109 411 126 c 2
 383 220 l 1
 358 221 311 221 285 221 c 0
 249 221 205 217 182 214 c 1
 150 122 l 2
 145 106 142 95 142 87 c 0
 142 60 158 50 196 50 c 2
 247 50 l 1
 250 45 l 1
 244 -6 l 1
 244 -6 167 0 102 0 c 0
 51 0 -13 -3 -13 -3 c 1
 -5 52 l 1
 29 57 48 74 67 125 c 2
 255 634 l 1
 359 651 l 1
 369 648 l 1
 369 648 455 322 521 121 c 0
 536 72 556 56 609 51 c 1
 612 46 l 1
 605 -3 l 1
 605 -3 530 0 492 0 c 0
 411 0 334 -9 334 -9 c 1
203 279 m 1
 283 279 l 2
 307 279 345 281 367 283 c 1
 298 527 l 1
 288 527 l 1
 203 279 l 1
EndSplineSet
Substitution2: "'c2sc' Capitals to Small Capitals lookup 35 subtable" uni1EB3.sc
Substitution2: "'aalt' Access All Alternates lookup 0 subtable" uni1EB3.sc
Position2: "'cpsp' Capital Spacing lookup 0 subtable" dx=10 dy=0 dh=20 dv=0
EndChar

StartChar: uni1EB4
Encoding: 7860 7860 8
Width: 603
GlyphClass: 2
Flags: MW
HStem: 0 50 221 58<267 283 283 295 203 298> 631 20G<359 359> 687 71<289 330.5 289 346.5> 828 66<361 375> 857 66<241 255 241 260.5>
VStem: -13 625<-3 46>
AnchorPoint: "Anchor-17" 0 0 basechar 0
AnchorPoint: "Anchor-16" 0 0 basechar 0
AnchorPoint: "Anchor-15" 308 931 basechar 0
AnchorPoint: "Anchor-14" 543 10 basechar 0
AnchorPoint: "Anchor-13" 301 0 basechar 0
LayerCount: 2
Back
SplineSet
185 821 m 1xf6
 161 847 l 1
 161 853 l 1
 226 920 l 1
 241 923 l 1xf6
 269 923 343 894 368 894 c 0
 388 894 423 930 423 930 c 1
 431 930 l 1
 455 904 l 1
 455 898 l 1
 389 831 l 1
 375 828 l 1xfa
 347 828 273 857 248 857 c 0
 226 857 193 821 193 821 c 1
 185 821 l 1xf6
310 758 m 0
 351 758 387 773 404 803 c 1
 415 802 l 1
 437 783 l 1
 422 735 383 687 310 687 c 0
 237 687 197 735 183 783 c 1
 204 802 l 1
 216 803 l 1
 232 773 268 758 310 758 c 0
334 -9 m 1
 330 -2 l 1
 334 47 l 1
 402 52 418 59 418 84 c 0
 418 95 416 109 411 126 c 2
 383 220 l 1
 358 221 311 221 285 221 c 0
 249 221 205 217 182 214 c 1
 150 122 l 2
 145 106 142 95 142 87 c 0
 142 60 158 50 196 50 c 2
 247 50 l 1
 250 45 l 1
 244 -6 l 1
 244 -6 167 0 102 0 c 0
 51 0 -13 -3 -13 -3 c 1
 -5 52 l 1
 29 57 48 74 67 125 c 2
 255 634 l 1
 359 651 l 1
 369 648 l 1
 369 648 455 322 521 121 c 0
 536 72 556 56 609 51 c 1
 612 46 l 1
 605 -3 l 1
 605 -3 530 0 492 0 c 0
 411 0 334 -9 334 -9 c 1
203 279 m 1
 283 279 l 2
 307 279 345 281 367 283 c 1
 298 527 l 1
 288 527 l 1
 203 279 l 1
EndSplineSet
Fore
SplineSet
185 821 m 1xf6
 161 847 l 1
 161 853 l 1
 226 920 l 1
 241 923 l 1xf6
 269 923 343 894 368 894 c 0
 388 894 423 930 423 930 c 1
 431 930 l 1
 455 904 l 1
 455 898 l 1
 389 831 l 1
 375 828 l 1xfa
 347 828 273 857 248 857 c 0
 226 857 193 821 193 821 c 1
 185 821 l 1xf6
310 758 m 0
 351 758 387 773 404 803 c 1
 415 802 l 1
 437 783 l 1
 422 735 383 687 310 687 c 0
 237 687 197 735 183 783 c 1
 204 802 l 1
 216 803 l 1
 232 773 268 758 310 758 c 0
334 -9 m 1
 330 -2 l 1
 334 47 l 1
 402 52 418 59 418 84 c 0
 418 95 416 109 411 126 c 2
 383 220 l 1
 358 221 311 221 285 221 c 0
 249 221 205 217 182 214 c 1
 150 122 l 2
 145 106 142 95 142 87 c 0
 142 60 158 50 196 50 c 2
 247 50 l 1
 250 45 l 1
 244 -6 l 1
 244 -6 167 0 102 0 c 0
 51 0 -13 -3 -13 -3 c 1
 -5 52 l 1
 29 57 48 74 67 125 c 2
 255 634 l 1
 359 651 l 1
 369 648 l 1
 369 648 455 322 521 121 c 0
 536 72 556 56 609 51 c 1
 612 46 l 1
 605 -3 l 1
 605 -3 530 0 492 0 c 0
 411 0 334 -9 334 -9 c 1
203 279 m 1
 283 279 l 2
 307 279 345 281 367 283 c 1
 298 527 l 1
 288 527 l 1
 203 279 l 1
EndSplineSet
Substitution2: "'c2sc' Capitals to Small Capitals lookup 35 subtable" uni1EB5.sc
Substitution2: "'aalt' Access All Alternates lookup 0 subtable" uni1EB5.sc
Position2: "'cpsp' Capital Spacing lookup 0 subtable" dx=10 dy=0 dh=20 dv=0
EndChar

StartChar: uni01CD
Encoding: 461 461 9
Width: 603
GlyphClass: 2
Flags: MW
HStem: 0 50 221 58<267 283 283 295 203 298> 631 20G<359 359>
VStem: -13 625<-3 46>
AnchorPoint: "Anchor-17" 0 0 basechar 0
AnchorPoint: "Anchor-16" 0 0 basechar 0
AnchorPoint: "Anchor-15" 307 774 basechar 0
AnchorPoint: "Anchor-14" 543 10 basechar 0
AnchorPoint: "Anchor-13" 301 0 basechar 0
LayerCount: 2
Back
SplineSet
299 701 m 1
 299 701 222 766 153 817 c 1
 171 848 l 1
 183 850 l 1
 230 824 280 800 307 788 c 1
 336 800 383 824 431 850 c 1
 443 848 l 1
 462 817 l 1
 393 766 316 701 316 701 c 1
 299 701 l 1
334 -9 m 1
 330 -2 l 1
 334 47 l 1
 402 52 418 59 418 84 c 0
 418 95 416 109 411 126 c 2
 383 220 l 1
 358 221 311 221 285 221 c 0
 249 221 205 217 182 214 c 1
 150 122 l 2
 145 106 142 95 142 87 c 0
 142 60 158 50 196 50 c 2
 247 50 l 1
 250 45 l 1
 244 -6 l 1
 244 -6 167 0 102 0 c 0
 51 0 -13 -3 -13 -3 c 1
 -5 52 l 1
 29 57 48 74 67 125 c 2
 255 634 l 1
 359 651 l 1
 369 648 l 1
 369 648 455 322 521 121 c 0
 536 72 556 56 609 51 c 1
 612 46 l 1
 605 -3 l 1
 605 -3 530 0 492 0 c 0
 411 0 334 -9 334 -9 c 1
203 279 m 1
 283 279 l 2
 307 279 345 281 367 283 c 1
 298 527 l 1
 288 527 l 1
 203 279 l 1
EndSplineSet
Fore
SplineSet
299 701 m 1
 299 701 222 766 153 817 c 1
 171 848 l 1
 183 850 l 1
 230 824 280 800 307 788 c 1
 336 800 383 824 431 850 c 1
 443 848 l 1
 462 817 l 1
 393 766 316 701 316 701 c 1
 299 701 l 1
334 -9 m 1
 330 -2 l 1
 334 47 l 1
 402 52 418 59 418 84 c 0
 418 95 416 109 411 126 c 2
 383 220 l 1
 358 221 311 221 285 221 c 0
 249 221 205 217 182 214 c 1
 150 122 l 2
 145 106 142 95 142 87 c 0
 142 60 158 50 196 50 c 2
 247 50 l 1
 250 45 l 1
 244 -6 l 1
 244 -6 167 0 102 0 c 0
 51 0 -13 -3 -13 -3 c 1
 -5 52 l 1
 29 57 48 74 67 125 c 2
 255 634 l 1
 359 651 l 1
 369 648 l 1
 369 648 455 322 521 121 c 0
 536 72 556 56 609 51 c 1
 612 46 l 1
 605 -3 l 1
 605 -3 530 0 492 0 c 0
 411 0 334 -9 334 -9 c 1
203 279 m 1
 283 279 l 2
 307 279 345 281 367 283 c 1
 298 527 l 1
 288 527 l 1
 203 279 l 1
EndSplineSet
Substitution2: "'c2sc' Capitals to Small Capitals lookup 35 subtable" uni01CE.sc
Substitution2: "'aalt' Access All Alternates lookup 0 subtable" uni01CE.sc
Position2: "'cpsp' Capital Spacing lookup 0 subtable" dx=10 dy=0 dh=20 dv=0
EndChar

StartChar: Acircumflex
Encoding: 194 194 10
Width: 603
GlyphClass: 2
Flags: MW
HStem: 0 50 221 58<267 283 283 295 203 298> 631 20G<359 359> 722 20G<153 153 462 462>
VStem: -13 625<-3 46>
AnchorPoint: "Anchor-17" 0 0 basechar 0
AnchorPoint: "Anchor-16" 0 0 basechar 0
AnchorPoint: "Anchor-15" 307 859 basechar 0
AnchorPoint: "Anchor-14" 543 10 basechar 0
AnchorPoint: "Anchor-13" 301 0 basechar 0
LayerCount: 2
Back
SplineSet
183 710 m 1
 172 712 l 1
 153 742 l 1
 222 794 299 859 299 859 c 1
 316 859 l 1
 316 860 393 794 462 742 c 1
 443 712 l 1
 431 710 l 1
 385 735 335 759 307 772 c 1
 279 759 231 736 183 710 c 1
334 -9 m 1
 330 -2 l 1
 334 47 l 1
 402 52 418 59 418 84 c 0
 418 95 416 109 411 126 c 2
 383 220 l 1
 358 221 311 221 285 221 c 0
 249 221 205 217 182 214 c 1
 150 122 l 2
 145 106 142 95 142 87 c 0
 142 60 158 50 196 50 c 2
 247 50 l 1
 250 45 l 1
 244 -6 l 1
 244 -6 167 0 102 0 c 0
 51 0 -13 -3 -13 -3 c 1
 -5 52 l 1
 29 57 48 74 67 125 c 2
 255 634 l 1
 359 651 l 1
 369 648 l 1
 369 648 455 322 521 121 c 0
 536 72 556 56 609 51 c 1
 612 46 l 1
 605 -3 l 1
 605 -3 530 0 492 0 c 0
 411 0 334 -9 334 -9 c 1
203 279 m 1
 283 279 l 2
 307 279 345 281 367 283 c 1
 298 527 l 1
 288 527 l 1
 203 279 l 1
EndSplineSet
Fore
SplineSet
183 710 m 1
 172 712 l 1
 153 742 l 1
 222 794 299 859 299 859 c 1
 316 859 l 1
 316 860 393 794 462 742 c 1
 443 712 l 1
 431 710 l 1
 385 735 335 759 307 772 c 1
 279 759 231 736 183 710 c 1
334 -9 m 1
 330 -2 l 1
 334 47 l 1
 402 52 418 59 418 84 c 0
 418 95 416 109 411 126 c 2
 383 220 l 1
 358 221 311 221 285 221 c 0
 249 221 205 217 182 214 c 1
 150 122 l 2
 145 106 142 95 142 87 c 0
 142 60 158 50 196 50 c 2
 247 50 l 1
 250 45 l 1
 244 -6 l 1
 244 -6 167 0 102 0 c 0
 51 0 -13 -3 -13 -3 c 1
 -5 52 l 1
 29 57 48 74 67 125 c 2
 255 634 l 1
 359 651 l 1
 369 648 l 1
 369 648 455 322 521 121 c 0
 536 72 556 56 609 51 c 1
 612 46 l 1
 605 -3 l 1
 605 -3 530 0 492 0 c 0
 411 0 334 -9 334 -9 c 1
203 279 m 1
 283 279 l 2
 307 279 345 281 367 283 c 1
 298 527 l 1
 288 527 l 1
 203 279 l 1
EndSplineSet
Substitution2: "'c2sc' Capitals to Small Capitals lookup 35 subtable" acircumflex.sc
Substitution2: "'aalt' Access All Alternates lookup 0 subtable" acircumflex.sc
Position2: "'cpsp' Capital Spacing lookup 0 subtable" dx=10 dy=0 dh=20 dv=0
EndChar

StartChar: uni1EA4
Encoding: 7844 7844 11
Width: 603
GlyphClass: 2
Flags: MW
HStem: 0 50 221 58<267 283 283 295 203 298> 631 20G<359 359>
VStem: -13 625<-3 46>
AnchorPoint: "Anchor-17" 0 0 basechar 0
AnchorPoint: "Anchor-16" 0 0 basechar 0
AnchorPoint: "Anchor-15" 305 939 basechar 0
AnchorPoint: "Anchor-14" 543 10 basechar 0
AnchorPoint: "Anchor-13" 301 0 basechar 0
LayerCount: 2
Back
SplineSet
417 770 m 1
 385 790 l 1
 448 927 l 1
 459 929 l 1
 510 898 l 1
 513 886 l 1
 429 771 l 1
 417 770 l 1
188 660 m 1
 177 662 l 1
 159 691 l 1
 226 742 302 806 302 806 c 1
 318 806 l 1
 318 806 394 742 461 691 c 1
 443 662 l 1
 432 660 l 1
 386 685 337 709 310 721 c 1
 282 709 235 686 188 660 c 1
334 -9 m 1
 330 -2 l 1
 334 47 l 1
 402 52 418 59 418 84 c 0
 418 95 416 109 411 126 c 2
 383 220 l 1
 358 221 311 221 285 221 c 0
 249 221 205 217 182 214 c 1
 150 122 l 2
 145 106 142 95 142 87 c 0
 142 60 158 50 196 50 c 2
 247 50 l 1
 250 45 l 1
 244 -6 l 1
 244 -6 167 0 102 0 c 0
 51 0 -13 -3 -13 -3 c 1
 -5 52 l 1
 29 57 48 74 67 125 c 2
 255 634 l 1
 359 651 l 1
 369 648 l 1
 369 648 455 322 521 121 c 0
 536 72 556 56 609 51 c 1
 612 46 l 1
 605 -3 l 1
 605 -3 530 0 492 0 c 0
 411 0 334 -9 334 -9 c 1
203 279 m 1
 283 279 l 2
 307 279 345 281 367 283 c 1
 298 527 l 1
 288 527 l 1
 203 279 l 1
EndSplineSet
Fore
SplineSet
417 770 m 1
 385 790 l 1
 448 927 l 1
 459 929 l 1
 510 898 l 1
 513 886 l 1
 429 771 l 1
 417 770 l 1
188 660 m 1
 177 662 l 1
 159 691 l 1
 226 742 302 806 302 806 c 1
 318 806 l 1
 318 806 394 742 461 691 c 1
 443 662 l 1
 432 660 l 1
 386 685 337 709 310 721 c 1
 282 709 235 686 188 660 c 1
334 -9 m 1
 330 -2 l 1
 334 47 l 1
 402 52 418 59 418 84 c 0
 418 95 416 109 411 126 c 2
 383 220 l 1
 358 221 311 221 285 221 c 0
 249 221 205 217 182 214 c 1
 150 122 l 2
 145 106 142 95 142 87 c 0
 142 60 158 50 196 50 c 2
 247 50 l 1
 250 45 l 1
 244 -6 l 1
 244 -6 167 0 102 0 c 0
 51 0 -13 -3 -13 -3 c 1
 -5 52 l 1
 29 57 48 74 67 125 c 2
 255 634 l 1
 359 651 l 1
 369 648 l 1
 369 648 455 322 521 121 c 0
 536 72 556 56 609 51 c 1
 612 46 l 1
 605 -3 l 1
 605 -3 530 0 492 0 c 0
 411 0 334 -9 334 -9 c 1
203 279 m 1
 283 279 l 2
 307 279 345 281 367 283 c 1
 298 527 l 1
 288 527 l 1
 203 279 l 1
EndSplineSet
Substitution2: "'c2sc' Capitals to Small Capitals lookup 35 subtable" uni1EA5.sc
Substitution2: "'aalt' Access All Alternates lookup 0 subtable" uni1EA5.sc
Position2: "'cpsp' Capital Spacing lookup 0 subtable" dx=10 dy=0 dh=20 dv=0
EndChar

StartChar: uni1EAC
Encoding: 7852 7852 12
Width: 603
GlyphClass: 2
Flags: MW
HStem: -200 135<268.5 306> 0 50 221 58<267 283 283 295 203 298> 631 20G<359 359> 722 20G<153 153 462 462>
VStem: 220 135<-150 -115>
AnchorPoint: "Anchor-17" 0 0 basechar 0
AnchorPoint: "Anchor-16" 0 0 basechar 0
AnchorPoint: "Anchor-15" 307 859 basechar 0
AnchorPoint: "Anchor-14" 543 10 basechar 0
AnchorPoint: "Anchor-13" 288 -200 basechar 0
LayerCount: 2
Back
SplineSet
183 710 m 1
 172 712 l 1
 153 742 l 1
 222 794 299 859 299 859 c 1
 316 859 l 1
 316 860 393 794 462 742 c 1
 443 712 l 1
 431 710 l 1
 385 735 335 759 307 772 c 1
 279 759 231 736 183 710 c 1
334 -9 m 1
 330 -2 l 1
 334 47 l 1
 402 52 418 59 418 84 c 0
 418 95 416 109 411 126 c 2
 383 220 l 1
 358 221 311 221 285 221 c 0
 249 221 205 217 182 214 c 1
 150 122 l 2
 145 106 142 95 142 87 c 0
 142 60 158 50 196 50 c 2
 247 50 l 1
 250 45 l 1
 244 -6 l 1
 244 -6 167 0 102 0 c 0
 51 0 -13 -3 -13 -3 c 1
 -5 52 l 1
 29 57 48 74 67 125 c 2
 255 634 l 1
 359 651 l 1
 369 648 l 1
 369 648 455 322 521 121 c 0
 536 72 556 56 609 51 c 1
 612 46 l 1
 605 -3 l 1
 605 -3 530 0 492 0 c 0
 411 0 334 -9 334 -9 c 1
203 279 m 1
 283 279 l 2
 307 279 345 281 367 283 c 1
 298 527 l 1
 288 527 l 1
 203 279 l 1
284 -200 m 0
 241 -200 220 -171 220 -135 c 0
 220 -95 247 -65 290 -65 c 0
 332 -65 355 -93 355 -130 c 0
 355 -170 328 -200 284 -200 c 0
EndSplineSet
Fore
SplineSet
183 710 m 1
 172 712 l 1
 153 742 l 1
 222 794 299 859 299 859 c 1
 316 859 l 1
 316 860 393 794 462 742 c 1
 443 712 l 1
 431 710 l 1
 385 735 335 759 307 772 c 1
 279 759 231 736 183 710 c 1
334 -9 m 1
 330 -2 l 1
 334 47 l 1
 402 52 418 59 418 84 c 0
 418 95 416 109 411 126 c 2
 383 220 l 1
 358 221 311 221 285 221 c 0
 249 221 205 217 182 214 c 1
 150 122 l 2
 145 106 142 95 142 87 c 0
 142 60 158 50 196 50 c 2
 247 50 l 1
 250 45 l 1
 244 -6 l 1
 244 -6 167 0 102 0 c 0
 51 0 -13 -3 -13 -3 c 1
 -5 52 l 1
 29 57 48 74 67 125 c 2
 255 634 l 1
 359 651 l 1
 369 648 l 1
 369 648 455 322 521 121 c 0
 536 72 556 56 609 51 c 1
 612 46 l 1
 605 -3 l 1
 605 -3 530 0 492 0 c 0
 411 0 334 -9 334 -9 c 1
203 279 m 1
 283 279 l 2
 307 279 345 281 367 283 c 1
 298 527 l 1
 288 527 l 1
 203 279 l 1
284 -200 m 0
 241 -200 220 -171 220 -135 c 0
 220 -95 247 -65 290 -65 c 0
 332 -65 355 -93 355 -130 c 0
 355 -170 328 -200 284 -200 c 0
EndSplineSet
Substitution2: "'c2sc' Capitals to Small Capitals lookup 35 subtable" uni1EAD.sc
Substitution2: "'aalt' Access All Alternates lookup 0 subtable" uni1EAD.sc
Position2: "'cpsp' Capital Spacing lookup 0 subtable" dx=10 dy=0 dh=20 dv=0
EndChar

StartChar: uni1EA6
Encoding: 7846 7846 13
Width: 603
GlyphClass: 2
Flags: MW
HStem: 0 50 221 58<267 283 283 295 203 298> 631 20G<359 359>
VStem: -13 625<-3 46>
AnchorPoint: "Anchor-17" 0 0 basechar 0
AnchorPoint: "Anchor-16" 0 0 basechar 0
AnchorPoint: "Anchor-15" 303 947 basechar 0
AnchorPoint: "Anchor-14" 543 10 basechar 0
AnchorPoint: "Anchor-13" 301 0 basechar 0
LayerCount: 2
Back
SplineSet
438 763 m 1
 426 764 l 1
 342 879 l 1
 345 892 l 1
 396 923 l 1
 407 921 l 1
 469 783 l 1
 438 763 l 1
159 691 m 1
 226 742 302 806 302 806 c 1
 318 806 l 1
 318 806 394 742 461 691 c 1
 443 662 l 1
 432 660 l 1
 386 685 337 709 310 721 c 1
 282 709 235 686 188 660 c 1
 177 662 l 1
 159 691 l 1
334 -9 m 1
 330 -2 l 1
 334 47 l 1
 402 52 418 59 418 84 c 0
 418 95 416 109 411 126 c 2
 383 220 l 1
 358 221 311 221 285 221 c 0
 249 221 205 217 182 214 c 1
 150 122 l 2
 145 106 142 95 142 87 c 0
 142 60 158 50 196 50 c 2
 247 50 l 1
 250 45 l 1
 244 -6 l 1
 244 -6 167 0 102 0 c 0
 51 0 -13 -3 -13 -3 c 1
 -5 52 l 1
 29 57 48 74 67 125 c 2
 255 634 l 1
 359 651 l 1
 369 648 l 1
 369 648 455 322 521 121 c 0
 536 72 556 56 609 51 c 1
 612 46 l 1
 605 -3 l 1
 605 -3 530 0 492 0 c 0
 411 0 334 -9 334 -9 c 1
203 279 m 1
 283 279 l 2
 307 279 345 281 367 283 c 1
 298 527 l 1
 288 527 l 1
 203 279 l 1
EndSplineSet
Fore
SplineSet
438 763 m 1
 426 764 l 1
 342 879 l 1
 345 892 l 1
 396 923 l 1
 407 921 l 1
 469 783 l 1
 438 763 l 1
159 691 m 1
 226 742 302 806 302 806 c 1
 318 806 l 1
 318 806 394 742 461 691 c 1
 443 662 l 1
 432 660 l 1
 386 685 337 709 310 721 c 1
 282 709 235 686 188 660 c 1
 177 662 l 1
 159 691 l 1
334 -9 m 1
 330 -2 l 1
 334 47 l 1
 402 52 418 59 418 84 c 0
 418 95 416 109 411 126 c 2
 383 220 l 1
 358 221 311 221 285 221 c 0
 249 221 205 217 182 214 c 1
 150 122 l 2
 145 106 142 95 142 87 c 0
 142 60 158 50 196 50 c 2
 247 50 l 1
 250 45 l 1
 244 -6 l 1
 244 -6 167 0 102 0 c 0
 51 0 -13 -3 -13 -3 c 1
 -5 52 l 1
 29 57 48 74 67 125 c 2
 255 634 l 1
 359 651 l 1
 369 648 l 1
 369 648 455 322 521 121 c 0
 536 72 556 56 609 51 c 1
 612 46 l 1
 605 -3 l 1
 605 -3 530 0 492 0 c 0
 411 0 334 -9 334 -9 c 1
203 279 m 1
 283 279 l 2
 307 279 345 281 367 283 c 1
 298 527 l 1
 288 527 l 1
 203 279 l 1
EndSplineSet
Substitution2: "'c2sc' Capitals to Small Capitals lookup 35 subtable" uni1EA7.sc
Substitution2: "'aalt' Access All Alternates lookup 0 subtable" uni1EA7.sc
Position2: "'cpsp' Capital Spacing lookup 0 subtable" dx=10 dy=0 dh=20 dv=0
EndChar

StartChar: uni1EA8
Encoding: 7848 7848 14
Width: 603
GlyphClass: 2
Flags: MW
HStem: 0 50 221 58<267 283 283 295 203 298> 631 20G<359 359> 897 54<411 413>
VStem: 436 61<878 881>
AnchorPoint: "Anchor-17" 0 0 basechar 0
AnchorPoint: "Anchor-16" 0 0 basechar 0
AnchorPoint: "Anchor-15" 317 958 basechar 0
AnchorPoint: "Anchor-14" 543 10 basechar 0
AnchorPoint: "Anchor-13" 301 0 basechar 0
LayerCount: 2
Back
SplineSet
422 756 m 1
 387 813 l 1
 423 838 436 855 436 873 c 0
 436 889 423 897 403 897 c 0
 375 897 348 879 348 879 c 1
 335 899 l 1
 335 899 373 938 411 951 c 1
 464 951 497 928 497 889 c 0
 497 867 478 840 441 811 c 1
 462 776 l 1
 422 756 l 1
159 691 m 1
 226 742 302 806 302 806 c 1
 318 806 l 1
 318 806 394 742 461 691 c 1
 443 662 l 1
 432 660 l 1
 386 685 337 709 310 721 c 1
 282 709 235 686 188 660 c 1
 177 662 l 1
 159 691 l 1
334 -9 m 1
 330 -2 l 1
 334 47 l 1
 402 52 418 59 418 84 c 0
 418 95 416 109 411 126 c 2
 383 220 l 1
 358 221 311 221 285 221 c 0
 249 221 205 217 182 214 c 1
 150 122 l 2
 145 106 142 95 142 87 c 0
 142 60 158 50 196 50 c 2
 247 50 l 1
 250 45 l 1
 244 -6 l 1
 244 -6 167 0 102 0 c 0
 51 0 -13 -3 -13 -3 c 1
 -5 52 l 1
 29 57 48 74 67 125 c 2
 255 634 l 1
 359 651 l 1
 369 648 l 1
 369 648 455 322 521 121 c 0
 536 72 556 56 609 51 c 1
 612 46 l 1
 605 -3 l 1
 605 -3 530 0 492 0 c 0
 411 0 334 -9 334 -9 c 1
203 279 m 1
 283 279 l 2
 307 279 345 281 367 283 c 1
 298 527 l 1
 288 527 l 1
 203 279 l 1
EndSplineSet
Fore
SplineSet
422 756 m 1
 387 813 l 1
 423 838 436 855 436 873 c 0
 436 889 423 897 403 897 c 0
 375 897 348 879 348 879 c 1
 335 899 l 1
 335 899 373 938 411 951 c 1
 464 951 497 928 497 889 c 0
 497 867 478 840 441 811 c 1
 462 776 l 1
 422 756 l 1
159 691 m 1
 226 742 302 806 302 806 c 1
 318 806 l 1
 318 806 394 742 461 691 c 1
 443 662 l 1
 432 660 l 1
 386 685 337 709 310 721 c 1
 282 709 235 686 188 660 c 1
 177 662 l 1
 159 691 l 1
334 -9 m 1
 330 -2 l 1
 334 47 l 1
 402 52 418 59 418 84 c 0
 418 95 416 109 411 126 c 2
 383 220 l 1
 358 221 311 221 285 221 c 0
 249 221 205 217 182 214 c 1
 150 122 l 2
 145 106 142 95 142 87 c 0
 142 60 158 50 196 50 c 2
 247 50 l 1
 250 45 l 1
 244 -6 l 1
 244 -6 167 0 102 0 c 0
 51 0 -13 -3 -13 -3 c 1
 -5 52 l 1
 29 57 48 74 67 125 c 2
 255 634 l 1
 359 651 l 1
 369 648 l 1
 369 648 455 322 521 121 c 0
 536 72 556 56 609 51 c 1
 612 46 l 1
 605 -3 l 1
 605 -3 530 0 492 0 c 0
 411 0 334 -9 334 -9 c 1
203 279 m 1
 283 279 l 2
 307 279 345 281 367 283 c 1
 298 527 l 1
 288 527 l 1
 203 279 l 1
EndSplineSet
Substitution2: "'c2sc' Capitals to Small Capitals lookup 35 subtable" uni1EA9.sc
Substitution2: "'aalt' Access All Alternates lookup 0 subtable" uni1EA9.sc
Position2: "'cpsp' Capital Spacing lookup 0 subtable" dx=10 dy=0 dh=20 dv=0
EndChar

StartChar: uni1EAA
Encoding: 7850 7850 15
Width: 603
GlyphClass: 2
Flags: MW
HStem: 0 50 221 58<267 283 283 295 203 298> 631 20G<359 359> 826 67<363.5 378> 855 68<241 255.5 241 261.5>
VStem: -13 625<-3 46>
AnchorPoint: "Anchor-17" 0 0 basechar 0
AnchorPoint: "Anchor-16" 0 0 basechar 0
AnchorPoint: "Anchor-15" 310 936 basechar 0
AnchorPoint: "Anchor-14" 543 10 basechar 0
AnchorPoint: "Anchor-13" 301 0 basechar 0
LayerCount: 2
Back
SplineSet
185 813 m 1xec
 159 838 l 1
 159 844 l 1
 227 920 l 1
 241 923 l 1xec
 270 923 345 893 370 893 c 0
 391 893 426 936 426 936 c 1
 434 936 l 1
 460 911 l 1
 460 905 l 1
 392 829 l 1
 378 826 l 1xf4
 349 826 274 855 249 855 c 0
 227 855 193 813 193 813 c 1
 185 813 l 1xec
159 691 m 1
 226 742 302 806 302 806 c 1
 318 806 l 1
 318 806 394 742 461 691 c 1
 443 662 l 1
 432 660 l 1
 386 685 337 709 310 721 c 1
 282 709 235 686 188 660 c 1
 177 662 l 1
 159 691 l 1
334 -9 m 1
 330 -2 l 1
 334 47 l 1
 402 52 418 59 418 84 c 0
 418 95 416 109 411 126 c 2
 383 220 l 1
 358 221 311 221 285 221 c 0
 249 221 205 217 182 214 c 1
 150 122 l 2
 145 106 142 95 142 87 c 0
 142 60 158 50 196 50 c 2
 247 50 l 1
 250 45 l 1
 244 -6 l 1
 244 -6 167 0 102 0 c 0
 51 0 -13 -3 -13 -3 c 1
 -5 52 l 1
 29 57 48 74 67 125 c 2
 255 634 l 1
 359 651 l 1
 369 648 l 1
 369 648 455 322 521 121 c 0
 536 72 556 56 609 51 c 1
 612 46 l 1
 605 -3 l 1
 605 -3 530 0 492 0 c 0
 411 0 334 -9 334 -9 c 1
203 279 m 1
 283 279 l 2
 307 279 345 281 367 283 c 1
 298 527 l 1
 288 527 l 1
 203 279 l 1
EndSplineSet
Fore
SplineSet
185 813 m 1xec
 159 838 l 1
 159 844 l 1
 227 920 l 1
 241 923 l 1xec
 270 923 345 893 370 893 c 0
 391 893 426 936 426 936 c 1
 434 936 l 1
 460 911 l 1
 460 905 l 1
 392 829 l 1
 378 826 l 1xf4
 349 826 274 855 249 855 c 0
 227 855 193 813 193 813 c 1
 185 813 l 1xec
159 691 m 1
 226 742 302 806 302 806 c 1
 318 806 l 1
 318 806 394 742 461 691 c 1
 443 662 l 1
 432 660 l 1
 386 685 337 709 310 721 c 1
 282 709 235 686 188 660 c 1
 177 662 l 1
 159 691 l 1
334 -9 m 1
 330 -2 l 1
 334 47 l 1
 402 52 418 59 418 84 c 0
 418 95 416 109 411 126 c 2
 383 220 l 1
 358 221 311 221 285 221 c 0
 249 221 205 217 182 214 c 1
 150 122 l 2
 145 106 142 95 142 87 c 0
 142 60 158 50 196 50 c 2
 247 50 l 1
 250 45 l 1
 244 -6 l 1
 244 -6 167 0 102 0 c 0
 51 0 -13 -3 -13 -3 c 1
 -5 52 l 1
 29 57 48 74 67 125 c 2
 255 634 l 1
 359 651 l 1
 369 648 l 1
 369 648 455 322 521 121 c 0
 536 72 556 56 609 51 c 1
 612 46 l 1
 605 -3 l 1
 605 -3 530 0 492 0 c 0
 411 0 334 -9 334 -9 c 1
203 279 m 1
 283 279 l 2
 307 279 345 281 367 283 c 1
 298 527 l 1
 288 527 l 1
 203 279 l 1
EndSplineSet
Substitution2: "'c2sc' Capitals to Small Capitals lookup 35 subtable" uni1EAB.sc
Substitution2: "'aalt' Access All Alternates lookup 0 subtable" uni1EAB.sc
Position2: "'cpsp' Capital Spacing lookup 0 subtable" dx=10 dy=0 dh=20 dv=0
EndChar

StartChar: uni0200
Encoding: 512 512 16
Width: 603
GlyphClass: 2
Flags: MW
HStem: 0 50 221 58<267 283 283 295 203 298> 631 20G<359 359>
VStem: -13 625<-3 46>
AnchorPoint: "Anchor-17" 0 0 basechar 0
AnchorPoint: "Anchor-16" 0 0 basechar 0
AnchorPoint: "Anchor-15" 272 838 basechar 0
AnchorPoint: "Anchor-14" 543 10 basechar 0
AnchorPoint: "Anchor-13" 301 0 basechar 0
LayerCount: 2
Back
SplineSet
420 682 m 1
 336 731 254 774 254 774 c 1
 252 784 l 1
 283 835 l 1
 293 838 l 1
 293 838 372 771 445 713 c 1
 430 687 l 1
 420 682 l 1
268 675 m 1
 184 724 102 766 102 766 c 1
 100 777 l 1
 131 827 l 1
 141 831 l 1
 141 831 220 764 293 706 c 1
 277 679 l 1
 268 675 l 1
334 -9 m 1
 330 -2 l 1
 334 47 l 1
 402 52 418 59 418 84 c 0
 418 95 416 109 411 126 c 2
 383 220 l 1
 358 221 311 221 285 221 c 0
 249 221 205 217 182 214 c 1
 150 122 l 2
 145 106 142 95 142 87 c 0
 142 60 158 50 196 50 c 2
 247 50 l 1
 250 45 l 1
 244 -6 l 1
 244 -6 167 0 102 0 c 0
 51 0 -13 -3 -13 -3 c 1
 -5 52 l 1
 29 57 48 74 67 125 c 2
 255 634 l 1
 359 651 l 1
 369 648 l 1
 369 648 455 322 521 121 c 0
 536 72 556 56 609 51 c 1
 612 46 l 1
 605 -3 l 1
 605 -3 530 0 492 0 c 0
 411 0 334 -9 334 -9 c 1
203 279 m 1
 283 279 l 2
 307 279 345 281 367 283 c 1
 298 527 l 1
 288 527 l 1
 203 279 l 1
EndSplineSet
Fore
SplineSet
420 682 m 1
 336 731 254 774 254 774 c 1
 252 784 l 1
 283 835 l 1
 293 838 l 1
 293 838 372 771 445 713 c 1
 430 687 l 1
 420 682 l 1
268 675 m 1
 184 724 102 766 102 766 c 1
 100 777 l 1
 131 827 l 1
 141 831 l 1
 141 831 220 764 293 706 c 1
 277 679 l 1
 268 675 l 1
334 -9 m 1
 330 -2 l 1
 334 47 l 1
 402 52 418 59 418 84 c 0
 418 95 416 109 411 126 c 2
 383 220 l 1
 358 221 311 221 285 221 c 0
 249 221 205 217 182 214 c 1
 150 122 l 2
 145 106 142 95 142 87 c 0
 142 60 158 50 196 50 c 2
 247 50 l 1
 250 45 l 1
 244 -6 l 1
 244 -6 167 0 102 0 c 0
 51 0 -13 -3 -13 -3 c 1
 -5 52 l 1
 29 57 48 74 67 125 c 2
 255 634 l 1
 359 651 l 1
 369 648 l 1
 369 648 455 322 521 121 c 0
 536 72 556 56 609 51 c 1
 612 46 l 1
 605 -3 l 1
 605 -3 530 0 492 0 c 0
 411 0 334 -9 334 -9 c 1
203 279 m 1
 283 279 l 2
 307 279 345 281 367 283 c 1
 298 527 l 1
 288 527 l 1
 203 279 l 1
EndSplineSet
Substitution2: "'c2sc' Capitals to Small Capitals lookup 35 subtable" uni0201.sc
Substitution2: "'aalt' Access All Alternates lookup 0 subtable" uni0201.sc
Position2: "'cpsp' Capital Spacing lookup 0 subtable" dx=10 dy=0 dh=20 dv=0
EndChar

StartChar: Adieresis
Encoding: 196 196 17
Width: 603
GlyphClass: 2
Flags: MW
HStem: 0 50 221 58<267 283 283 295 203 298> 631 20G<359 359> 709 108<208 234 380 405>
VStem: 168 106<750 775.5> 339 106<750 775.5>
AnchorPoint: "Anchor-17" 0 0 basechar 0
AnchorPoint: "Anchor-16" 0 0 basechar 0
AnchorPoint: "Anchor-15" 307 817 basechar 0
AnchorPoint: "Anchor-14" 543 10 basechar 0
AnchorPoint: "Anchor-13" 301 0 basechar 0
LayerCount: 2
Back
SplineSet
217 709 m 0
 185 709 168 732 168 759 c 0
 168 792 191 817 225 817 c 0
 257 817 274 794 274 766 c 0
 274 734 251 709 217 709 c 0
388 709 m 0
 356 709 339 732 339 759 c 0
 339 792 363 817 397 817 c 0
 428 817 445 794 445 766 c 0
 445 734 422 709 388 709 c 0
334 -9 m 1
 330 -2 l 1
 334 47 l 1
 402 52 418 59 418 84 c 0
 418 95 416 109 411 126 c 2
 383 220 l 1
 358 221 311 221 285 221 c 0
 249 221 205 217 182 214 c 1
 150 122 l 2
 145 106 142 95 142 87 c 0
 142 60 158 50 196 50 c 2
 247 50 l 1
 250 45 l 1
 244 -6 l 1
 244 -6 167 0 102 0 c 0
 51 0 -13 -3 -13 -3 c 1
 -5 52 l 1
 29 57 48 74 67 125 c 2
 255 634 l 1
 359 651 l 1
 369 648 l 1
 369 648 455 322 521 121 c 0
 536 72 556 56 609 51 c 1
 612 46 l 1
 605 -3 l 1
 605 -3 530 0 492 0 c 0
 411 0 334 -9 334 -9 c 1
203 279 m 1
 283 279 l 2
 307 279 345 281 367 283 c 1
 298 527 l 1
 288 527 l 1
 203 279 l 1
EndSplineSet
Fore
SplineSet
217 709 m 0
 185 709 168 732 168 759 c 0
 168 792 191 817 225 817 c 0
 257 817 274 794 274 766 c 0
 274 734 251 709 217 709 c 0
388 709 m 0
 356 709 339 732 339 759 c 0
 339 792 363 817 397 817 c 0
 428 817 445 794 445 766 c 0
 445 734 422 709 388 709 c 0
334 -9 m 1
 330 -2 l 1
 334 47 l 1
 402 52 418 59 418 84 c 0
 418 95 416 109 411 126 c 2
 383 220 l 1
 358 221 311 221 285 221 c 0
 249 221 205 217 182 214 c 1
 150 122 l 2
 145 106 142 95 142 87 c 0
 142 60 158 50 196 50 c 2
 247 50 l 1
 250 45 l 1
 244 -6 l 1
 244 -6 167 0 102 0 c 0
 51 0 -13 -3 -13 -3 c 1
 -5 52 l 1
 29 57 48 74 67 125 c 2
 255 634 l 1
 359 651 l 1
 369 648 l 1
 369 648 455 322 521 121 c 0
 536 72 556 56 609 51 c 1
 612 46 l 1
 605 -3 l 1
 605 -3 530 0 492 0 c 0
 411 0 334 -9 334 -9 c 1
203 279 m 1
 283 279 l 2
 307 279 345 281 367 283 c 1
 298 527 l 1
 288 527 l 1
 203 279 l 1
EndSplineSet
Substitution2: "'c2sc' Capitals to Small Capitals lookup 35 subtable" adieresis.sc
Substitution2: "'aalt' Access All Alternates lookup 0 subtable" adieresis.sc
Position2: "'cpsp' Capital Spacing lookup 0 subtable" dx=10 dy=0 dh=20 dv=0
EndChar

StartChar: uni1EA0
Encoding: 7840 7840 18
Width: 603
GlyphClass: 2
Flags: MW
HStem: -200 135<268.5 306> 0 50 221 58<267 283 283 295 203 298> 631 20G<359 359>
VStem: 220 135<-150 -115>
AnchorPoint: "Anchor-17" 0 0 basechar 0
AnchorPoint: "Anchor-16" 0 0 basechar 0
AnchorPoint: "Anchor-15" 301 639 basechar 0
AnchorPoint: "Anchor-14" 543 10 basechar 0
AnchorPoint: "Anchor-13" 288 -200 basechar 0
LayerCount: 2
Back
SplineSet
334 -9 m 1
 330 -2 l 1
 334 47 l 1
 402 52 418 59 418 84 c 0
 418 95 416 109 411 126 c 2
 383 220 l 1
 358 221 311 221 285 221 c 0
 249 221 205 217 182 214 c 1
 150 122 l 2
 145 106 142 95 142 87 c 0
 142 60 158 50 196 50 c 2
 247 50 l 1
 250 45 l 1
 244 -6 l 1
 244 -6 167 0 102 0 c 0
 51 0 -13 -3 -13 -3 c 1
 -5 52 l 1
 29 57 48 74 67 125 c 2
 255 634 l 1
 359 651 l 1
 369 648 l 1
 369 648 455 322 521 121 c 0
 536 72 556 56 609 51 c 1
 612 46 l 1
 605 -3 l 1
 605 -3 530 0 492 0 c 0
 411 0 334 -9 334 -9 c 1
203 279 m 1
 283 279 l 2
 307 279 345 281 367 283 c 1
 298 527 l 1
 288 527 l 1
 203 279 l 1
284 -200 m 0
 241 -200 220 -171 220 -135 c 0
 220 -95 247 -65 290 -65 c 0
 332 -65 355 -93 355 -130 c 0
 355 -170 328 -200 284 -200 c 0
EndSplineSet
Fore
SplineSet
334 -9 m 1
 330 -2 l 1
 334 47 l 1
 402 52 418 59 418 84 c 0
 418 95 416 109 411 126 c 2
 383 220 l 1
 358 221 311 221 285 221 c 0
 249 221 205 217 182 214 c 1
 150 122 l 2
 145 106 142 95 142 87 c 0
 142 60 158 50 196 50 c 2
 247 50 l 1
 250 45 l 1
 244 -6 l 1
 244 -6 167 0 102 0 c 0
 51 0 -13 -3 -13 -3 c 1
 -5 52 l 1
 29 57 48 74 67 125 c 2
 255 634 l 1
 359 651 l 1
 369 648 l 1
 369 648 455 322 521 121 c 0
 536 72 556 56 609 51 c 1
 612 46 l 1
 605 -3 l 1
 605 -3 530 0 492 0 c 0
 411 0 334 -9 334 -9 c 1
203 279 m 1
 283 279 l 2
 307 279 345 281 367 283 c 1
 298 527 l 1
 288 527 l 1
 203 279 l 1
284 -200 m 0
 241 -200 220 -171 220 -135 c 0
 220 -95 247 -65 290 -65 c 0
 332 -65 355 -93 355 -130 c 0
 355 -170 328 -200 284 -200 c 0
EndSplineSet
Substitution2: "'c2sc' Capitals to Small Capitals lookup 35 subtable" uni1EA1.sc
Substitution2: "'aalt' Access All Alternates lookup 0 subtable" uni1EA1.sc
Position2: "'cpsp' Capital Spacing lookup 0 subtable" dx=10 dy=0 dh=20 dv=0
EndChar

StartChar: Agrave
Encoding: 192 192 19
Width: 603
GlyphClass: 2
Flags: MW
HStem: 0 50 221 58<267 283 283 295 203 298> 631 20G<359 359> 721 20G<394 394>
VStem: -13 625<-3 46>
AnchorPoint: "Anchor-17" 0 0 basechar 0
AnchorPoint: "Anchor-16" 0 0 basechar 0
AnchorPoint: "Anchor-15" 274 848 basechar 0
AnchorPoint: "Anchor-14" 543 10 basechar 0
AnchorPoint: "Anchor-13" 301 0 basechar 0
LayerCount: 2
Back
SplineSet
374 701 m 1
 265 739 158 771 158 771 c 1
 154 782 l 1
 174 842 l 1
 184 848 l 1
 184 848 294 789 394 741 c 1
 385 707 l 1
 374 701 l 1
334 -9 m 1
 330 -2 l 1
 334 47 l 1
 402 52 418 59 418 84 c 0
 418 95 416 109 411 126 c 2
 383 220 l 1
 358 221 311 221 285 221 c 0
 249 221 205 217 182 214 c 1
 150 122 l 2
 145 106 142 95 142 87 c 0
 142 60 158 50 196 50 c 2
 247 50 l 1
 250 45 l 1
 244 -6 l 1
 244 -6 167 0 102 0 c 0
 51 0 -13 -3 -13 -3 c 1
 -5 52 l 1
 29 57 48 74 67 125 c 2
 255 634 l 1
 359 651 l 1
 369 648 l 1
 369 648 455 322 521 121 c 0
 536 72 556 56 609 51 c 1
 612 46 l 1
 605 -3 l 1
 605 -3 530 0 492 0 c 0
 411 0 334 -9 334 -9 c 1
203 279 m 1
 283 279 l 2
 307 279 345 281 367 283 c 1
 298 527 l 1
 288 527 l 1
 203 279 l 1
EndSplineSet
Fore
SplineSet
374 701 m 1
 265 739 158 771 158 771 c 1
 154 782 l 1
 174 842 l 1
 184 848 l 1
 184 848 294 789 394 741 c 1
 385 707 l 1
 374 701 l 1
334 -9 m 1
 330 -2 l 1
 334 47 l 1
 402 52 418 59 418 84 c 0
 418 95 416 109 411 126 c 2
 383 220 l 1
 358 221 311 221 285 221 c 0
 249 221 205 217 182 214 c 1
 150 122 l 2
 145 106 142 95 142 87 c 0
 142 60 158 50 196 50 c 2
 247 50 l 1
 250 45 l 1
 244 -6 l 1
 244 -6 167 0 102 0 c 0
 51 0 -13 -3 -13 -3 c 1
 -5 52 l 1
 29 57 48 74 67 125 c 2
 255 634 l 1
 359 651 l 1
 369 648 l 1
 369 648 455 322 521 121 c 0
 536 72 556 56 609 51 c 1
 612 46 l 1
 605 -3 l 1
 605 -3 530 0 492 0 c 0
 411 0 334 -9 334 -9 c 1
203 279 m 1
 283 279 l 2
 307 279 345 281 367 283 c 1
 298 527 l 1
 288 527 l 1
 203 279 l 1
EndSplineSet
Substitution2: "'c2sc' Capitals to Small Capitals lookup 35 subtable" agrave.sc
Substitution2: "'aalt' Access All Alternates lookup 0 subtable" agrave.sc
Position2: "'cpsp' Capital Spacing lookup 0 subtable" dx=10 dy=0 dh=20 dv=0
EndChar

StartChar: uni1EA2
Encoding: 7842 7842 20
Width: 603
GlyphClass: 2
Flags: MW
HStem: 0 50 221 58<267 283 283 295 203 298> 631 20G<359 359> 721 20G<323 323> 835 58<291 293>
VStem: 318 66<814 817>
AnchorPoint: "Anchor-17" 0 0 basechar 0
AnchorPoint: "Anchor-16" 0 0 basechar 0
AnchorPoint: "Anchor-15" 296 893 basechar 0
AnchorPoint: "Anchor-14" 543 10 basechar 0
AnchorPoint: "Anchor-13" 301 0 basechar 0
LayerCount: 2
Back
SplineSet
302 681 m 1
 264 743 l 1
 304 771 318 789 318 809 c 0
 318 825 304 835 282 835 c 0
 251 835 222 814 222 814 c 1
 208 836 l 1
 208 836 249 878 291 893 c 1
 348 893 384 868 384 826 c 0
 384 802 363 772 323 741 c 1
 346 704 l 1
 302 681 l 1
334 -9 m 1
 330 -2 l 1
 334 47 l 1
 402 52 418 59 418 84 c 0
 418 95 416 109 411 126 c 2
 383 220 l 1
 358 221 311 221 285 221 c 0
 249 221 205 217 182 214 c 1
 150 122 l 2
 145 106 142 95 142 87 c 0
 142 60 158 50 196 50 c 2
 247 50 l 1
 250 45 l 1
 244 -6 l 1
 244 -6 167 0 102 0 c 0
 51 0 -13 -3 -13 -3 c 1
 -5 52 l 1
 29 57 48 74 67 125 c 2
 255 634 l 1
 359 651 l 1
 369 648 l 1
 369 648 455 322 521 121 c 0
 536 72 556 56 609 51 c 1
 612 46 l 1
 605 -3 l 1
 605 -3 530 0 492 0 c 0
 411 0 334 -9 334 -9 c 1
203 279 m 1
 283 279 l 2
 307 279 345 281 367 283 c 1
 298 527 l 1
 288 527 l 1
 203 279 l 1
EndSplineSet
Fore
SplineSet
302 681 m 1
 264 743 l 1
 304 771 318 789 318 809 c 0
 318 825 304 835 282 835 c 0
 251 835 222 814 222 814 c 1
 208 836 l 1
 208 836 249 878 291 893 c 1
 348 893 384 868 384 826 c 0
 384 802 363 772 323 741 c 1
 346 704 l 1
 302 681 l 1
334 -9 m 1
 330 -2 l 1
 334 47 l 1
 402 52 418 59 418 84 c 0
 418 95 416 109 411 126 c 2
 383 220 l 1
 358 221 311 221 285 221 c 0
 249 221 205 217 182 214 c 1
 150 122 l 2
 145 106 142 95 142 87 c 0
 142 60 158 50 196 50 c 2
 247 50 l 1
 250 45 l 1
 244 -6 l 1
 244 -6 167 0 102 0 c 0
 51 0 -13 -3 -13 -3 c 1
 -5 52 l 1
 29 57 48 74 67 125 c 2
 255 634 l 1
 359 651 l 1
 369 648 l 1
 369 648 455 322 521 121 c 0
 536 72 556 56 609 51 c 1
 612 46 l 1
 605 -3 l 1
 605 -3 530 0 492 0 c 0
 411 0 334 -9 334 -9 c 1
203 279 m 1
 283 279 l 2
 307 279 345 281 367 283 c 1
 298 527 l 1
 288 527 l 1
 203 279 l 1
EndSplineSet
Substitution2: "'c2sc' Capitals to Small Capitals lookup 35 subtable" uni1EA3.sc
Substitution2: "'aalt' Access All Alternates lookup 0 subtable" uni1EA3.sc
Position2: "'cpsp' Capital Spacing lookup 0 subtable" dx=10 dy=0 dh=20 dv=0
EndChar

StartChar: uni0202
Encoding: 514 514 21
Width: 603
GlyphClass: 2
Flags: MW
HStem: 0 50 221 58<267 283 283 295 203 298> 631 20G<359 359> 718 20G 783 74<280 323.5>
VStem: -13 625<-3 46>
AnchorPoint: "Anchor-17" 0 0 basechar 0
AnchorPoint: "Anchor-16" 0 0 basechar 0
AnchorPoint: "Anchor-15" 302 857 basechar 0
AnchorPoint: "Anchor-14" 543 10 basechar 0
AnchorPoint: "Anchor-13" 301 0 basechar 0
LayerCount: 2
Back
SplineSet
302 783 m 0
 258 783 220 761 203 716 c 1
 191 718 l 1
 170 738 l 1
 185 798 226 857 302 857 c 0
 378 857 418 798 434 738 c 1
 413 718 l 1
 401 716 l 1
 383 761 345 783 302 783 c 0
334 -9 m 1
 330 -2 l 1
 334 47 l 1
 402 52 418 59 418 84 c 0
 418 95 416 109 411 126 c 2
 383 220 l 1
 358 221 311 221 285 221 c 0
 249 221 205 217 182 214 c 1
 150 122 l 2
 145 106 142 95 142 87 c 0
 142 60 158 50 196 50 c 2
 247 50 l 1
 250 45 l 1
 244 -6 l 1
 244 -6 167 0 102 0 c 0
 51 0 -13 -3 -13 -3 c 1
 -5 52 l 1
 29 57 48 74 67 125 c 2
 255 634 l 1
 359 651 l 1
 369 648 l 1
 369 648 455 322 521 121 c 0
 536 72 556 56 609 51 c 1
 612 46 l 1
 605 -3 l 1
 605 -3 530 0 492 0 c 0
 411 0 334 -9 334 -9 c 1
203 279 m 1
 283 279 l 2
 307 279 345 281 367 283 c 1
 298 527 l 1
 288 527 l 1
 203 279 l 1
EndSplineSet
Fore
SplineSet
302 783 m 0
 258 783 220 761 203 716 c 1
 191 718 l 1
 170 738 l 1
 185 798 226 857 302 857 c 0
 378 857 418 798 434 738 c 1
 413 718 l 1
 401 716 l 1
 383 761 345 783 302 783 c 0
334 -9 m 1
 330 -2 l 1
 334 47 l 1
 402 52 418 59 418 84 c 0
 418 95 416 109 411 126 c 2
 383 220 l 1
 358 221 311 221 285 221 c 0
 249 221 205 217 182 214 c 1
 150 122 l 2
 145 106 142 95 142 87 c 0
 142 60 158 50 196 50 c 2
 247 50 l 1
 250 45 l 1
 244 -6 l 1
 244 -6 167 0 102 0 c 0
 51 0 -13 -3 -13 -3 c 1
 -5 52 l 1
 29 57 48 74 67 125 c 2
 255 634 l 1
 359 651 l 1
 369 648 l 1
 369 648 455 322 521 121 c 0
 536 72 556 56 609 51 c 1
 612 46 l 1
 605 -3 l 1
 605 -3 530 0 492 0 c 0
 411 0 334 -9 334 -9 c 1
203 279 m 1
 283 279 l 2
 307 279 345 281 367 283 c 1
 298 527 l 1
 288 527 l 1
 203 279 l 1
EndSplineSet
Substitution2: "'c2sc' Capitals to Small Capitals lookup 35 subtable" uni0203.sc
Substitution2: "'aalt' Access All Alternates lookup 0 subtable" uni0203.sc
Position2: "'cpsp' Capital Spacing lookup 0 subtable" dx=10 dy=0 dh=20 dv=0
EndChar

StartChar: Amacron
Encoding: 256 256 22
Width: 603
GlyphClass: 2
Flags: MW
HStem: 0 50 221 58<267 283 283 295 203 298> 631 20G<359 359> 715 66<293.5 307> 776 11<451 458>
VStem: -13 625<-3 46>
AnchorPoint: "Anchor-17" 0 0 basechar 0
AnchorPoint: "Anchor-16" 0 0 basechar 0
AnchorPoint: "Anchor-15" 308 761 basechar 0
AnchorPoint: "Anchor-14" 543 10 basechar 0
AnchorPoint: "Anchor-13" 301 0 basechar 0
LayerCount: 2
Back
SplineSet
165 714 m 1xf4
 157 724 l 1
 169 782 l 1
 169 782 264 781 323 781 c 0xf4
 373 781 451 787 451 787 c 1
 458 776 l 1xec
 449 716 l 1
 307 715 l 2
 248 715 165 714 165 714 c 1xf4
334 -9 m 1
 330 -2 l 1
 334 47 l 1
 402 52 418 59 418 84 c 0
 418 95 416 109 411 126 c 2
 383 220 l 1
 358 221 311 221 285 221 c 0
 249 221 205 217 182 214 c 1
 150 122 l 2
 145 106 142 95 142 87 c 0
 142 60 158 50 196 50 c 2
 247 50 l 1
 250 45 l 1
 244 -6 l 1
 244 -6 167 0 102 0 c 0
 51 0 -13 -3 -13 -3 c 1
 -5 52 l 1
 29 57 48 74 67 125 c 2
 255 634 l 1
 359 651 l 1
 369 648 l 1
 369 648 455 322 521 121 c 0
 536 72 556 56 609 51 c 1
 612 46 l 1
 605 -3 l 1
 605 -3 530 0 492 0 c 0
 411 0 334 -9 334 -9 c 1
203 279 m 1
 283 279 l 2
 307 279 345 281 367 283 c 1
 298 527 l 1
 288 527 l 1
 203 279 l 1
EndSplineSet
Fore
SplineSet
165 714 m 1xf4
 157 724 l 1
 169 782 l 1
 169 782 264 781 323 781 c 0xf4
 373 781 451 787 451 787 c 1
 458 776 l 1xec
 449 716 l 1
 307 715 l 2
 248 715 165 714 165 714 c 1xf4
334 -9 m 1
 330 -2 l 1
 334 47 l 1
 402 52 418 59 418 84 c 0
 418 95 416 109 411 126 c 2
 383 220 l 1
 358 221 311 221 285 221 c 0
 249 221 205 217 182 214 c 1
 150 122 l 2
 145 106 142 95 142 87 c 0
 142 60 158 50 196 50 c 2
 247 50 l 1
 250 45 l 1
 244 -6 l 1
 244 -6 167 0 102 0 c 0
 51 0 -13 -3 -13 -3 c 1
 -5 52 l 1
 29 57 48 74 67 125 c 2
 255 634 l 1
 359 651 l 1
 369 648 l 1
 369 648 455 322 521 121 c 0
 536 72 556 56 609 51 c 1
 612 46 l 1
 605 -3 l 1
 605 -3 530 0 492 0 c 0
 411 0 334 -9 334 -9 c 1
203 279 m 1
 283 279 l 2
 307 279 345 281 367 283 c 1
 298 527 l 1
 288 527 l 1
 203 279 l 1
EndSplineSet
Substitution2: "'c2sc' Capitals to Small Capitals lookup 35 subtable" amacron.sc
Substitution2: "'aalt' Access All Alternates lookup 0 subtable" amacron.sc
Position2: "'cpsp' Capital Spacing lookup 0 subtable" dx=10 dy=0 dh=20 dv=0
EndChar

StartChar: Aogonek
Encoding: 260 260 23
Width: 603
GlyphClass: 2
Flags: MW
HStem: -241 68<505.5 509> 0 47 0 50 221 58<267 283 283 295 203 298> 631 20G<359 359>
VStem: 395 76<-138.5 -128>
AnchorPoint: "Anchor-17" 0 0 basechar 0
AnchorPoint: "Anchor-16" 0 0 basechar 0
AnchorPoint: "Anchor-15" 301 639 basechar 0
AnchorPoint: "Anchor-14" 543 10 basechar 0
AnchorPoint: "Anchor-13" 301 0 basechar 0
LayerCount: 2
Back
SplineSet
521 -173 m 0xbc
 543 -173 574 -163 595 -150 c 1
 612 -176 l 1
 580 -206 540 -232 509 -241 c 1
 442 -241 395 -203 395 -148 c 0
 395 -108 410 -82 488 0 c 1
 408 0 334 -9 334 -9 c 1
 330 -2 l 1
 334 47 l 1
 402 52 418 59 418 84 c 0
 418 95 416 109 411 126 c 2xdc
 383 220 l 1
 358 221 311 221 285 221 c 0
 249 221 205 217 182 214 c 1
 150 122 l 2
 145 106 142 95 142 87 c 0
 142 60 158 50 196 50 c 2
 247 50 l 1
 250 45 l 1
 244 -6 l 1
 244 -6 167 0 102 0 c 0
 51 0 -13 -3 -13 -3 c 1
 -5 52 l 1
 29 57 48 74 67 125 c 2
 255 634 l 1
 359 651 l 1
 369 648 l 1
 369 648 455 322 521 121 c 0
 536 72 556 56 609 51 c 1
 612 46 l 1
 605 -3 l 1
 541 -1 l 1
 485 -66 471 -93 471 -123 c 0
 471 -154 490 -173 521 -173 c 0xbc
283 279 m 2
 307 279 345 281 367 283 c 1
 298 527 l 1
 288 527 l 1
 203 279 l 1
 283 279 l 2
EndSplineSet
Fore
SplineSet
521 -173 m 0xbc
 543 -173 574 -163 595 -150 c 1
 612 -176 l 1
 580 -206 540 -232 509 -241 c 1
 442 -241 395 -203 395 -148 c 0
 395 -108 410 -82 488 0 c 1
 408 0 334 -9 334 -9 c 1
 330 -2 l 1
 334 47 l 1
 402 52 418 59 418 84 c 0
 418 95 416 109 411 126 c 2xdc
 383 220 l 1
 358 221 311 221 285 221 c 0
 249 221 205 217 182 214 c 1
 150 122 l 2
 145 106 142 95 142 87 c 0
 142 60 158 50 196 50 c 2
 247 50 l 1
 250 45 l 1
 244 -6 l 1
 244 -6 167 0 102 0 c 0
 51 0 -13 -3 -13 -3 c 1
 -5 52 l 1
 29 57 48 74 67 125 c 2
 255 634 l 1
 359 651 l 1
 369 648 l 1
 369 648 455 322 521 121 c 0
 536 72 556 56 609 51 c 1
 612 46 l 1
 605 -3 l 1
 541 -1 l 1
 485 -66 471 -93 471 -123 c 0
 471 -154 490 -173 521 -173 c 0xbc
283 279 m 2
 307 279 345 281 367 283 c 1
 298 527 l 1
 288 527 l 1
 203 279 l 1
 283 279 l 2
EndSplineSet
Substitution2: "'c2sc' Capitals to Small Capitals lookup 35 subtable" aogonek.sc
Substitution2: "'aalt' Access All Alternates lookup 0 subtable" aogonek.sc
Position2: "'cpsp' Capital Spacing lookup 0 subtable" dx=10 dy=0 dh=20 dv=0
EndChar

StartChar: Aring
Encoding: 197 197 24
Width: 603
GlyphClass: 2
Flags: MW
HStem: 0 50 221 58<267 283 283 295 203 298> 631 20G<359 359> 676 44<299 316.5 299 331> 803 46<289 318.5>
VStem: 221 40<749 777.5 749 785.5> 351 41<744.5 771.5>
AnchorPoint: "Anchor-17" 0 0 basechar 0
AnchorPoint: "Anchor-16" 0 0 basechar 0
AnchorPoint: "Anchor-15" 307 849 basechar 0
AnchorPoint: "Anchor-14" 543 10 basechar 0
AnchorPoint: "Anchor-13" 301 0 basechar 0
LayerCount: 2
Back
SplineSet
302 676 m 0
 250 676 221 711 221 760 c 0
 221 811 256 849 310 849 c 0
 369 849 392 809 392 769 c 0
 392 720 360 676 302 676 c 0
309 720 m 0
 324 720 351 725 351 758 c 0
 351 785 334 803 303 803 c 0
 275 803 261 789 261 766 c 0
 261 732 289 720 309 720 c 0
334 -9 m 1
 330 -2 l 1
 334 47 l 1
 402 52 418 59 418 84 c 0
 418 95 416 109 411 126 c 2
 383 220 l 1
 358 221 311 221 285 221 c 0
 249 221 205 217 182 214 c 1
 150 122 l 2
 145 106 142 95 142 87 c 0
 142 60 158 50 196 50 c 2
 247 50 l 1
 250 45 l 1
 244 -6 l 1
 244 -6 167 0 102 0 c 0
 51 0 -13 -3 -13 -3 c 1
 -5 52 l 1
 29 57 48 74 67 125 c 2
 255 634 l 1
 359 651 l 1
 369 648 l 1xee
 369 648 455 322 521 121 c 0
 536 72 556 56 609 51 c 1
 612 46 l 1
 605 -3 l 1
 605 -3 530 0 492 0 c 0
 411 0 334 -9 334 -9 c 1
203 279 m 1
 283 279 l 2
 307 279 345 281 367 283 c 1
 298 527 l 1
 288 527 l 1
 203 279 l 1
EndSplineSet
Fore
SplineSet
302 676 m 0
 250 676 221 711 221 760 c 0
 221 811 256 849 310 849 c 0
 369 849 392 809 392 769 c 0
 392 720 360 676 302 676 c 0
309 720 m 0
 324 720 351 725 351 758 c 0
 351 785 334 803 303 803 c 0
 275 803 261 789 261 766 c 0
 261 732 289 720 309 720 c 0
334 -9 m 1
 330 -2 l 1
 334 47 l 1
 402 52 418 59 418 84 c 0
 418 95 416 109 411 126 c 2
 383 220 l 1
 358 221 311 221 285 221 c 0
 249 221 205 217 182 214 c 1
 150 122 l 2
 145 106 142 95 142 87 c 0
 142 60 158 50 196 50 c 2
 247 50 l 1
 250 45 l 1
 244 -6 l 1
 244 -6 167 0 102 0 c 0
 51 0 -13 -3 -13 -3 c 1
 -5 52 l 1
 29 57 48 74 67 125 c 2
 255 634 l 1
 359 651 l 1
 369 648 l 1xee
 369 648 455 322 521 121 c 0
 536 72 556 56 609 51 c 1
 612 46 l 1
 605 -3 l 1
 605 -3 530 0 492 0 c 0
 411 0 334 -9 334 -9 c 1
203 279 m 1
 283 279 l 2
 307 279 345 281 367 283 c 1
 298 527 l 1
 288 527 l 1
 203 279 l 1
EndSplineSet
Substitution2: "'c2sc' Capitals to Small Capitals lookup 35 subtable" aring.sc
Substitution2: "'aalt' Access All Alternates lookup 0 subtable" aring.sc
Position2: "'cpsp' Capital Spacing lookup 0 subtable" dx=10 dy=0 dh=20 dv=0
EndChar

StartChar: Aringacute
Encoding: 506 506 25
Width: 603
GlyphClass: 2
Flags: MW
HStem: 0 50 221 58<267 283 283 295 203 298> 631 20G<359 359> 671 40<313 329 313 341.5> 786 41<303.5 330>
VStem: 242 36<737 762.5 737 770> 360 37<733 757>
AnchorPoint: "Anchor-17" 0 0 basechar 0
AnchorPoint: "Anchor-16" 0 0 basechar 0
AnchorPoint: "Anchor-15" 314 892 basechar 0
AnchorPoint: "Anchor-14" 543 10 basechar 0
AnchorPoint: "Anchor-13" 301 0 basechar 0
LayerCount: 2
Back
SplineSet
238 825 m 1
 229 831 l 1
 221 861 l 1
 310 904 409 957 409 957 c 1
 418 952 l 1
 436 898 l 1
 432 888 l 1
 432 888 336 859 238 825 c 1
316 671 m 0xfe
 268 671 242 702 242 747 c 0
 242 793 274 827 323 827 c 0
 376 827 397 791 397 755 c 0
 397 711 367 671 316 671 c 0xfe
322 711 m 0
 336 711 360 715 360 745 c 0
 360 769 344 786 316 786 c 0
 291 786 278 773 278 752 c 0
 278 722 304 711 322 711 c 0
334 -9 m 1
 330 -2 l 1
 334 47 l 1
 402 52 418 59 418 84 c 0
 418 95 416 109 411 126 c 2
 383 220 l 1
 358 221 311 221 285 221 c 0
 249 221 205 217 182 214 c 1
 150 122 l 2
 145 106 142 95 142 87 c 0
 142 60 158 50 196 50 c 2
 247 50 l 1
 250 45 l 1
 244 -6 l 1
 244 -6 167 0 102 0 c 0
 51 0 -13 -3 -13 -3 c 1
 -5 52 l 1
 29 57 48 74 67 125 c 2
 255 634 l 1
 359 651 l 1
 369 648 l 1xee
 369 648 455 322 521 121 c 0
 536 72 556 56 609 51 c 1
 612 46 l 1
 605 -3 l 1
 605 -3 530 0 492 0 c 0
 411 0 334 -9 334 -9 c 1
203 279 m 1
 283 279 l 2
 307 279 345 281 367 283 c 1
 298 527 l 1
 288 527 l 1
 203 279 l 1
EndSplineSet
Fore
SplineSet
238 825 m 1
 229 831 l 1
 221 861 l 1
 310 904 409 957 409 957 c 1
 418 952 l 1
 436 898 l 1
 432 888 l 1
 432 888 336 859 238 825 c 1
316 671 m 0xfe
 268 671 242 702 242 747 c 0
 242 793 274 827 323 827 c 0
 376 827 397 791 397 755 c 0
 397 711 367 671 316 671 c 0xfe
322 711 m 0
 336 711 360 715 360 745 c 0
 360 769 344 786 316 786 c 0
 291 786 278 773 278 752 c 0
 278 722 304 711 322 711 c 0
334 -9 m 1
 330 -2 l 1
 334 47 l 1
 402 52 418 59 418 84 c 0
 418 95 416 109 411 126 c 2
 383 220 l 1
 358 221 311 221 285 221 c 0
 249 221 205 217 182 214 c 1
 150 122 l 2
 145 106 142 95 142 87 c 0
 142 60 158 50 196 50 c 2
 247 50 l 1
 250 45 l 1
 244 -6 l 1
 244 -6 167 0 102 0 c 0
 51 0 -13 -3 -13 -3 c 1
 -5 52 l 1
 29 57 48 74 67 125 c 2
 255 634 l 1
 359 651 l 1
 369 648 l 1xee
 369 648 455 322 521 121 c 0
 536 72 556 56 609 51 c 1
 612 46 l 1
 605 -3 l 1
 605 -3 530 0 492 0 c 0
 411 0 334 -9 334 -9 c 1
203 279 m 1
 283 279 l 2
 307 279 345 281 367 283 c 1
 298 527 l 1
 288 527 l 1
 203 279 l 1
EndSplineSet
Substitution2: "'c2sc' Capitals to Small Capitals lookup 35 subtable" aringacute.sc
Substitution2: "'aalt' Access All Alternates lookup 0 subtable" aringacute.sc
Position2: "'cpsp' Capital Spacing lookup 0 subtable" dx=10 dy=0 dh=20 dv=0
EndChar

StartChar: Atilde
Encoding: 195 195 26
Width: 603
GlyphClass: 2
Flags: MW
HStem: 0 50 221 58<267 283 283 295 203 298> 631 20G<359 359> 709 77<369.5 386> 742 78<230 247 230 253>
VStem: -13 625<-3 46>
AnchorPoint: "Anchor-17" 0 0 basechar 0
AnchorPoint: "Anchor-16" 0 0 basechar 0
AnchorPoint: "Anchor-15" 309 826 basechar 0
AnchorPoint: "Anchor-14" 543 10 basechar 0
AnchorPoint: "Anchor-13" 301 0 basechar 0
LayerCount: 2
Back
SplineSet
167 694 m 1xec
 137 722 l 1
 137 729 l 1
 214 816 l 1
 230 820 l 1xec
 264 820 350 786 378 786 c 0
 401 786 442 834 442 834 c 1
 450 834 l 1
 479 806 l 1
 479 799 l 1
 402 713 l 1
 386 709 l 1xf4
 353 709 267 742 239 742 c 0
 214 742 175 694 175 694 c 1
 167 694 l 1xec
334 -9 m 1
 330 -2 l 1
 334 47 l 1
 402 52 418 59 418 84 c 0
 418 95 416 109 411 126 c 2
 383 220 l 1
 358 221 311 221 285 221 c 0
 249 221 205 217 182 214 c 1
 150 122 l 2
 145 106 142 95 142 87 c 0
 142 60 158 50 196 50 c 2
 247 50 l 1
 250 45 l 1
 244 -6 l 1
 244 -6 167 0 102 0 c 0
 51 0 -13 -3 -13 -3 c 1
 -5 52 l 1
 29 57 48 74 67 125 c 2
 255 634 l 1
 359 651 l 1
 369 648 l 1
 369 648 455 322 521 121 c 0
 536 72 556 56 609 51 c 1
 612 46 l 1
 605 -3 l 1
 605 -3 530 0 492 0 c 0
 411 0 334 -9 334 -9 c 1
203 279 m 1
 283 279 l 2
 307 279 345 281 367 283 c 1
 298 527 l 1
 288 527 l 1
 203 279 l 1
EndSplineSet
Fore
SplineSet
167 694 m 1xec
 137 722 l 1
 137 729 l 1
 214 816 l 1
 230 820 l 1xec
 264 820 350 786 378 786 c 0
 401 786 442 834 442 834 c 1
 450 834 l 1
 479 806 l 1
 479 799 l 1
 402 713 l 1
 386 709 l 1xf4
 353 709 267 742 239 742 c 0
 214 742 175 694 175 694 c 1
 167 694 l 1xec
334 -9 m 1
 330 -2 l 1
 334 47 l 1
 402 52 418 59 418 84 c 0
 418 95 416 109 411 126 c 2
 383 220 l 1
 358 221 311 221 285 221 c 0
 249 221 205 217 182 214 c 1
 150 122 l 2
 145 106 142 95 142 87 c 0
 142 60 158 50 196 50 c 2
 247 50 l 1
 250 45 l 1
 244 -6 l 1
 244 -6 167 0 102 0 c 0
 51 0 -13 -3 -13 -3 c 1
 -5 52 l 1
 29 57 48 74 67 125 c 2
 255 634 l 1
 359 651 l 1
 369 648 l 1
 369 648 455 322 521 121 c 0
 536 72 556 56 609 51 c 1
 612 46 l 1
 605 -3 l 1
 605 -3 530 0 492 0 c 0
 411 0 334 -9 334 -9 c 1
203 279 m 1
 283 279 l 2
 307 279 345 281 367 283 c 1
 298 527 l 1
 288 527 l 1
 203 279 l 1
EndSplineSet
Substitution2: "'c2sc' Capitals to Small Capitals lookup 35 subtable" atilde.sc
Substitution2: "'aalt' Access All Alternates lookup 0 subtable" atilde.sc
Position2: "'cpsp' Capital Spacing lookup 0 subtable" dx=10 dy=0 dh=20 dv=0
EndChar

StartChar: AE
Encoding: 198 198 27
Width: 836
GlyphClass: 2
Flags: MW
HStem: 0 50 0 59 259.5 61.5 281 61.5 571 20G<223 223> 575 64<478 503 370 570.5> 587 52 643 8<733 738>
VStem: -8 819<42 177>
AnchorPoint: "Anchor-17" 0 0 basechar 0
AnchorPoint: "Anchor-16" 0 0 basechar 0
AnchorPoint: "Anchor-15" 499 647 basechar 0
AnchorPoint: "Anchor-14" 0 0 basechar 0
AnchorPoint: "Anchor-13" 0 0 basechar 0
LayerCount: 2
Back
SplineSet
309 47 m 1x5480
 383 53 400 61 400 96 c 0x5480
 400 115 397 134 394 155 c 2
 379 264 l 1
 285 255 l 1
 197 243 l 1
 137 122 l 2
 127 101 123 90 123 80 c 0
 123 59 138 50 178 50 c 2
 225 48 l 1
 219 -6 l 1
 219 -6 130 0 69 0 c 0
 43 0 -1 -4 -1 -4 c 1
 -8 42 l 1
 -2 43 28 75 54 125 c 2
 285 568 l 1
 282 582 274 587 259 587 c 0xa280
 248 587 227 585 227 585 c 1
 223 591 l 1x5880
 230 642 l 2
 230 643 315 639 425 639 c 0x5480
 581 639 677 643 733 651 c 1
 738 643 l 1x5180
 738 643 721 563 715 470 c 1
 648 465 l 1
 648 465 650 493 650 507 c 0
 650 568 636 575 505 575 c 0
 451 575 444 571 443 545 c 1
 471 337 l 1
 580 348 l 1
 674 364 l 1
 681 357 l 1
 668 291 l 1
 580 286 l 1
 480 276 l 1
 504 127 l 2
 512 77 533 59 582 59 c 0
 713 59 731 72 745 178 c 1
 807 184 l 1
 811 177 l 1
 811 177 793 91 784 1 c 1
 777 -7 l 2
 777 -8 610 0 497 0 c 2
 462 0 l 2
 383 0 309 -9 309 -9 c 1
 306 -2 l 1
 309 47 l 1x5480
304 318 m 1x6480
 372 324 l 1
 345 526 l 1
 334 526 l 1
 228 313 l 1
 304 318 l 1x6480
EndSplineSet
Fore
SplineSet
309 47 m 1x5480
 383 53 400 61 400 96 c 0x5480
 400 115 397 134 394 155 c 2
 379 264 l 1
 285 255 l 1
 197 243 l 1
 137 122 l 2
 127 101 123 90 123 80 c 0
 123 59 138 50 178 50 c 2
 225 48 l 1
 219 -6 l 1
 219 -6 130 0 69 0 c 0
 43 0 -1 -4 -1 -4 c 1
 -8 42 l 1
 -2 43 28 75 54 125 c 2
 285 568 l 1
 282 582 274 587 259 587 c 0xa280
 248 587 227 585 227 585 c 1
 223 591 l 1x5880
 230 642 l 2
 230 643 315 639 425 639 c 0x5480
 581 639 677 643 733 651 c 1
 738 643 l 1x5180
 738 643 721 563 715 470 c 1
 648 465 l 1
 648 465 650 493 650 507 c 0
 650 568 636 575 505 575 c 0
 451 575 444 571 443 545 c 1
 471 337 l 1
 580 348 l 1
 674 364 l 1
 681 357 l 1
 668 291 l 1
 580 286 l 1
 480 276 l 1
 504 127 l 2
 512 77 533 59 582 59 c 0
 713 59 731 72 745 178 c 1
 807 184 l 1
 811 177 l 1
 811 177 793 91 784 1 c 1
 777 -7 l 2
 777 -8 610 0 497 0 c 2
 462 0 l 2
 383 0 309 -9 309 -9 c 1
 306 -2 l 1
 309 47 l 1x5480
304 318 m 1x6480
 372 324 l 1
 345 526 l 1
 334 526 l 1
 228 313 l 1
 304 318 l 1x6480
EndSplineSet
Substitution2: "'c2sc' Capitals to Small Capitals lookup 35 subtable" ae.sc
Substitution2: "'aalt' Access All Alternates lookup 0 subtable" ae.sc
Position2: "'cpsp' Capital Spacing lookup 0 subtable" dx=10 dy=0 dh=20 dv=0
EndChar

StartChar: AEacute
Encoding: 508 508 28
Width: 836
GlyphClass: 2
Flags: MW
HStem: 0 50 0 59 259.5 61.5 281 61.5 571 20G<223 223> 575 64<478 503 370 570.5> 587 52 643 8<733 738>
VStem: -8 819<42 177>
AnchorPoint: "Anchor-17" 0 0 basechar 0
AnchorPoint: "Anchor-16" 0 0 basechar 0
AnchorPoint: "Anchor-15" 459 775 basechar 0
AnchorPoint: "Anchor-14" 0 0 basechar 0
AnchorPoint: "Anchor-13" 0 0 basechar 0
LayerCount: 2
Back
SplineSet
374 701 m 1x5480
 364 707 l 1
 354 741 l 1
 454 789 564 848 564 848 c 1
 574 842 l 1
 594 782 l 1
 590 771 l 1
 590 771 483 739 374 701 c 1x5480
309 47 m 1
 383 53 400 61 400 96 c 0x5480
 400 115 397 134 394 155 c 2
 379 264 l 1
 285 255 l 1
 197 243 l 1
 137 122 l 2
 127 101 123 90 123 80 c 0
 123 59 138 50 178 50 c 2
 225 48 l 1
 219 -6 l 1
 219 -6 130 0 69 0 c 0
 43 0 -1 -4 -1 -4 c 1
 -8 42 l 1
 -2 43 28 75 54 125 c 2
 285 568 l 1
 282 582 274 587 259 587 c 0xa280
 248 587 227 585 227 585 c 1
 223 591 l 1x5880
 230 642 l 2
 230 643 315 639 425 639 c 0x5480
 581 639 677 643 733 651 c 1
 738 643 l 1x5180
 738 643 721 563 715 470 c 1
 648 465 l 1
 648 465 650 493 650 507 c 0
 650 568 636 575 505 575 c 0
 451 575 444 571 443 545 c 1
 471 337 l 1
 580 348 l 1
 674 364 l 1
 681 357 l 1
 668 291 l 1
 580 286 l 1
 480 276 l 1
 504 127 l 2
 512 77 533 59 582 59 c 0
 713 59 731 72 745 178 c 1
 807 184 l 1
 811 177 l 1
 811 177 793 91 784 1 c 1
 777 -7 l 2
 777 -8 610 0 497 0 c 2
 462 0 l 2
 383 0 309 -9 309 -9 c 1
 306 -2 l 1
 309 47 l 1
304 318 m 1x6480
 372 324 l 1
 345 526 l 1
 334 526 l 1
 228 313 l 1
 304 318 l 1x6480
EndSplineSet
Fore
SplineSet
374 701 m 1x5480
 364 707 l 1
 354 741 l 1
 454 789 564 848 564 848 c 1
 574 842 l 1
 594 782 l 1
 590 771 l 1
 590 771 483 739 374 701 c 1x5480
309 47 m 1
 383 53 400 61 400 96 c 0x5480
 400 115 397 134 394 155 c 2
 379 264 l 1
 285 255 l 1
 197 243 l 1
 137 122 l 2
 127 101 123 90 123 80 c 0
 123 59 138 50 178 50 c 2
 225 48 l 1
 219 -6 l 1
 219 -6 130 0 69 0 c 0
 43 0 -1 -4 -1 -4 c 1
 -8 42 l 1
 -2 43 28 75 54 125 c 2
 285 568 l 1
 282 582 274 587 259 587 c 0xa280
 248 587 227 585 227 585 c 1
 223 591 l 1x5880
 230 642 l 2
 230 643 315 639 425 639 c 0x5480
 581 639 677 643 733 651 c 1
 738 643 l 1x5180
 738 643 721 563 715 470 c 1
 648 465 l 1
 648 465 650 493 650 507 c 0
 650 568 636 575 505 575 c 0
 451 575 444 571 443 545 c 1
 471 337 l 1
 580 348 l 1
 674 364 l 1
 681 357 l 1
 668 291 l 1
 580 286 l 1
 480 276 l 1
 504 127 l 2
 512 77 533 59 582 59 c 0
 713 59 731 72 745 178 c 1
 807 184 l 1
 811 177 l 1
 811 177 793 91 784 1 c 1
 777 -7 l 2
 777 -8 610 0 497 0 c 2
 462 0 l 2
 383 0 309 -9 309 -9 c 1
 306 -2 l 1
 309 47 l 1
304 318 m 1x6480
 372 324 l 1
 345 526 l 1
 334 526 l 1
 228 313 l 1
 304 318 l 1x6480
EndSplineSet
Substitution2: "'c2sc' Capitals to Small Capitals lookup 35 subtable" aeacute.sc
Substitution2: "'aalt' Access All Alternates lookup 0 subtable" aeacute.sc
Position2: "'cpsp' Capital Spacing lookup 0 subtable" dx=10 dy=0 dh=20 dv=0
EndChar

StartChar: B
Encoding: 66 66 29
Width: 611
GlyphClass: 2
Flags: MW
HStem: -10 66<318 370 295 387.5> 291 59 570 20G<59 59> 584 60<253 389> 587 52
VStem: 131 96<100 121 97.5 127> 420 107<456.5 508.5> 451 112<134.5 202>
AnchorPoint: "Anchor-17" 0 0 basechar 0
AnchorPoint: "Anchor-16" 0 0 basechar 0
AnchorPoint: "Anchor-15" 335 647 basechar 0
AnchorPoint: "Anchor-14" 0 0 basechar 0
AnchorPoint: "Anchor-13" 330 0 basechar 0
LayerCount: 2
Back
SplineSet
177 0 m 0xd5
 124 0 49 -11 49 -11 c 1
 55 44 l 1
 115 55 131 73 131 127 c 2
 132 534 l 2
 132 575 125 587 97 587 c 0xcd
 85 587 63 585 63 585 c 1
 59 590 l 1xe5
 67 642 l 1
 67 642 153 639 190 639 c 0xcd
 226 639 323 644 323 644 c 1
 455 644 527 589 527 490 c 0xd6
 527 423 484 369 415 337 c 1
 504 316 563 263 563 186 c 0
 563 75 457 -10 318 -10 c 0
 276 -9 222 0 177 0 c 0xd5
234 359 m 1
 234 359 320 350 337 350 c 1
 337 350 420 373 420 470 c 0xd6
 420 547 369 584 260 584 c 0
 246 584 243 579 242 562 c 0
 238 502 235 425 234 359 c 1
232 290 m 1
 227 121 l 2
 227 74 257 56 333 56 c 0
 407 56 451 99 451 170 c 0
 451 234 410 276 330 292 c 1
 232 290 l 1
EndSplineSet
Fore
SplineSet
177 0 m 0xd5
 124 0 49 -11 49 -11 c 1
 55 44 l 1
 115 55 131 73 131 127 c 2
 132 534 l 2
 132 575 125 587 97 587 c 0xcd
 85 587 63 585 63 585 c 1
 59 590 l 1xe5
 67 642 l 1
 67 642 153 639 190 639 c 0xcd
 226 639 323 644 323 644 c 1
 455 644 527 589 527 490 c 0xd6
 527 423 484 369 415 337 c 1
 504 316 563 263 563 186 c 0
 563 75 457 -10 318 -10 c 0
 276 -9 222 0 177 0 c 0xd5
234 359 m 1
 234 359 320 350 337 350 c 1
 337 350 420 373 420 470 c 0xd6
 420 547 369 584 260 584 c 0
 246 584 243 579 242 562 c 0
 238 502 235 425 234 359 c 1
232 290 m 1
 227 121 l 2
 227 74 257 56 333 56 c 0
 407 56 451 99 451 170 c 0
 451 234 410 276 330 292 c 1
 232 290 l 1
EndSplineSet
Substitution2: "'c2sc' Capitals to Small Capitals lookup 35 subtable" b.sc
Substitution2: "'aalt' Access All Alternates lookup 0 subtable" b.sc
Position2: "'cpsp' Capital Spacing lookup 0 subtable" dx=10 dy=0 dh=20 dv=0
EndChar

StartChar: C
Encoding: 67 67 30
Width: 621
GlyphClass: 2
Flags: MW
HStem: -12 69<293.5 393.5> 576 75<286.5 391>
VStem: 35 118<248.5 403.5>
AnchorPoint: "Anchor-17" 0 0 basechar 0
AnchorPoint: "Anchor-16" 0 0 basechar 0
AnchorPoint: "Anchor-15" 335 647 basechar 0
AnchorPoint: "Anchor-14" 0 0 basechar 0
AnchorPoint: "Anchor-13" 314 0 basechar 0
LayerCount: 2
Back
SplineSet
333 -12 m 0
 150 -12 35 108 35 300 c 0
 35 507 177 651 384 651 c 0
 468 651 566 627 566 627 c 1
 571 618 l 1
 571 618 551 539 545 441 c 1
 475 436 l 1
 475 436 478 463 478 487 c 0
 478 547 435 576 347 576 c 0
 226 576 153 487 153 334 c 0
 153 163 232 57 355 57 c 0
 438 57 485 103 506 206 c 1
 576 212 l 1
 576 212 558 115 552 38 c 1
 545 28 l 1
 545 28 454 -12 333 -12 c 0
EndSplineSet
Fore
SplineSet
333 -12 m 0
 150 -12 35 108 35 300 c 0
 35 507 177 651 384 651 c 0
 468 651 566 627 566 627 c 1
 571 618 l 1
 571 618 551 539 545 441 c 1
 475 436 l 1
 475 436 478 463 478 487 c 0
 478 547 435 576 347 576 c 0
 226 576 153 487 153 334 c 0
 153 163 232 57 355 57 c 0
 438 57 485 103 506 206 c 1
 576 212 l 1
 576 212 558 115 552 38 c 1
 545 28 l 1
 545 28 454 -12 333 -12 c 0
EndSplineSet
Substitution2: "Single Substitution lookup 54 subtable" C.ss01
Substitution2: "'ss01' Style Set 1 lookup 44 subtable" C.ss01
Substitution2: "'c2sc' Capitals to Small Capitals lookup 35 subtable" c.sc
AlternateSubs2: "'aalt' Access All Alternates lookup 1 subtable" c.sc C.ss01
Position2: "'cpsp' Capital Spacing lookup 0 subtable" dx=10 dy=0 dh=20 dv=0
EndChar

StartChar: Cacute
Encoding: 262 262 31
Width: 621
GlyphClass: 2
Flags: MW
HStem: -12 69<293.5 393.5> 576 75<286.5 391>
VStem: 35 118<248.5 403.5>
AnchorPoint: "Anchor-17" 0 0 basechar 0
AnchorPoint: "Anchor-16" 0 0 basechar 0
AnchorPoint: "Anchor-15" 384 775 basechar 0
AnchorPoint: "Anchor-14" 0 0 basechar 0
AnchorPoint: "Anchor-13" 314 0 basechar 0
LayerCount: 2
Back
SplineSet
300 701 m 1
 289 707 l 1
 280 741 l 1
 380 789 489 848 489 848 c 1
 500 842 l 1
 520 782 l 1
 515 771 l 1
 515 771 408 739 300 701 c 1
333 -12 m 0
 150 -12 35 108 35 300 c 0
 35 507 177 651 384 651 c 0
 468 651 566 627 566 627 c 1
 571 618 l 1
 571 618 551 539 545 441 c 1
 475 436 l 1
 475 436 478 463 478 487 c 0
 478 547 435 576 347 576 c 0
 226 576 153 487 153 334 c 0
 153 163 232 57 355 57 c 0
 438 57 485 103 506 206 c 1
 576 212 l 1
 576 212 558 115 552 38 c 1
 545 28 l 1
 545 28 454 -12 333 -12 c 0
EndSplineSet
Fore
SplineSet
300 701 m 1
 289 707 l 1
 280 741 l 1
 380 789 489 848 489 848 c 1
 500 842 l 1
 520 782 l 1
 515 771 l 1
 515 771 408 739 300 701 c 1
333 -12 m 0
 150 -12 35 108 35 300 c 0
 35 507 177 651 384 651 c 0
 468 651 566 627 566 627 c 1
 571 618 l 1
 571 618 551 539 545 441 c 1
 475 436 l 1
 475 436 478 463 478 487 c 0
 478 547 435 576 347 576 c 0
 226 576 153 487 153 334 c 0
 153 163 232 57 355 57 c 0
 438 57 485 103 506 206 c 1
 576 212 l 1
 576 212 558 115 552 38 c 1
 545 28 l 1
 545 28 454 -12 333 -12 c 0
EndSplineSet
Substitution2: "'c2sc' Capitals to Small Capitals lookup 35 subtable" cacute.sc
Substitution2: "'aalt' Access All Alternates lookup 0 subtable" cacute.sc
Position2: "'cpsp' Capital Spacing lookup 0 subtable" dx=10 dy=0 dh=20 dv=0
EndChar

StartChar: Ccaron
Encoding: 268 268 32
Width: 621
GlyphClass: 2
Flags: MW
HStem: -12 69<293.5 393.5> 576 75<286.5 391>
VStem: 35 118<248.5 403.5>
AnchorPoint: "Anchor-17" 0 0 basechar 0
AnchorPoint: "Anchor-16" 0 0 basechar 0
AnchorPoint: "Anchor-15" 354 774 basechar 0
AnchorPoint: "Anchor-14" 0 0 basechar 0
AnchorPoint: "Anchor-13" 314 0 basechar 0
LayerCount: 2
Back
SplineSet
346 701 m 1
 346 701 269 766 200 817 c 1
 218 848 l 1
 230 850 l 1
 277 824 326 800 354 788 c 1
 382 800 430 824 478 850 c 1
 490 848 l 1
 508 817 l 1
 439 766 362 701 362 701 c 1
 346 701 l 1
333 -12 m 0
 150 -12 35 108 35 300 c 0
 35 507 177 651 384 651 c 0
 468 651 566 627 566 627 c 1
 571 618 l 1
 571 618 551 539 545 441 c 1
 475 436 l 1
 475 436 478 463 478 487 c 0
 478 547 435 576 347 576 c 0
 226 576 153 487 153 334 c 0
 153 163 232 57 355 57 c 0
 438 57 485 103 506 206 c 1
 576 212 l 1
 576 212 558 115 552 38 c 1
 545 28 l 1
 545 28 454 -12 333 -12 c 0
EndSplineSet
Fore
SplineSet
346 701 m 1
 346 701 269 766 200 817 c 1
 218 848 l 1
 230 850 l 1
 277 824 326 800 354 788 c 1
 382 800 430 824 478 850 c 1
 490 848 l 1
 508 817 l 1
 439 766 362 701 362 701 c 1
 346 701 l 1
333 -12 m 0
 150 -12 35 108 35 300 c 0
 35 507 177 651 384 651 c 0
 468 651 566 627 566 627 c 1
 571 618 l 1
 571 618 551 539 545 441 c 1
 475 436 l 1
 475 436 478 463 478 487 c 0
 478 547 435 576 347 576 c 0
 226 576 153 487 153 334 c 0
 153 163 232 57 355 57 c 0
 438 57 485 103 506 206 c 1
 576 212 l 1
 576 212 558 115 552 38 c 1
 545 28 l 1
 545 28 454 -12 333 -12 c 0
EndSplineSet
Substitution2: "'c2sc' Capitals to Small Capitals lookup 35 subtable" ccaron.sc
Substitution2: "'aalt' Access All Alternates lookup 0 subtable" ccaron.sc
Position2: "'cpsp' Capital Spacing lookup 0 subtable" dx=10 dy=0 dh=20 dv=0
EndChar

StartChar: Ccedilla
Encoding: 199 199 33
Width: 621
GlyphClass: 2
Flags: MW
HStem: -235 42<315.5 341> -11 68<312 312 359 359> 576 75<286.5 391>
VStem: 35 118<248.5 403.5> 268 9<-137 -137> 376 60<-166 -147>
AnchorPoint: "Anchor-17" 0 0 basechar 0
AnchorPoint: "Anchor-16" 0 0 basechar 0
AnchorPoint: "Anchor-15" 335 647 basechar 0
AnchorPoint: "Anchor-14" 0 0 basechar 0
AnchorPoint: "Anchor-13" 337 -235 basechar 0
LayerCount: 2
Back
SplineSet
506 206 m 1
 576 212 l 1
 576 212 558 115 552 38 c 1
 545 28 l 1
 545 28 467 -6 359 -11 c 1
 347 -48 l 1
 381 -70 436 -101 436 -140 c 0
 436 -192 371 -235 311 -235 c 0
 279 -235 238 -221 238 -196 c 0
 238 -182 256 -154 268 -137 c 1
 277 -137 l 1
 278 -174 300 -193 331 -193 c 0
 356 -193 376 -180 376 -159 c 0
 376 -135 330 -108 290 -85 c 1
 312 -11 l 1
 141 -3 35 115 35 300 c 0
 35 507 177 651 384 651 c 0
 468 651 566 627 566 627 c 1
 571 618 l 1
 571 618 551 539 545 441 c 1
 475 436 l 1
 475 436 478 463 478 487 c 0
 478 547 435 576 347 576 c 0
 226 576 153 487 153 334 c 0
 153 163 232 57 355 57 c 0
 438 57 485 103 506 206 c 1
EndSplineSet
Fore
SplineSet
506 206 m 1
 576 212 l 1
 576 212 558 115 552 38 c 1
 545 28 l 1
 545 28 467 -6 359 -11 c 1
 347 -48 l 1
 381 -70 436 -101 436 -140 c 0
 436 -192 371 -235 311 -235 c 0
 279 -235 238 -221 238 -196 c 0
 238 -182 256 -154 268 -137 c 1
 277 -137 l 1
 278 -174 300 -193 331 -193 c 0
 356 -193 376 -180 376 -159 c 0
 376 -135 330 -108 290 -85 c 1
 312 -11 l 1
 141 -3 35 115 35 300 c 0
 35 507 177 651 384 651 c 0
 468 651 566 627 566 627 c 1
 571 618 l 1
 571 618 551 539 545 441 c 1
 475 436 l 1
 475 436 478 463 478 487 c 0
 478 547 435 576 347 576 c 0
 226 576 153 487 153 334 c 0
 153 163 232 57 355 57 c 0
 438 57 485 103 506 206 c 1
EndSplineSet
Substitution2: "'c2sc' Capitals to Small Capitals lookup 35 subtable" ccedilla.sc
Substitution2: "'aalt' Access All Alternates lookup 0 subtable" ccedilla.sc
Position2: "'cpsp' Capital Spacing lookup 0 subtable" dx=10 dy=0 dh=20 dv=0
EndChar

StartChar: uni1E08
Encoding: 7688 7688 34
Width: 621
GlyphClass: 2
Flags: MW
HStem: -235 42<302 327.5> -11 68<299 299> 576 75<286.5 391>
VStem: 35 118<248.5 403.5> 255 9<-137 -137> 362 61<-166 -147>
AnchorPoint: "Anchor-17" 0 0 basechar 0
AnchorPoint: "Anchor-16" 0 0 basechar 0
AnchorPoint: "Anchor-15" 335 783 basechar 0
AnchorPoint: "Anchor-14" 0 0 basechar 0
AnchorPoint: "Anchor-13" 324 -235 basechar 0
LayerCount: 2
Back
SplineSet
251 709 m 1
 240 715 l 1
 231 749 l 1
 331 797 441 856 441 856 c 1
 451 850 l 1
 471 790 l 1
 467 779 l 1
 467 779 360 747 251 709 c 1
506 206 m 1
 576 212 l 1
 576 212 558 115 552 38 c 1
 545 28 l 1
 545 28 460 -10 344 -12 c 1
 333 -48 l 1
 368 -70 423 -101 423 -140 c 0
 423 -192 358 -235 297 -235 c 0
 265 -235 225 -221 225 -196 c 0
 225 -182 243 -154 255 -137 c 1
 264 -137 l 1
 265 -174 286 -193 318 -193 c 0
 342 -193 362 -180 362 -159 c 0
 362 -135 317 -108 277 -85 c 1
 299 -11 l 1
 136 4 35 120 35 300 c 0
 35 507 177 651 384 651 c 0
 468 651 566 627 566 627 c 1
 571 618 l 1
 571 618 551 539 545 441 c 1
 475 436 l 1
 475 436 478 463 478 487 c 0
 478 547 435 576 347 576 c 0
 226 576 153 487 153 334 c 0
 153 163 232 57 355 57 c 0
 438 57 485 103 506 206 c 1
EndSplineSet
Fore
SplineSet
251 709 m 1
 240 715 l 1
 231 749 l 1
 331 797 441 856 441 856 c 1
 451 850 l 1
 471 790 l 1
 467 779 l 1
 467 779 360 747 251 709 c 1
506 206 m 1
 576 212 l 1
 576 212 558 115 552 38 c 1
 545 28 l 1
 545 28 460 -10 344 -12 c 1
 333 -48 l 1
 368 -70 423 -101 423 -140 c 0
 423 -192 358 -235 297 -235 c 0
 265 -235 225 -221 225 -196 c 0
 225 -182 243 -154 255 -137 c 1
 264 -137 l 1
 265 -174 286 -193 318 -193 c 0
 342 -193 362 -180 362 -159 c 0
 362 -135 317 -108 277 -85 c 1
 299 -11 l 1
 136 4 35 120 35 300 c 0
 35 507 177 651 384 651 c 0
 468 651 566 627 566 627 c 1
 571 618 l 1
 571 618 551 539 545 441 c 1
 475 436 l 1
 475 436 478 463 478 487 c 0
 478 547 435 576 347 576 c 0
 226 576 153 487 153 334 c 0
 153 163 232 57 355 57 c 0
 438 57 485 103 506 206 c 1
EndSplineSet
Substitution2: "'c2sc' Capitals to Small Capitals lookup 35 subtable" uni1E09.sc
Substitution2: "'aalt' Access All Alternates lookup 0 subtable" uni1E09.sc
Position2: "'cpsp' Capital Spacing lookup 0 subtable" dx=10 dy=0 dh=20 dv=0
EndChar

StartChar: Ccircumflex
Encoding: 264 264 35
Width: 621
GlyphClass: 2
Flags: MW
HStem: -12 69<293.5 393.5> 576 75<286.5 391> 715 20G<189 189 493 493>
VStem: 35 118<248.5 403.5>
AnchorPoint: "Anchor-17" 0 0 basechar 0
AnchorPoint: "Anchor-16" 0 0 basechar 0
AnchorPoint: "Anchor-15" 341 889 basechar 0
AnchorPoint: "Anchor-14" 0 0 basechar 0
AnchorPoint: "Anchor-13" 314 0 basechar 0
LayerCount: 2
Back
SplineSet
221 703 m 1
 209 705 l 1
 189 735 l 1
 256 803 333 889 333 889 c 1
 349 889 l 1
 349 889 425 803 493 735 c 1
 473 705 l 1
 461 703 l 1
 415 741 368 774 341 794 c 1
 313 774 267 742 221 703 c 1
333 -12 m 0
 150 -12 35 108 35 300 c 0
 35 507 177 651 384 651 c 0
 468 651 566 627 566 627 c 1
 571 618 l 1
 571 618 551 539 545 441 c 1
 475 436 l 1
 475 436 478 463 478 487 c 0
 478 547 435 576 347 576 c 0
 226 576 153 487 153 334 c 0
 153 163 232 57 355 57 c 0
 438 57 485 103 506 206 c 1
 576 212 l 1
 576 212 558 115 552 38 c 1
 545 28 l 1
 545 28 454 -12 333 -12 c 0
EndSplineSet
Fore
SplineSet
221 703 m 1
 209 705 l 1
 189 735 l 1
 256 803 333 889 333 889 c 1
 349 889 l 1
 349 889 425 803 493 735 c 1
 473 705 l 1
 461 703 l 1
 415 741 368 774 341 794 c 1
 313 774 267 742 221 703 c 1
333 -12 m 0
 150 -12 35 108 35 300 c 0
 35 507 177 651 384 651 c 0
 468 651 566 627 566 627 c 1
 571 618 l 1
 571 618 551 539 545 441 c 1
 475 436 l 1
 475 436 478 463 478 487 c 0
 478 547 435 576 347 576 c 0
 226 576 153 487 153 334 c 0
 153 163 232 57 355 57 c 0
 438 57 485 103 506 206 c 1
 576 212 l 1
 576 212 558 115 552 38 c 1
 545 28 l 1
 545 28 454 -12 333 -12 c 0
EndSplineSet
Substitution2: "'c2sc' Capitals to Small Capitals lookup 35 subtable" ccircumflex.sc
Substitution2: "'aalt' Access All Alternates lookup 0 subtable" ccircumflex.sc
Position2: "'cpsp' Capital Spacing lookup 0 subtable" dx=10 dy=0 dh=20 dv=0
EndChar

StartChar: Cdotaccent
Encoding: 266 266 36
Width: 621
GlyphClass: 2
Flags: MW
HStem: -12 69<293.5 393.5> 576 75<286.5 391> 703 129<339.5 370>
VStem: 35 118<248.5 403.5> 292 126<752.5 782.5>
AnchorPoint: "Anchor-17" 0 0 basechar 0
AnchorPoint: "Anchor-16" 0 0 basechar 0
AnchorPoint: "Anchor-15" 355 832 basechar 0
AnchorPoint: "Anchor-14" 0 0 basechar 0
AnchorPoint: "Anchor-13" 314 0 basechar 0
LayerCount: 2
Back
SplineSet
350 703 m 0
 311 703 292 731 292 763 c 0
 292 802 320 832 359 832 c 0
 397 832 418 805 418 772 c 0
 418 733 390 703 350 703 c 0
333 -12 m 0
 150 -12 35 108 35 300 c 0
 35 507 177 651 384 651 c 0
 468 651 566 627 566 627 c 1
 571 618 l 1
 571 618 551 539 545 441 c 1
 475 436 l 1
 475 436 478 463 478 487 c 0
 478 547 435 576 347 576 c 0
 226 576 153 487 153 334 c 0
 153 163 232 57 355 57 c 0
 438 57 485 103 506 206 c 1
 576 212 l 1
 576 212 558 115 552 38 c 1
 545 28 l 1
 545 28 454 -12 333 -12 c 0
EndSplineSet
Fore
SplineSet
350 703 m 0
 311 703 292 731 292 763 c 0
 292 802 320 832 359 832 c 0
 397 832 418 805 418 772 c 0
 418 733 390 703 350 703 c 0
333 -12 m 0
 150 -12 35 108 35 300 c 0
 35 507 177 651 384 651 c 0
 468 651 566 627 566 627 c 1
 571 618 l 1
 571 618 551 539 545 441 c 1
 475 436 l 1
 475 436 478 463 478 487 c 0
 478 547 435 576 347 576 c 0
 226 576 153 487 153 334 c 0
 153 163 232 57 355 57 c 0
 438 57 485 103 506 206 c 1
 576 212 l 1
 576 212 558 115 552 38 c 1
 545 28 l 1
 545 28 454 -12 333 -12 c 0
EndSplineSet
Substitution2: "'c2sc' Capitals to Small Capitals lookup 35 subtable" cdotaccent.sc
Substitution2: "'aalt' Access All Alternates lookup 0 subtable" cdotaccent.sc
Position2: "'cpsp' Capital Spacing lookup 0 subtable" dx=10 dy=0 dh=20 dv=0
EndChar

StartChar: D
Encoding: 68 68 37
Width: 699
GlyphClass: 2
Flags: MW
HStem: -12 66<317 402 293 416.5> 570 20G<60 60> 578 65<337 363> 586 53<91.5 205>
VStem: 131 97<104 130> 544 120<242 404>
AnchorPoint: "Anchor-17" 0 0 basechar 0
AnchorPoint: "Anchor-16" 341 324 basechar 0
AnchorPoint: "Anchor-15" 347 647 basechar 0
AnchorPoint: "Anchor-14" 0 0 basechar 0
AnchorPoint: "Anchor-13" 334 0 basechar 0
LayerCount: 2
Back
SplineSet
317 -12 m 1xac
 317 -12 224 0 170 0 c 0
 119 0 50 -11 50 -11 c 1
 56 45 l 1
 116 56 131 74 131 130 c 2
 132 532 l 2
 132 575 125 586 98 586 c 0x9c
 85 586 64 584 64 584 c 1
 60 590 l 1xcc
 68 642 l 1
 68 642 144 639 182 639 c 0x9c
 228 639 337 643 337 643 c 1
 535 643 664 526 664 344 c 0
 664 140 516 -12 317 -12 c 1xac
275 578 m 0
 250 578 243 574 242 555 c 0
 234 351 228 201 228 137 c 0
 228 71 250 54 336 54 c 0
 468 54 544 150 544 317 c 0
 544 491 451 578 275 578 c 0
EndSplineSet
Fore
SplineSet
317 -12 m 1xac
 317 -12 224 0 170 0 c 0
 119 0 50 -11 50 -11 c 1
 56 45 l 1
 116 56 131 74 131 130 c 2
 132 532 l 2
 132 575 125 586 98 586 c 0x9c
 85 586 64 584 64 584 c 1
 60 590 l 1xcc
 68 642 l 1
 68 642 144 639 182 639 c 0x9c
 228 639 337 643 337 643 c 1
 535 643 664 526 664 344 c 0
 664 140 516 -12 317 -12 c 1xac
275 578 m 0
 250 578 243 574 242 555 c 0
 234 351 228 201 228 137 c 0
 228 71 250 54 336 54 c 0
 468 54 544 150 544 317 c 0
 544 491 451 578 275 578 c 0
EndSplineSet
Substitution2: "Single Substitution lookup 54 subtable" D.ss01
Substitution2: "'ss01' Style Set 1 lookup 44 subtable" D.ss01
Substitution2: "'c2sc' Capitals to Small Capitals lookup 35 subtable" d.sc
AlternateSubs2: "'aalt' Access All Alternates lookup 1 subtable" d.sc D.ss01
Position2: "'cpsp' Capital Spacing lookup 0 subtable" dx=10 dy=0 dh=20 dv=0
EndChar

StartChar: uni01C4
Encoding: 452 452 38
Width: 1272
GlyphClass: 2
Flags: MW
HStem: -12 66<317 402 293 416.5> 0 58.5 570 20G<60 60> 578 65<337 363> 579.5 60.5 586 53<91.5 205> 601 39 631 20G<775 775>
VStem: 131 97<104 130> 544 120<242 404>
AnchorPoint: "Anchor-17" 0 0 basechar 0
AnchorPoint: "Anchor-16" 341 324 basechar 0
AnchorPoint: "Anchor-15" 999 774 basechar 0
AnchorPoint: "Anchor-14" 0 0 basechar 0
AnchorPoint: "Anchor-13" 1012 0 basechar 0
LayerCount: 2
Back
SplineSet
991 701 m 1x48c0
 991 701 913 766 845 817 c 1
 863 848 l 1
 875 850 l 1
 922 824 971 800 999 788 c 1
 1027 800 1075 824 1123 850 c 1
 1135 848 l 1
 1153 817 l 1
 1084 766 1007 701 1007 701 c 1
 991 701 l 1x48c0
745 -4 m 1
 727 34 l 1
 1090 583 l 1
 937 576 l 2x48c0
 848 569 820 540 811 443 c 1
 747 438 l 1
 747 438 762 550 765 642 c 1
 775 651 l 1x41c0
 951 640 l 1
 1224 635 l 1x48c0
 1238 601 l 1x42c0
 1057 360 908 126 863 54 c 1
 1046 63 l 2
 1114 66 1152 114 1171 224 c 1
 1234 230 l 1
 1234 230 1214 111 1210 14 c 1
 1193 -3 l 1
 818 3 l 1
 745 -4 l 1
317 -12 m 1x90c0
 317 -12 224 0 170 0 c 0
 119 0 50 -11 50 -11 c 1
 56 45 l 1
 116 56 131 74 131 130 c 2
 132 532 l 2
 132 575 125 586 98 586 c 0x84c0
 85 586 64 584 64 584 c 1
 60 590 l 1x60c0
 68 642 l 1
 68 642 144 639 182 639 c 0x44c0
 228 639 337 643 337 643 c 1
 535 643 664 526 664 344 c 0
 664 140 516 -12 317 -12 c 1x90c0
275 578 m 0
 250 578 243 574 242 555 c 0
 234 351 228 201 228 137 c 0
 228 71 250 54 336 54 c 0
 468 54 544 150 544 317 c 0
 544 491 451 578 275 578 c 0
EndSplineSet
Fore
SplineSet
991 701 m 1x48c0
 991 701 913 766 845 817 c 1
 863 848 l 1
 875 850 l 1
 922 824 971 800 999 788 c 1
 1027 800 1075 824 1123 850 c 1
 1135 848 l 1
 1153 817 l 1
 1084 766 1007 701 1007 701 c 1
 991 701 l 1x48c0
745 -4 m 1
 727 34 l 1
 1090 583 l 1
 937 576 l 2x48c0
 848 569 820 540 811 443 c 1
 747 438 l 1
 747 438 762 550 765 642 c 1
 775 651 l 1x41c0
 951 640 l 1
 1224 635 l 1x48c0
 1238 601 l 1x42c0
 1057 360 908 126 863 54 c 1
 1046 63 l 2
 1114 66 1152 114 1171 224 c 1
 1234 230 l 1
 1234 230 1214 111 1210 14 c 1
 1193 -3 l 1
 818 3 l 1
 745 -4 l 1
317 -12 m 1x90c0
 317 -12 224 0 170 0 c 0
 119 0 50 -11 50 -11 c 1
 56 45 l 1
 116 56 131 74 131 130 c 2
 132 532 l 2
 132 575 125 586 98 586 c 0x84c0
 85 586 64 584 64 584 c 1
 60 590 l 1x60c0
 68 642 l 1
 68 642 144 639 182 639 c 0x44c0
 228 639 337 643 337 643 c 1
 535 643 664 526 664 344 c 0
 664 140 516 -12 317 -12 c 1x90c0
275 578 m 0
 250 578 243 574 242 555 c 0
 234 351 228 201 228 137 c 0
 228 71 250 54 336 54 c 0
 468 54 544 150 544 317 c 0
 544 491 451 578 275 578 c 0
EndSplineSet
Substitution2: "'c2sc' Capitals to Small Capitals lookup 35 subtable" uni01C6.sc
Substitution2: "'aalt' Access All Alternates lookup 0 subtable" uni01C6.sc
Position2: "'cpsp' Capital Spacing lookup 0 subtable" dx=10 dy=0 dh=20 dv=0
EndChar

StartChar: Eth
Encoding: 208 208 39
Width: 711
GlyphClass: 1
Flags: MW
HStem: -12 66<328 412 303.5 427> 296 51<17 142 17 142 16 142> 340 7.5 578 65<348 373> 586 53<101.5 214.5>
VStem: 142 97<104 296> 555 119<242 404>
LayerCount: 2
Back
SplineSet
328 -12 m 1xd6
 328 -12 234 0 181 0 c 0
 129 0 60 -11 60 -11 c 1
 66 45 l 1
 132 56 142 72 142 159 c 2
 142 296 l 1
 16 296 l 1
 9 303 l 1
 17 347 l 1
 142 347 l 1
 142 532 l 2
 142 575 136 586 108 586 c 0
 95 586 74 584 74 584 c 1
 71 590 l 1
 78 642 l 1
 78 642 154 639 193 639 c 0xce
 236 639 348 643 348 643 c 1
 543 643 674 523 674 344 c 0
 674 140 526 -12 328 -12 c 1xd6
244 347 m 1
 394 348 l 1
 400 340 l 1xb6
 394 296 l 1
 242 296 l 1
 239 137 l 2
 239 71 261 54 346 54 c 0
 478 54 555 150 555 317 c 0
 555 491 461 578 285 578 c 0
 260 578 253 574 252 555 c 2
 244 347 l 1
EndSplineSet
Fore
SplineSet
328 -12 m 1xd6
 328 -12 234 0 181 0 c 0
 129 0 60 -11 60 -11 c 1
 66 45 l 1
 132 56 142 72 142 159 c 2
 142 296 l 1
 16 296 l 1
 9 303 l 1
 17 347 l 1
 142 347 l 1
 142 532 l 2
 142 575 136 586 108 586 c 0
 95 586 74 584 74 584 c 1
 71 590 l 1
 78 642 l 1
 78 642 154 639 193 639 c 0xce
 236 639 348 643 348 643 c 1
 543 643 674 523 674 344 c 0
 674 140 526 -12 328 -12 c 1xd6
244 347 m 1
 394 348 l 1
 400 340 l 1xb6
 394 296 l 1
 242 296 l 1
 239 137 l 2
 239 71 261 54 346 54 c 0
 478 54 555 150 555 317 c 0
 555 491 461 578 285 578 c 0
 260 578 253 574 252 555 c 2
 244 347 l 1
EndSplineSet
Substitution2: "'c2sc' Capitals to Small Capitals lookup 35 subtable" eth.sc
Substitution2: "'aalt' Access All Alternates lookup 0 subtable" eth.sc
Position2: "'cpsp' Capital Spacing lookup 0 subtable" dx=10 dy=0 dh=20 dv=0
EndChar

StartChar: Dcaron
Encoding: 270 270 40
Width: 699
GlyphClass: 2
Flags: MW
HStem: -12 66<317 402 293 416.5> 570 20G<60 60> 578 65<337 363> 586 53<91.5 205>
VStem: 131 97<104 130> 544 120<242 404>
AnchorPoint: "Anchor-17" 0 0 basechar 0
AnchorPoint: "Anchor-16" 341 324 basechar 0
AnchorPoint: "Anchor-15" 334 774 basechar 0
AnchorPoint: "Anchor-14" 0 0 basechar 0
AnchorPoint: "Anchor-13" 334 0 basechar 0
LayerCount: 2
Back
SplineSet
326 701 m 1xac
 326 701 249 766 180 817 c 1
 198 848 l 1
 210 850 l 1
 257 824 307 800 334 788 c 1
 363 800 410 824 458 850 c 1
 470 848 l 1
 489 817 l 1
 420 766 343 701 343 701 c 1
 326 701 l 1xac
317 -12 m 1
 317 -12 224 0 170 0 c 0
 119 0 50 -11 50 -11 c 1
 56 45 l 1
 116 56 131 74 131 130 c 2
 132 532 l 2
 132 575 125 586 98 586 c 0x9c
 85 586 64 584 64 584 c 1
 60 590 l 1xcc
 68 642 l 1
 68 642 144 639 182 639 c 0x9c
 228 639 337 643 337 643 c 1
 535 643 664 526 664 344 c 0
 664 140 516 -12 317 -12 c 1
275 578 m 0
 250 578 243 574 242 555 c 0
 234 351 228 201 228 137 c 0
 228 71 250 54 336 54 c 0
 468 54 544 150 544 317 c 0
 544 491 451 578 275 578 c 0
EndSplineSet
Fore
SplineSet
326 701 m 1xac
 326 701 249 766 180 817 c 1
 198 848 l 1
 210 850 l 1
 257 824 307 800 334 788 c 1
 363 800 410 824 458 850 c 1
 470 848 l 1
 489 817 l 1
 420 766 343 701 343 701 c 1
 326 701 l 1xac
317 -12 m 1
 317 -12 224 0 170 0 c 0
 119 0 50 -11 50 -11 c 1
 56 45 l 1
 116 56 131 74 131 130 c 2
 132 532 l 2
 132 575 125 586 98 586 c 0x9c
 85 586 64 584 64 584 c 1
 60 590 l 1xcc
 68 642 l 1
 68 642 144 639 182 639 c 0x9c
 228 639 337 643 337 643 c 1
 535 643 664 526 664 344 c 0
 664 140 516 -12 317 -12 c 1
275 578 m 0
 250 578 243 574 242 555 c 0
 234 351 228 201 228 137 c 0
 228 71 250 54 336 54 c 0
 468 54 544 150 544 317 c 0
 544 491 451 578 275 578 c 0
EndSplineSet
Substitution2: "'c2sc' Capitals to Small Capitals lookup 35 subtable" dcaron.sc
Substitution2: "'aalt' Access All Alternates lookup 0 subtable" dcaron.sc
Position2: "'cpsp' Capital Spacing lookup 0 subtable" dx=10 dy=0 dh=20 dv=0
EndChar

StartChar: Dcroat
Encoding: 272 272 41
Width: 711
GlyphClass: 1
Flags: MW
HStem: -12 66<328 412 303.5 427> 296 51<17 142 17 142 16 142> 340 7.5 578 65<348 373> 586 53<101.5 214.5>
VStem: 142 97<104 296> 555 119<242 404>
LayerCount: 2
Back
SplineSet
328 -12 m 1xd6
 328 -12 234 0 181 0 c 0
 129 0 60 -11 60 -11 c 1
 66 45 l 1
 132 56 142 72 142 159 c 2
 142 296 l 1
 16 296 l 1
 9 303 l 1
 17 347 l 1
 142 347 l 1
 142 532 l 2
 142 575 136 586 108 586 c 0
 95 586 74 584 74 584 c 1
 71 590 l 1
 78 642 l 1
 78 642 154 639 193 639 c 0xce
 236 639 348 643 348 643 c 1
 543 643 674 523 674 344 c 0
 674 140 526 -12 328 -12 c 1xd6
244 347 m 1
 394 348 l 1
 400 340 l 1xb6
 394 296 l 1
 242 296 l 1
 239 137 l 2
 239 71 261 54 346 54 c 0
 478 54 555 150 555 317 c 0
 555 491 461 578 285 578 c 0
 260 578 253 574 252 555 c 2
 244 347 l 1
EndSplineSet
Fore
SplineSet
328 -12 m 1xd6
 328 -12 234 0 181 0 c 0
 129 0 60 -11 60 -11 c 1
 66 45 l 1
 132 56 142 72 142 159 c 2
 142 296 l 1
 16 296 l 1
 9 303 l 1
 17 347 l 1
 142 347 l 1
 142 532 l 2
 142 575 136 586 108 586 c 0
 95 586 74 584 74 584 c 1
 71 590 l 1
 78 642 l 1
 78 642 154 639 193 639 c 0xce
 236 639 348 643 348 643 c 1
 543 643 674 523 674 344 c 0
 674 140 526 -12 328 -12 c 1xd6
244 347 m 1
 394 348 l 1
 400 340 l 1xb6
 394 296 l 1
 242 296 l 1
 239 137 l 2
 239 71 261 54 346 54 c 0
 478 54 555 150 555 317 c 0
 555 491 461 578 285 578 c 0
 260 578 253 574 252 555 c 2
 244 347 l 1
EndSplineSet
Substitution2: "'c2sc' Capitals to Small Capitals lookup 35 subtable" dcroat.sc
Substitution2: "'aalt' Access All Alternates lookup 0 subtable" dcroat.sc
Position2: "'cpsp' Capital Spacing lookup 0 subtable" dx=10 dy=0 dh=20 dv=0
EndChar

StartChar: uni1E0C
Encoding: 7692 7692 42
Width: 699
GlyphClass: 2
Flags: MW
HStem: -200 135<312.5 349> -12 66<317 402 293 416.5> 570 20G<60 60> 578 65<337 363> 586 53<91.5 205>
VStem: 131 97<104 130> 264 134<-150 -115> 544 120<242 404>
AnchorPoint: "Anchor-17" 0 0 basechar 0
AnchorPoint: "Anchor-16" 341 324 basechar 0
AnchorPoint: "Anchor-15" 347 647 basechar 0
AnchorPoint: "Anchor-14" 0 0 basechar 0
AnchorPoint: "Anchor-13" 331 -200 basechar 0
LayerCount: 2
Back
SplineSet
317 -12 m 1x55
 317 -12 224 0 170 0 c 0
 119 0 50 -11 50 -11 c 1
 56 45 l 1
 116 56 131 74 131 130 c 2
 132 532 l 2
 132 575 125 586 98 586 c 0x4d
 85 586 64 584 64 584 c 1
 60 590 l 1x65
 68 642 l 1
 68 642 144 639 182 639 c 0x4d
 228 639 337 643 337 643 c 1
 535 643 664 526 664 344 c 0
 664 140 516 -12 317 -12 c 1x55
275 578 m 0
 250 578 243 574 242 555 c 0
 234 351 228 201 228 137 c 0
 228 71 250 54 336 54 c 0
 468 54 544 150 544 317 c 0
 544 491 451 578 275 578 c 0
327 -200 m 0xd7
 285 -200 264 -171 264 -135 c 0
 264 -95 291 -65 334 -65 c 0
 375 -65 398 -93 398 -130 c 0
 398 -170 371 -200 327 -200 c 0xd7
EndSplineSet
Fore
SplineSet
317 -12 m 1x55
 317 -12 224 0 170 0 c 0
 119 0 50 -11 50 -11 c 1
 56 45 l 1
 116 56 131 74 131 130 c 2
 132 532 l 2
 132 575 125 586 98 586 c 0x4d
 85 586 64 584 64 584 c 1
 60 590 l 1x65
 68 642 l 1
 68 642 144 639 182 639 c 0x4d
 228 639 337 643 337 643 c 1
 535 643 664 526 664 344 c 0
 664 140 516 -12 317 -12 c 1x55
275 578 m 0
 250 578 243 574 242 555 c 0
 234 351 228 201 228 137 c 0
 228 71 250 54 336 54 c 0
 468 54 544 150 544 317 c 0
 544 491 451 578 275 578 c 0
327 -200 m 0xd7
 285 -200 264 -171 264 -135 c 0
 264 -95 291 -65 334 -65 c 0
 375 -65 398 -93 398 -130 c 0
 398 -170 371 -200 327 -200 c 0xd7
EndSplineSet
Substitution2: "'c2sc' Capitals to Small Capitals lookup 35 subtable" uni1E0D.sc
Substitution2: "'aalt' Access All Alternates lookup 0 subtable" uni1E0D.sc
Position2: "'cpsp' Capital Spacing lookup 0 subtable" dx=10 dy=0 dh=20 dv=0
EndChar

StartChar: uni1E0E
Encoding: 7694 7694 43
Width: 699
GlyphClass: 2
Flags: MW
HStem: -169 67<319.5 333> -108 12<477 484> -12 66<317 402 293 416.5> 570 20G<60 60> 578 65<337 363> 586 53<91.5 205>
VStem: 131 97<104 130> 544 120<242 404>
AnchorPoint: "Anchor-17" 0 0 basechar 0
AnchorPoint: "Anchor-16" 341 324 basechar 0
AnchorPoint: "Anchor-15" 347 647 basechar 0
AnchorPoint: "Anchor-14" 0 0 basechar 0
AnchorPoint: "Anchor-13" 334 -154 basechar 0
LayerCount: 2
Back
SplineSet
317 -12 m 1xab
 317 -12 224 0 170 0 c 0
 119 0 50 -11 50 -11 c 1
 56 45 l 1
 116 56 131 74 131 130 c 2
 132 532 l 2
 132 575 125 586 98 586 c 0xa7
 85 586 64 584 64 584 c 1
 60 590 l 1xb3
 68 642 l 1
 68 642 144 639 182 639 c 0xa7
 228 639 337 643 337 643 c 1
 535 643 664 526 664 344 c 0
 664 140 516 -12 317 -12 c 1xab
275 578 m 0
 250 578 243 574 242 555 c 0
 234 351 228 201 228 137 c 0
 228 71 250 54 336 54 c 0
 468 54 544 150 544 317 c 0
 544 491 451 578 275 578 c 0
191 -170 m 1
 183 -160 l 1
 195 -101 l 1
 195 -101 290 -102 349 -102 c 0
 399 -102 477 -96 477 -96 c 1xab
 484 -108 l 1x6b
 475 -168 l 1
 333 -169 l 2
 274 -169 191 -170 191 -170 c 1
EndSplineSet
Fore
SplineSet
317 -12 m 1xab
 317 -12 224 0 170 0 c 0
 119 0 50 -11 50 -11 c 1
 56 45 l 1
 116 56 131 74 131 130 c 2
 132 532 l 2
 132 575 125 586 98 586 c 0xa7
 85 586 64 584 64 584 c 1
 60 590 l 1xb3
 68 642 l 1
 68 642 144 639 182 639 c 0xa7
 228 639 337 643 337 643 c 1
 535 643 664 526 664 344 c 0
 664 140 516 -12 317 -12 c 1xab
275 578 m 0
 250 578 243 574 242 555 c 0
 234 351 228 201 228 137 c 0
 228 71 250 54 336 54 c 0
 468 54 544 150 544 317 c 0
 544 491 451 578 275 578 c 0
191 -170 m 1
 183 -160 l 1
 195 -101 l 1
 195 -101 290 -102 349 -102 c 0
 399 -102 477 -96 477 -96 c 1xab
 484 -108 l 1x6b
 475 -168 l 1
 333 -169 l 2
 274 -169 191 -170 191 -170 c 1
EndSplineSet
Substitution2: "'c2sc' Capitals to Small Capitals lookup 35 subtable" uni1E0F.sc
Substitution2: "'aalt' Access All Alternates lookup 0 subtable" uni1E0F.sc
Position2: "'cpsp' Capital Spacing lookup 0 subtable" dx=10 dy=0 dh=20 dv=0
EndChar

StartChar: uni01C5
Encoding: 453 453 44
Width: 1158
GlyphClass: 2
Flags: MW
HStem: -12 66<317 402 293 416.5> -2 53.5 404 54 404 62 429 29 570 20G<60 60> 578 65<337 363> 586 53<91.5 205>
VStem: 131 97<104 130> 544 120<242 404> 1084 16
AnchorPoint: "Anchor-17" 0 0 basechar 0
AnchorPoint: "Anchor-16" 341 324 basechar 0
AnchorPoint: "Anchor-15" 937 716 basechar 0
AnchorPoint: "Anchor-14" 0 0 basechar 0
AnchorPoint: "Anchor-13" 909 0 basechar 0
LayerCount: 2
Back
SplineSet
929 524 m 1x62c0
 929 524 850 612 780 683 c 1
 801 714 l 1
 813 716 l 1
 861 676 909 642 937 622 c 1
 965 642 1014 676 1062 716 c 1
 1073 714 l 1
 1095 683 l 1
 1024 612 946 524 946 524 c 1
 929 524 l 1x62c0
317 -12 m 1xa2c0
 317 -12 224 0 170 0 c 0
 119 0 50 -11 50 -11 c 1
 56 45 l 1
 116 56 131 74 131 130 c 2
 132 532 l 2
 132 575 125 586 98 586 c 0xa1c0
 85 586 64 584 64 584 c 1
 60 590 l 1x64c0
 68 642 l 1
 68 642 144 639 182 639 c 0x61c0
 228 639 337 643 337 643 c 1
 535 643 664 526 664 344 c 0
 664 140 516 -12 317 -12 c 1xa2c0
275 578 m 0
 250 578 243 574 242 555 c 0
 234 351 228 201 228 137 c 0
 228 71 250 54 336 54 c 0
 468 54 544 150 544 317 c 0
 544 491 451 578 275 578 c 0
728 25 m 1x4ae0
 991 407 l 1
 881 401 l 2
 814 396 796 378 790 312 c 1
 745 306 l 1x62c0
 745 306 755 395 756 460 c 1
 763 466 l 1x52c0
 892 458 l 1
 1111 454 l 1x62e0
 1121 429 l 1
 989 256 879 96 847 47 c 1
 976 56 l 2
 1031 61 1058 95 1071 176 c 1
 1117 181 l 1
 1117 181 1100 83 1100 10 c 1
 1084 -6 l 1
 795 2 l 1
 741 -3 l 1
 728 25 l 1x4ae0
EndSplineSet
Fore
SplineSet
929 524 m 1x62c0
 929 524 850 612 780 683 c 1
 801 714 l 1
 813 716 l 1
 861 676 909 642 937 622 c 1
 965 642 1014 676 1062 716 c 1
 1073 714 l 1
 1095 683 l 1
 1024 612 946 524 946 524 c 1
 929 524 l 1x62c0
317 -12 m 1xa2c0
 317 -12 224 0 170 0 c 0
 119 0 50 -11 50 -11 c 1
 56 45 l 1
 116 56 131 74 131 130 c 2
 132 532 l 2
 132 575 125 586 98 586 c 0xa1c0
 85 586 64 584 64 584 c 1
 60 590 l 1x64c0
 68 642 l 1
 68 642 144 639 182 639 c 0x61c0
 228 639 337 643 337 643 c 1
 535 643 664 526 664 344 c 0
 664 140 516 -12 317 -12 c 1xa2c0
275 578 m 0
 250 578 243 574 242 555 c 0
 234 351 228 201 228 137 c 0
 228 71 250 54 336 54 c 0
 468 54 544 150 544 317 c 0
 544 491 451 578 275 578 c 0
728 25 m 1x4ae0
 991 407 l 1
 881 401 l 2
 814 396 796 378 790 312 c 1
 745 306 l 1x62c0
 745 306 755 395 756 460 c 1
 763 466 l 1x52c0
 892 458 l 1
 1111 454 l 1x62e0
 1121 429 l 1
 989 256 879 96 847 47 c 1
 976 56 l 2
 1031 61 1058 95 1071 176 c 1
 1117 181 l 1
 1117 181 1100 83 1100 10 c 1
 1084 -6 l 1
 795 2 l 1
 741 -3 l 1
 728 25 l 1x4ae0
EndSplineSet
Substitution2: "'c2sc' Capitals to Small Capitals lookup 35 subtable" uni01C6.sc
Substitution2: "'aalt' Access All Alternates lookup 0 subtable" uni01C6.sc
Position2: "'cpsp' Capital Spacing lookup 0 subtable" dx=10 dy=0 dh=20 dv=0
EndChar

StartChar: E
Encoding: 69 69 45
Width: 593
GlyphClass: 2
Flags: MW
HStem: 0 59<180 371.5> 295 65<296.5 343> 571 20G<60 60> 575 64<275 302 202 368> 587 52 623 20G<533 533>
VStem: 131 97<101.5 119 92.5 130> 445 65<470 537.5>
AnchorPoint: "Anchor-17" 0 0 basechar 0
AnchorPoint: "Anchor-16" 0 0 basechar 0
AnchorPoint: "Anchor-15" 326 647 basechar 0
AnchorPoint: "Anchor-14" 524 40 basechar 0
AnchorPoint: "Anchor-13" 318 0 basechar 0
LayerCount: 2
Back
SplineSet
539 184 m 1xd3
 544 177 l 1
 534 132 522 57 516 1 c 1
 509 -7 l 1
 394 -3 265 0 203 0 c 0
 157 0 94 -4 49 -10 c 1
 55 45 l 1
 113 53 131 73 131 130 c 2
 132 533 l 2
 132 576 125 587 97 587 c 0xcb
 89 587 74 586 64 585 c 1
 60 591 l 1xe3
 68 642 l 1
 107 641 178 639 226 639 c 0xd3
 378 639 464 642 528 651 c 1
 533 643 l 1xc7
 522 593 513 522 510 470 c 1
 443 465 l 1
 444 477 445 497 445 507 c 0
 445 568 432 575 304 575 c 0
 246 575 242 572 241 538 c 2
 233 361 l 1
 332 360 l 2
 354 360 409 364 452 370 c 1
 457 363 l 1
 443 292 l 1
 408 293 346 295 308 295 c 0
 285 295 255 292 231 289 c 1
 228 119 l 2
 228 66 234 59 300 59 c 0
 443 59 462 72 477 178 c 1
 539 184 l 1xd3
EndSplineSet
Fore
SplineSet
539 184 m 1xd3
 544 177 l 1
 534 132 522 57 516 1 c 1
 509 -7 l 1
 394 -3 265 0 203 0 c 0
 157 0 94 -4 49 -10 c 1
 55 45 l 1
 113 53 131 73 131 130 c 2
 132 533 l 2
 132 576 125 587 97 587 c 0xcb
 89 587 74 586 64 585 c 1
 60 591 l 1xe3
 68 642 l 1
 107 641 178 639 226 639 c 0xd3
 378 639 464 642 528 651 c 1
 533 643 l 1xc7
 522 593 513 522 510 470 c 1
 443 465 l 1
 444 477 445 497 445 507 c 0
 445 568 432 575 304 575 c 0
 246 575 242 572 241 538 c 2
 233 361 l 1
 332 360 l 2
 354 360 409 364 452 370 c 1
 457 363 l 1
 443 292 l 1
 408 293 346 295 308 295 c 0
 285 295 255 292 231 289 c 1
 228 119 l 2
 228 66 234 59 300 59 c 0
 443 59 462 72 477 178 c 1
 539 184 l 1xd3
EndSplineSet
Substitution2: "'c2sc' Capitals to Small Capitals lookup 35 subtable" e.sc
Substitution2: "'aalt' Access All Alternates lookup 0 subtable" e.sc
Position2: "'cpsp' Capital Spacing lookup 0 subtable" dx=10 dy=0 dh=20 dv=0
EndChar

StartChar: Eacute
Encoding: 201 201 46
Width: 593
GlyphClass: 2
Flags: MW
HStem: 0 59<180 371.5> 295 65<296.5 343> 571 20G<60 60> 575 64<275 302 202 368> 587 52 623 20G<533 533>
VStem: 131 97<101.5 119 92.5 130> 445 65<470 537.5>
AnchorPoint: "Anchor-17" 0 0 basechar 0
AnchorPoint: "Anchor-16" 0 0 basechar 0
AnchorPoint: "Anchor-15" 344 775 basechar 0
AnchorPoint: "Anchor-14" 524 40 basechar 0
AnchorPoint: "Anchor-13" 318 0 basechar 0
LayerCount: 2
Back
SplineSet
259 701 m 1xd3
 249 707 l 1
 239 741 l 1
 339 789 449 848 449 848 c 1
 459 842 l 1
 479 782 l 1
 475 771 l 1
 475 771 368 739 259 701 c 1xd3
539 184 m 1
 544 177 l 1
 534 132 522 57 516 1 c 1
 509 -7 l 1
 394 -3 265 0 203 0 c 0
 157 0 94 -4 49 -10 c 1
 55 45 l 1
 113 53 131 73 131 130 c 2
 132 533 l 2
 132 576 125 587 97 587 c 0xcb
 89 587 74 586 64 585 c 1
 60 591 l 1xe3
 68 642 l 1
 107 641 178 639 226 639 c 0xd3
 378 639 464 642 528 651 c 1
 533 643 l 1xc7
 522 593 513 522 510 470 c 1
 443 465 l 1
 444 477 445 497 445 507 c 0
 445 568 432 575 304 575 c 0
 246 575 242 572 241 538 c 2
 233 361 l 1
 332 360 l 2
 354 360 409 364 452 370 c 1
 457 363 l 1
 443 292 l 1
 408 293 346 295 308 295 c 0
 285 295 255 292 231 289 c 1
 228 119 l 2
 228 66 234 59 300 59 c 0
 443 59 462 72 477 178 c 1
 539 184 l 1
EndSplineSet
Fore
SplineSet
259 701 m 1xd3
 249 707 l 1
 239 741 l 1
 339 789 449 848 449 848 c 1
 459 842 l 1
 479 782 l 1
 475 771 l 1
 475 771 368 739 259 701 c 1xd3
539 184 m 1
 544 177 l 1
 534 132 522 57 516 1 c 1
 509 -7 l 1
 394 -3 265 0 203 0 c 0
 157 0 94 -4 49 -10 c 1
 55 45 l 1
 113 53 131 73 131 130 c 2
 132 533 l 2
 132 576 125 587 97 587 c 0xcb
 89 587 74 586 64 585 c 1
 60 591 l 1xe3
 68 642 l 1
 107 641 178 639 226 639 c 0xd3
 378 639 464 642 528 651 c 1
 533 643 l 1xc7
 522 593 513 522 510 470 c 1
 443 465 l 1
 444 477 445 497 445 507 c 0
 445 568 432 575 304 575 c 0
 246 575 242 572 241 538 c 2
 233 361 l 1
 332 360 l 2
 354 360 409 364 452 370 c 1
 457 363 l 1
 443 292 l 1
 408 293 346 295 308 295 c 0
 285 295 255 292 231 289 c 1
 228 119 l 2
 228 66 234 59 300 59 c 0
 443 59 462 72 477 178 c 1
 539 184 l 1
EndSplineSet
Substitution2: "'c2sc' Capitals to Small Capitals lookup 35 subtable" eacute.sc
Substitution2: "'aalt' Access All Alternates lookup 0 subtable" eacute.sc
Position2: "'cpsp' Capital Spacing lookup 0 subtable" dx=10 dy=0 dh=20 dv=0
EndChar

StartChar: Ebreve
Encoding: 276 276 47
Width: 593
GlyphClass: 2
Flags: MW
HStem: 0 59<180 371.5> 295 65<296.5 343> 571 20G<60 60> 575 64<275 302 202 368> 587 52 623 20G<533 533> 707 73<305.5 348.5 305.5 365>
VStem: 131 97<101.5 119 92.5 130> 445 65<470 537.5>
AnchorPoint: "Anchor-17" 0 0 basechar 0
AnchorPoint: "Anchor-16" 0 0 basechar 0
AnchorPoint: "Anchor-15" 327 847 basechar 0
AnchorPoint: "Anchor-14" 524 40 basechar 0
AnchorPoint: "Anchor-13" 318 0 basechar 0
LayerCount: 2
Back
SplineSet
327 707 m 0xd380
 251 707 211 766 195 825 c 1
 216 846 l 1
 228 847 l 1
 246 803 284 780 327 780 c 0
 370 780 408 803 426 847 c 1
 438 846 l 1
 459 825 l 1
 444 766 403 707 327 707 c 0xd380
539 184 m 1
 544 177 l 1
 534 132 522 57 516 1 c 1
 509 -7 l 1
 394 -3 265 0 203 0 c 0
 157 0 94 -4 49 -10 c 1
 55 45 l 1
 113 53 131 73 131 130 c 2
 132 533 l 2
 132 576 125 587 97 587 c 0xcb80
 89 587 74 586 64 585 c 1
 60 591 l 1xe380
 68 642 l 1
 107 641 178 639 226 639 c 0xd380
 378 639 464 642 528 651 c 1
 533 643 l 1xc780
 522 593 513 522 510 470 c 1
 443 465 l 1
 444 477 445 497 445 507 c 0
 445 568 432 575 304 575 c 0
 246 575 242 572 241 538 c 2
 233 361 l 1
 332 360 l 2
 354 360 409 364 452 370 c 1
 457 363 l 1
 443 292 l 1
 408 293 346 295 308 295 c 0
 285 295 255 292 231 289 c 1
 228 119 l 2
 228 66 234 59 300 59 c 0
 443 59 462 72 477 178 c 1
 539 184 l 1
EndSplineSet
Fore
SplineSet
327 707 m 0xd380
 251 707 211 766 195 825 c 1
 216 846 l 1
 228 847 l 1
 246 803 284 780 327 780 c 0
 370 780 408 803 426 847 c 1
 438 846 l 1
 459 825 l 1
 444 766 403 707 327 707 c 0xd380
539 184 m 1
 544 177 l 1
 534 132 522 57 516 1 c 1
 509 -7 l 1
 394 -3 265 0 203 0 c 0
 157 0 94 -4 49 -10 c 1
 55 45 l 1
 113 53 131 73 131 130 c 2
 132 533 l 2
 132 576 125 587 97 587 c 0xcb80
 89 587 74 586 64 585 c 1
 60 591 l 1xe380
 68 642 l 1
 107 641 178 639 226 639 c 0xd380
 378 639 464 642 528 651 c 1
 533 643 l 1xc780
 522 593 513 522 510 470 c 1
 443 465 l 1
 444 477 445 497 445 507 c 0
 445 568 432 575 304 575 c 0
 246 575 242 572 241 538 c 2
 233 361 l 1
 332 360 l 2
 354 360 409 364 452 370 c 1
 457 363 l 1
 443 292 l 1
 408 293 346 295 308 295 c 0
 285 295 255 292 231 289 c 1
 228 119 l 2
 228 66 234 59 300 59 c 0
 443 59 462 72 477 178 c 1
 539 184 l 1
EndSplineSet
Substitution2: "'c2sc' Capitals to Small Capitals lookup 35 subtable" ebreve.sc
Substitution2: "'aalt' Access All Alternates lookup 0 subtable" ebreve.sc
Position2: "'cpsp' Capital Spacing lookup 0 subtable" dx=10 dy=0 dh=20 dv=0
EndChar

StartChar: Ecaron
Encoding: 282 282 48
Width: 593
GlyphClass: 2
Flags: MW
HStem: 0 59<180 371.5> 295 65<296.5 343> 571 20G<60 60> 575 64<275 302 202 368> 587 52 623 20G<533 533>
VStem: 131 97<101.5 119 92.5 130> 445 65<470 537.5>
AnchorPoint: "Anchor-17" 0 0 basechar 0
AnchorPoint: "Anchor-16" 0 0 basechar 0
AnchorPoint: "Anchor-15" 313 774 basechar 0
AnchorPoint: "Anchor-14" 524 40 basechar 0
AnchorPoint: "Anchor-13" 318 0 basechar 0
LayerCount: 2
Back
SplineSet
322 701 m 1xd3
 305 701 l 1
 305 701 228 766 159 817 c 1
 177 848 l 1
 189 850 l 1
 236 824 286 800 313 788 c 1
 342 800 389 824 437 850 c 1
 449 848 l 1
 468 817 l 1
 399 766 322 701 322 701 c 1xd3
539 184 m 1
 544 177 l 1
 534 132 522 57 516 1 c 1
 509 -7 l 1
 394 -3 265 0 203 0 c 0
 157 0 94 -4 49 -10 c 1
 55 45 l 1
 113 53 131 73 131 130 c 2
 132 533 l 2
 132 576 125 587 97 587 c 0xcb
 89 587 74 586 64 585 c 1
 60 591 l 1xe3
 68 642 l 1
 107 641 178 639 226 639 c 0xd3
 378 639 464 642 528 651 c 1
 533 643 l 1xc7
 522 593 513 522 510 470 c 1
 443 465 l 1
 444 477 445 497 445 507 c 0
 445 568 432 575 304 575 c 0
 246 575 242 572 241 538 c 2
 233 361 l 1
 332 360 l 2
 354 360 409 364 452 370 c 1
 457 363 l 1
 443 292 l 1
 408 293 346 295 308 295 c 0
 285 295 255 292 231 289 c 1
 228 119 l 2
 228 66 234 59 300 59 c 0
 443 59 462 72 477 178 c 1
 539 184 l 1
EndSplineSet
Fore
SplineSet
322 701 m 1xd3
 305 701 l 1
 305 701 228 766 159 817 c 1
 177 848 l 1
 189 850 l 1
 236 824 286 800 313 788 c 1
 342 800 389 824 437 850 c 1
 449 848 l 1
 468 817 l 1
 399 766 322 701 322 701 c 1xd3
539 184 m 1
 544 177 l 1
 534 132 522 57 516 1 c 1
 509 -7 l 1
 394 -3 265 0 203 0 c 0
 157 0 94 -4 49 -10 c 1
 55 45 l 1
 113 53 131 73 131 130 c 2
 132 533 l 2
 132 576 125 587 97 587 c 0xcb
 89 587 74 586 64 585 c 1
 60 591 l 1xe3
 68 642 l 1
 107 641 178 639 226 639 c 0xd3
 378 639 464 642 528 651 c 1
 533 643 l 1xc7
 522 593 513 522 510 470 c 1
 443 465 l 1
 444 477 445 497 445 507 c 0
 445 568 432 575 304 575 c 0
 246 575 242 572 241 538 c 2
 233 361 l 1
 332 360 l 2
 354 360 409 364 452 370 c 1
 457 363 l 1
 443 292 l 1
 408 293 346 295 308 295 c 0
 285 295 255 292 231 289 c 1
 228 119 l 2
 228 66 234 59 300 59 c 0
 443 59 462 72 477 178 c 1
 539 184 l 1
EndSplineSet
Substitution2: "'c2sc' Capitals to Small Capitals lookup 35 subtable" ecaron.sc
Substitution2: "'aalt' Access All Alternates lookup 0 subtable" ecaron.sc
Position2: "'cpsp' Capital Spacing lookup 0 subtable" dx=10 dy=0 dh=20 dv=0
EndChar

StartChar: uni1E1C
Encoding: 7708 7708 49
Width: 593
GlyphClass: 2
Flags: MW
HStem: -235 42<306 331.5> -7 66 295 65<296.5 343> 571 20G<60 60> 575 64<275 302 202 368> 587 52 623 20G<533 533> 703 74<304.5 347.5 304.5 364>
VStem: 131 97<101.5 119 92.5 130> 259 9<-137 -137> 366 61<-166 -147> 445 65<470 537.5>
AnchorPoint: "Anchor-17" 0 0 basechar 0
AnchorPoint: "Anchor-16" 0 0 basechar 0
AnchorPoint: "Anchor-15" 326 831 basechar 0
AnchorPoint: "Anchor-14" 524 40 basechar 0
AnchorPoint: "Anchor-13" 328 -235 basechar 0
LayerCount: 2
Back
SplineSet
326 703 m 0xe990
 250 703 210 756 194 809 c 1
 215 829 l 1
 227 831 l 1
 245 795 283 777 326 777 c 0
 369 777 407 795 425 831 c 1
 437 829 l 1
 458 809 l 1
 443 756 402 703 326 703 c 0xe990
539 184 m 1
 544 177 l 1
 534 132 522 57 516 1 c 1
 509 -7 l 1
 457 -5 402 -4 351 -2 c 1
 337 -48 l 1
 372 -70 427 -101 427 -140 c 0
 427 -192 362 -235 301 -235 c 0
 269 -235 229 -221 229 -196 c 0
 229 -182 247 -154 259 -137 c 1
 268 -137 l 1
 269 -174 290 -193 322 -193 c 0
 346 -193 366 -180 366 -159 c 0
 366 -135 321 -108 281 -85 c 1
 305 -1 l 1
 264 0 228 0 203 0 c 0
 157 0 94 -4 49 -10 c 1
 55 45 l 1
 113 53 131 73 131 130 c 2
 132 533 l 2
 132 576 125 587 97 587 c 0xe5f0
 89 587 74 586 64 585 c 1
 60 591 l 1xf190
 68 642 l 1
 107 641 178 639 226 639 c 0xe990
 378 639 464 642 528 651 c 1
 533 643 l 1xe390
 522 593 513 522 510 470 c 1
 443 465 l 1
 444 477 445 497 445 507 c 0
 445 568 432 575 304 575 c 0
 246 575 242 572 241 538 c 2
 233 361 l 1
 332 360 l 2
 354 360 409 364 452 370 c 1
 457 363 l 1
 443 292 l 1
 408 293 346 295 308 295 c 0
 285 295 255 292 231 289 c 1
 228 119 l 2
 228 66 234 59 300 59 c 0
 443 59 462 72 477 178 c 1
 539 184 l 1
EndSplineSet
Fore
SplineSet
326 703 m 0xe990
 250 703 210 756 194 809 c 1
 215 829 l 1
 227 831 l 1
 245 795 283 777 326 777 c 0
 369 777 407 795 425 831 c 1
 437 829 l 1
 458 809 l 1
 443 756 402 703 326 703 c 0xe990
539 184 m 1
 544 177 l 1
 534 132 522 57 516 1 c 1
 509 -7 l 1
 457 -5 402 -4 351 -2 c 1
 337 -48 l 1
 372 -70 427 -101 427 -140 c 0
 427 -192 362 -235 301 -235 c 0
 269 -235 229 -221 229 -196 c 0
 229 -182 247 -154 259 -137 c 1
 268 -137 l 1
 269 -174 290 -193 322 -193 c 0
 346 -193 366 -180 366 -159 c 0
 366 -135 321 -108 281 -85 c 1
 305 -1 l 1
 264 0 228 0 203 0 c 0
 157 0 94 -4 49 -10 c 1
 55 45 l 1
 113 53 131 73 131 130 c 2
 132 533 l 2
 132 576 125 587 97 587 c 0xe5f0
 89 587 74 586 64 585 c 1
 60 591 l 1xf190
 68 642 l 1
 107 641 178 639 226 639 c 0xe990
 378 639 464 642 528 651 c 1
 533 643 l 1xe390
 522 593 513 522 510 470 c 1
 443 465 l 1
 444 477 445 497 445 507 c 0
 445 568 432 575 304 575 c 0
 246 575 242 572 241 538 c 2
 233 361 l 1
 332 360 l 2
 354 360 409 364 452 370 c 1
 457 363 l 1
 443 292 l 1
 408 293 346 295 308 295 c 0
 285 295 255 292 231 289 c 1
 228 119 l 2
 228 66 234 59 300 59 c 0
 443 59 462 72 477 178 c 1
 539 184 l 1
EndSplineSet
Substitution2: "'c2sc' Capitals to Small Capitals lookup 35 subtable" uni1E1D.sc
Substitution2: "'aalt' Access All Alternates lookup 0 subtable" uni1E1D.sc
Position2: "'cpsp' Capital Spacing lookup 0 subtable" dx=10 dy=0 dh=20 dv=0
EndChar

StartChar: Ecircumflex
Encoding: 202 202 50
Width: 593
GlyphClass: 2
Flags: MW
HStem: 0 59<180 371.5> 295 65<296.5 343> 571 20G<60 60> 575 64<275 302 202 368> 587 52 623 20G<533 533> 722 20G<159 159 468 468>
VStem: 131 97<101.5 119 92.5 130> 445 65<470 537.5>
AnchorPoint: "Anchor-17" 0 0 basechar 0
AnchorPoint: "Anchor-16" 0 0 basechar 0
AnchorPoint: "Anchor-15" 314 859 basechar 0
AnchorPoint: "Anchor-14" 524 40 basechar 0
AnchorPoint: "Anchor-13" 318 0 basechar 0
LayerCount: 2
Back
SplineSet
190 710 m 1xd380
 178 712 l 1
 159 742 l 1
 228 794 305 859 305 859 c 1
 322 859 l 1
 322 860 399 794 468 742 c 1
 450 712 l 1
 438 710 l 1
 391 735 341 759 314 772 c 1
 285 759 238 736 190 710 c 1xd380
539 184 m 1
 544 177 l 1
 534 132 522 57 516 1 c 1
 509 -7 l 1
 394 -3 265 0 203 0 c 0
 157 0 94 -4 49 -10 c 1
 55 45 l 1
 113 53 131 73 131 130 c 2
 132 533 l 2
 132 576 125 587 97 587 c 0xcb80
 89 587 74 586 64 585 c 1
 60 591 l 1xe380
 68 642 l 1
 107 641 178 639 226 639 c 0xd380
 378 639 464 642 528 651 c 1
 533 643 l 1xc780
 522 593 513 522 510 470 c 1
 443 465 l 1
 444 477 445 497 445 507 c 0
 445 568 432 575 304 575 c 0
 246 575 242 572 241 538 c 2
 233 361 l 1
 332 360 l 2
 354 360 409 364 452 370 c 1
 457 363 l 1
 443 292 l 1
 408 293 346 295 308 295 c 0
 285 295 255 292 231 289 c 1
 228 119 l 2
 228 66 234 59 300 59 c 0
 443 59 462 72 477 178 c 1
 539 184 l 1
EndSplineSet
Fore
SplineSet
190 710 m 1xd380
 178 712 l 1
 159 742 l 1
 228 794 305 859 305 859 c 1
 322 859 l 1
 322 860 399 794 468 742 c 1
 450 712 l 1
 438 710 l 1
 391 735 341 759 314 772 c 1
 285 759 238 736 190 710 c 1xd380
539 184 m 1
 544 177 l 1
 534 132 522 57 516 1 c 1
 509 -7 l 1
 394 -3 265 0 203 0 c 0
 157 0 94 -4 49 -10 c 1
 55 45 l 1
 113 53 131 73 131 130 c 2
 132 533 l 2
 132 576 125 587 97 587 c 0xcb80
 89 587 74 586 64 585 c 1
 60 591 l 1xe380
 68 642 l 1
 107 641 178 639 226 639 c 0xd380
 378 639 464 642 528 651 c 1
 533 643 l 1xc780
 522 593 513 522 510 470 c 1
 443 465 l 1
 444 477 445 497 445 507 c 0
 445 568 432 575 304 575 c 0
 246 575 242 572 241 538 c 2
 233 361 l 1
 332 360 l 2
 354 360 409 364 452 370 c 1
 457 363 l 1
 443 292 l 1
 408 293 346 295 308 295 c 0
 285 295 255 292 231 289 c 1
 228 119 l 2
 228 66 234 59 300 59 c 0
 443 59 462 72 477 178 c 1
 539 184 l 1
EndSplineSet
Substitution2: "'c2sc' Capitals to Small Capitals lookup 35 subtable" ecircumflex.sc
Substitution2: "'aalt' Access All Alternates lookup 0 subtable" ecircumflex.sc
Position2: "'cpsp' Capital Spacing lookup 0 subtable" dx=10 dy=0 dh=20 dv=0
EndChar

StartChar: uni1EBE
Encoding: 7870 7870 51
Width: 593
GlyphClass: 2
Flags: MW
HStem: 0 59<180 371.5> 295 65<296.5 343> 571 20G<60 60> 575 64<275 302 202 368> 587 52 623 20G<533 533>
VStem: 131 97<101.5 119 92.5 130> 445 65<470 537.5>
AnchorPoint: "Anchor-17" 0 0 basechar 0
AnchorPoint: "Anchor-16" 0 0 basechar 0
AnchorPoint: "Anchor-15" 322 948 basechar 0
AnchorPoint: "Anchor-14" 524 40 basechar 0
AnchorPoint: "Anchor-13" 318 0 basechar 0
LayerCount: 2
Back
SplineSet
446 780 m 1xd3
 434 779 l 1
 403 799 l 1
 465 936 l 1
 477 938 l 1
 528 907 l 1
 530 895 l 1
 446 780 l 1xd3
205 669 m 1
 194 671 l 1
 176 700 l 1
 243 751 319 815 319 815 c 1
 335 815 l 1
 335 815 411 751 478 700 c 1
 460 671 l 1
 449 669 l 1
 403 694 354 718 327 730 c 1
 299 718 252 695 205 669 c 1
539 184 m 1
 544 177 l 1
 534 132 522 57 516 1 c 1
 509 -7 l 1
 394 -3 265 0 203 0 c 0
 157 0 94 -4 49 -10 c 1
 55 45 l 1
 113 53 131 73 131 130 c 2
 132 533 l 2
 132 576 125 587 97 587 c 0xcb
 89 587 74 586 64 585 c 1
 60 591 l 1xe3
 68 642 l 1
 107 641 178 639 226 639 c 0xd3
 378 639 464 642 528 651 c 1
 533 643 l 1xc7
 522 593 513 522 510 470 c 1
 443 465 l 1
 444 477 445 497 445 507 c 0
 445 568 432 575 304 575 c 0
 246 575 242 572 241 538 c 2
 233 361 l 1
 332 360 l 2
 354 360 409 364 452 370 c 1
 457 363 l 1
 443 292 l 1
 408 293 346 295 308 295 c 0
 285 295 255 292 231 289 c 1
 228 119 l 2
 228 66 234 59 300 59 c 0
 443 59 462 72 477 178 c 1
 539 184 l 1
EndSplineSet
Fore
SplineSet
446 780 m 1xd3
 434 779 l 1
 403 799 l 1
 465 936 l 1
 477 938 l 1
 528 907 l 1
 530 895 l 1
 446 780 l 1xd3
205 669 m 1
 194 671 l 1
 176 700 l 1
 243 751 319 815 319 815 c 1
 335 815 l 1
 335 815 411 751 478 700 c 1
 460 671 l 1
 449 669 l 1
 403 694 354 718 327 730 c 1
 299 718 252 695 205 669 c 1
539 184 m 1
 544 177 l 1
 534 132 522 57 516 1 c 1
 509 -7 l 1
 394 -3 265 0 203 0 c 0
 157 0 94 -4 49 -10 c 1
 55 45 l 1
 113 53 131 73 131 130 c 2
 132 533 l 2
 132 576 125 587 97 587 c 0xcb
 89 587 74 586 64 585 c 1
 60 591 l 1xe3
 68 642 l 1
 107 641 178 639 226 639 c 0xd3
 378 639 464 642 528 651 c 1
 533 643 l 1xc7
 522 593 513 522 510 470 c 1
 443 465 l 1
 444 477 445 497 445 507 c 0
 445 568 432 575 304 575 c 0
 246 575 242 572 241 538 c 2
 233 361 l 1
 332 360 l 2
 354 360 409 364 452 370 c 1
 457 363 l 1
 443 292 l 1
 408 293 346 295 308 295 c 0
 285 295 255 292 231 289 c 1
 228 119 l 2
 228 66 234 59 300 59 c 0
 443 59 462 72 477 178 c 1
 539 184 l 1
EndSplineSet
Substitution2: "'c2sc' Capitals to Small Capitals lookup 35 subtable" uni1EBF.sc
Substitution2: "'aalt' Access All Alternates lookup 0 subtable" uni1EBF.sc
Position2: "'cpsp' Capital Spacing lookup 0 subtable" dx=10 dy=0 dh=20 dv=0
EndChar

StartChar: uni1EC6
Encoding: 7878 7878 52
Width: 593
GlyphClass: 2
Flags: MW
HStem: -200 135<282.5 319.5> 0 59<180 371.5> 295 65<296.5 343> 571 20G<60 60> 575 64<275 302 202 368> 587 52 623 20G<533 533> 722 20G<159 159 468 468>
VStem: 131 97<101.5 119 92.5 130> 234 134<-150 -115> 445 65<470 537.5>
AnchorPoint: "Anchor-17" 0 0 basechar 0
AnchorPoint: "Anchor-16" 0 0 basechar 0
AnchorPoint: "Anchor-15" 314 859 basechar 0
AnchorPoint: "Anchor-14" 524 40 basechar 0
AnchorPoint: "Anchor-13" 302 -200 basechar 0
LayerCount: 2
Back
SplineSet
190 710 m 1x69a0
 178 712 l 1
 159 742 l 1
 228 794 305 859 305 859 c 1
 322 859 l 1
 322 860 399 794 468 742 c 1
 450 712 l 1
 438 710 l 1
 391 735 341 759 314 772 c 1
 285 759 238 736 190 710 c 1x69a0
539 184 m 1
 544 177 l 1
 534 132 522 57 516 1 c 1
 509 -7 l 1
 394 -3 265 0 203 0 c 0
 157 0 94 -4 49 -10 c 1
 55 45 l 1
 113 53 131 73 131 130 c 2
 132 533 l 2
 132 576 125 587 97 587 c 0x65a0
 89 587 74 586 64 585 c 1
 60 591 l 1x71a0
 68 642 l 1
 107 641 178 639 226 639 c 0x69a0
 378 639 464 642 528 651 c 1
 533 643 l 1x63a0
 522 593 513 522 510 470 c 1
 443 465 l 1
 444 477 445 497 445 507 c 0
 445 568 432 575 304 575 c 0
 246 575 242 572 241 538 c 2
 233 361 l 1
 332 360 l 2
 354 360 409 364 452 370 c 1
 457 363 l 1
 443 292 l 1
 408 293 346 295 308 295 c 0
 285 295 255 292 231 289 c 1
 228 119 l 2
 228 66 234 59 300 59 c 0
 443 59 462 72 477 178 c 1
 539 184 l 1
304 -65 m 0xe960
 345 -65 368 -93 368 -130 c 0
 368 -170 341 -200 298 -200 c 0
 255 -200 234 -171 234 -135 c 0
 234 -95 261 -65 304 -65 c 0xe960
EndSplineSet
Fore
SplineSet
190 710 m 1x69a0
 178 712 l 1
 159 742 l 1
 228 794 305 859 305 859 c 1
 322 859 l 1
 322 860 399 794 468 742 c 1
 450 712 l 1
 438 710 l 1
 391 735 341 759 314 772 c 1
 285 759 238 736 190 710 c 1x69a0
539 184 m 1
 544 177 l 1
 534 132 522 57 516 1 c 1
 509 -7 l 1
 394 -3 265 0 203 0 c 0
 157 0 94 -4 49 -10 c 1
 55 45 l 1
 113 53 131 73 131 130 c 2
 132 533 l 2
 132 576 125 587 97 587 c 0x65a0
 89 587 74 586 64 585 c 1
 60 591 l 1x71a0
 68 642 l 1
 107 641 178 639 226 639 c 0x69a0
 378 639 464 642 528 651 c 1
 533 643 l 1x63a0
 522 593 513 522 510 470 c 1
 443 465 l 1
 444 477 445 497 445 507 c 0
 445 568 432 575 304 575 c 0
 246 575 242 572 241 538 c 2
 233 361 l 1
 332 360 l 2
 354 360 409 364 452 370 c 1
 457 363 l 1
 443 292 l 1
 408 293 346 295 308 295 c 0
 285 295 255 292 231 289 c 1
 228 119 l 2
 228 66 234 59 300 59 c 0
 443 59 462 72 477 178 c 1
 539 184 l 1
304 -65 m 0xe960
 345 -65 368 -93 368 -130 c 0
 368 -170 341 -200 298 -200 c 0
 255 -200 234 -171 234 -135 c 0
 234 -95 261 -65 304 -65 c 0xe960
EndSplineSet
Substitution2: "'c2sc' Capitals to Small Capitals lookup 35 subtable" uni1EC7.sc
Substitution2: "'aalt' Access All Alternates lookup 0 subtable" uni1EC7.sc
Position2: "'cpsp' Capital Spacing lookup 0 subtable" dx=10 dy=0 dh=20 dv=0
EndChar

StartChar: uni1EC0
Encoding: 7872 7872 53
Width: 593
GlyphClass: 2
Flags: MW
HStem: 0 59<180 371.5> 295 65<296.5 343> 571 20G<60 60> 575 64<275 302 202 368> 587 52 623 20G<533 533>
VStem: 131 97<101.5 119 92.5 130> 445 65<470 537.5>
AnchorPoint: "Anchor-17" 0 0 basechar 0
AnchorPoint: "Anchor-16" 0 0 basechar 0
AnchorPoint: "Anchor-15" 321 956 basechar 0
AnchorPoint: "Anchor-14" 524 40 basechar 0
AnchorPoint: "Anchor-13" 318 0 basechar 0
LayerCount: 2
Back
SplineSet
455 772 m 1xd3
 443 773 l 1
 359 888 l 1
 362 901 l 1
 413 932 l 1
 425 930 l 1
 487 792 l 1
 455 772 l 1xd3
205 669 m 1
 194 671 l 1
 176 700 l 1
 243 751 319 815 319 815 c 1
 335 815 l 1
 335 815 411 751 478 700 c 1
 460 671 l 1
 449 669 l 1
 403 694 354 718 327 730 c 1
 299 718 252 695 205 669 c 1
539 184 m 1
 544 177 l 1
 534 132 522 57 516 1 c 1
 509 -7 l 1
 394 -3 265 0 203 0 c 0
 157 0 94 -4 49 -10 c 1
 55 45 l 1
 113 53 131 73 131 130 c 2
 132 533 l 2
 132 576 125 587 97 587 c 0xcb
 89 587 74 586 64 585 c 1
 60 591 l 1xe3
 68 642 l 1
 107 641 178 639 226 639 c 0xd3
 378 639 464 642 528 651 c 1
 533 643 l 1xc7
 522 593 513 522 510 470 c 1
 443 465 l 1
 444 477 445 497 445 507 c 0
 445 568 432 575 304 575 c 0
 246 575 242 572 241 538 c 2
 233 361 l 1
 332 360 l 2
 354 360 409 364 452 370 c 1
 457 363 l 1
 443 292 l 1
 408 293 346 295 308 295 c 0
 285 295 255 292 231 289 c 1
 228 119 l 2
 228 66 234 59 300 59 c 0
 443 59 462 72 477 178 c 1
 539 184 l 1
EndSplineSet
Fore
SplineSet
455 772 m 1xd3
 443 773 l 1
 359 888 l 1
 362 901 l 1
 413 932 l 1
 425 930 l 1
 487 792 l 1
 455 772 l 1xd3
205 669 m 1
 194 671 l 1
 176 700 l 1
 243 751 319 815 319 815 c 1
 335 815 l 1
 335 815 411 751 478 700 c 1
 460 671 l 1
 449 669 l 1
 403 694 354 718 327 730 c 1
 299 718 252 695 205 669 c 1
539 184 m 1
 544 177 l 1
 534 132 522 57 516 1 c 1
 509 -7 l 1
 394 -3 265 0 203 0 c 0
 157 0 94 -4 49 -10 c 1
 55 45 l 1
 113 53 131 73 131 130 c 2
 132 533 l 2
 132 576 125 587 97 587 c 0xcb
 89 587 74 586 64 585 c 1
 60 591 l 1xe3
 68 642 l 1
 107 641 178 639 226 639 c 0xd3
 378 639 464 642 528 651 c 1
 533 643 l 1xc7
 522 593 513 522 510 470 c 1
 443 465 l 1
 444 477 445 497 445 507 c 0
 445 568 432 575 304 575 c 0
 246 575 242 572 241 538 c 2
 233 361 l 1
 332 360 l 2
 354 360 409 364 452 370 c 1
 457 363 l 1
 443 292 l 1
 408 293 346 295 308 295 c 0
 285 295 255 292 231 289 c 1
 228 119 l 2
 228 66 234 59 300 59 c 0
 443 59 462 72 477 178 c 1
 539 184 l 1
EndSplineSet
Substitution2: "'c2sc' Capitals to Small Capitals lookup 35 subtable" uni1EC1.sc
Substitution2: "'aalt' Access All Alternates lookup 0 subtable" uni1EC1.sc
Position2: "'cpsp' Capital Spacing lookup 0 subtable" dx=10 dy=0 dh=20 dv=0
EndChar

StartChar: uni1EC2
Encoding: 7874 7874 54
Width: 593
GlyphClass: 2
Flags: MW
HStem: 0 59<180 371.5> 295 65<296.5 343> 571 20G<60 60> 575 64<275 302 202 368> 587 52 623 20G<533 533> 906 54<428 430>
VStem: 131 97<101.5 119 92.5 130> 445 65<470 537.5> 453 61<887 890>
AnchorPoint: "Anchor-17" 0 0 basechar 0
AnchorPoint: "Anchor-16" 0 0 basechar 0
AnchorPoint: "Anchor-15" 335 966 basechar 0
AnchorPoint: "Anchor-14" 524 40 basechar 0
AnchorPoint: "Anchor-13" 318 0 basechar 0
LayerCount: 2
Back
SplineSet
420 906 m 0xd340
 392 906 365 888 365 888 c 1
 352 908 l 1
 352 908 390 947 428 960 c 1
 481 960 514 937 514 898 c 0
 514 876 495 849 458 820 c 1
 479 785 l 1
 439 765 l 1
 404 822 l 1
 440 847 453 864 453 882 c 0
 453 898 440 906 420 906 c 0xd340
205 669 m 1
 194 671 l 1
 176 700 l 1
 243 751 319 815 319 815 c 1
 335 815 l 1
 335 815 411 751 478 700 c 1
 460 671 l 1
 449 669 l 1
 403 694 354 718 327 730 c 1
 299 718 252 695 205 669 c 1
539 184 m 1
 544 177 l 1
 534 132 522 57 516 1 c 1
 509 -7 l 1
 394 -3 265 0 203 0 c 0
 157 0 94 -4 49 -10 c 1
 55 45 l 1
 113 53 131 73 131 130 c 2
 132 533 l 2
 132 576 125 587 97 587 c 0xcb40
 89 587 74 586 64 585 c 1
 60 591 l 1xe340
 68 642 l 1
 107 641 178 639 226 639 c 0xd380
 378 639 464 642 528 651 c 1
 533 643 l 1xc780
 522 593 513 522 510 470 c 1
 443 465 l 1
 444 477 445 497 445 507 c 0xd380
 445 568 432 575 304 575 c 0
 246 575 242 572 241 538 c 2
 233 361 l 1
 332 360 l 2
 354 360 409 364 452 370 c 1
 457 363 l 1
 443 292 l 1
 408 293 346 295 308 295 c 0
 285 295 255 292 231 289 c 1
 228 119 l 2
 228 66 234 59 300 59 c 0
 443 59 462 72 477 178 c 1
 539 184 l 1
EndSplineSet
Fore
SplineSet
420 906 m 0xd340
 392 906 365 888 365 888 c 1
 352 908 l 1
 352 908 390 947 428 960 c 1
 481 960 514 937 514 898 c 0
 514 876 495 849 458 820 c 1
 479 785 l 1
 439 765 l 1
 404 822 l 1
 440 847 453 864 453 882 c 0
 453 898 440 906 420 906 c 0xd340
205 669 m 1
 194 671 l 1
 176 700 l 1
 243 751 319 815 319 815 c 1
 335 815 l 1
 335 815 411 751 478 700 c 1
 460 671 l 1
 449 669 l 1
 403 694 354 718 327 730 c 1
 299 718 252 695 205 669 c 1
539 184 m 1
 544 177 l 1
 534 132 522 57 516 1 c 1
 509 -7 l 1
 394 -3 265 0 203 0 c 0
 157 0 94 -4 49 -10 c 1
 55 45 l 1
 113 53 131 73 131 130 c 2
 132 533 l 2
 132 576 125 587 97 587 c 0xcb40
 89 587 74 586 64 585 c 1
 60 591 l 1xe340
 68 642 l 1
 107 641 178 639 226 639 c 0xd380
 378 639 464 642 528 651 c 1
 533 643 l 1xc780
 522 593 513 522 510 470 c 1
 443 465 l 1
 444 477 445 497 445 507 c 0xd380
 445 568 432 575 304 575 c 0
 246 575 242 572 241 538 c 2
 233 361 l 1
 332 360 l 2
 354 360 409 364 452 370 c 1
 457 363 l 1
 443 292 l 1
 408 293 346 295 308 295 c 0
 285 295 255 292 231 289 c 1
 228 119 l 2
 228 66 234 59 300 59 c 0
 443 59 462 72 477 178 c 1
 539 184 l 1
EndSplineSet
Substitution2: "'c2sc' Capitals to Small Capitals lookup 35 subtable" uni1EC3.sc
Substitution2: "'aalt' Access All Alternates lookup 0 subtable" uni1EC3.sc
Position2: "'cpsp' Capital Spacing lookup 0 subtable" dx=10 dy=0 dh=20 dv=0
EndChar

StartChar: uni1EC4
Encoding: 7876 7876 55
Width: 593
GlyphClass: 2
Flags: MW
HStem: 0 59<180 371.5> 295 65<296.5 343> 571 20G<60 60> 575 64<275 302 202 368> 587 52 623 20G<533 533> 835 67<380.5 395> 864 68<258 272.5 258 278.5>
VStem: 131 97<101.5 119 92.5 130> 445 65<470 537.5>
AnchorPoint: "Anchor-17" 0 0 basechar 0
AnchorPoint: "Anchor-16" 0 0 basechar 0
AnchorPoint: "Anchor-15" 327 945 basechar 0
AnchorPoint: "Anchor-14" 524 40 basechar 0
AnchorPoint: "Anchor-13" 318 0 basechar 0
LayerCount: 2
Back
SplineSet
210 822 m 1xd180
 202 822 l 1
 176 847 l 1
 176 853 l 1
 244 929 l 1
 258 932 l 1xd1c0
 287 932 362 902 388 902 c 0
 408 902 443 945 443 945 c 1
 451 945 l 1
 477 920 l 1
 477 914 l 1
 409 838 l 1
 395 835 l 1xd280
 366 835 291 864 266 864 c 0
 244 864 210 822 210 822 c 1xd180
205 669 m 1
 194 671 l 1
 176 700 l 1
 243 751 319 815 319 815 c 1
 335 815 l 1
 335 815 411 751 478 700 c 1
 460 671 l 1
 449 669 l 1
 403 694 354 718 327 730 c 1
 299 718 252 695 205 669 c 1
539 184 m 1
 544 177 l 1
 534 132 522 57 516 1 c 1
 509 -7 l 1
 394 -3 265 0 203 0 c 0
 157 0 94 -4 49 -10 c 1
 55 45 l 1
 113 53 131 73 131 130 c 2
 132 533 l 2
 132 576 125 587 97 587 c 0xc980
 89 587 74 586 64 585 c 1
 60 591 l 1xe180
 68 642 l 1
 107 641 178 639 226 639 c 0xd1c0
 378 639 464 642 528 651 c 1
 533 643 l 1xc5c0
 522 593 513 522 510 470 c 1
 443 465 l 1
 444 477 445 497 445 507 c 0
 445 568 432 575 304 575 c 0
 246 575 242 572 241 538 c 2
 233 361 l 1
 332 360 l 2
 354 360 409 364 452 370 c 1
 457 363 l 1
 443 292 l 1
 408 293 346 295 308 295 c 0
 285 295 255 292 231 289 c 1
 228 119 l 2
 228 66 234 59 300 59 c 0
 443 59 462 72 477 178 c 1
 539 184 l 1
EndSplineSet
Fore
SplineSet
210 822 m 1xd180
 202 822 l 1
 176 847 l 1
 176 853 l 1
 244 929 l 1
 258 932 l 1xd1c0
 287 932 362 902 388 902 c 0
 408 902 443 945 443 945 c 1
 451 945 l 1
 477 920 l 1
 477 914 l 1
 409 838 l 1
 395 835 l 1xd280
 366 835 291 864 266 864 c 0
 244 864 210 822 210 822 c 1xd180
205 669 m 1
 194 671 l 1
 176 700 l 1
 243 751 319 815 319 815 c 1
 335 815 l 1
 335 815 411 751 478 700 c 1
 460 671 l 1
 449 669 l 1
 403 694 354 718 327 730 c 1
 299 718 252 695 205 669 c 1
539 184 m 1
 544 177 l 1
 534 132 522 57 516 1 c 1
 509 -7 l 1
 394 -3 265 0 203 0 c 0
 157 0 94 -4 49 -10 c 1
 55 45 l 1
 113 53 131 73 131 130 c 2
 132 533 l 2
 132 576 125 587 97 587 c 0xc980
 89 587 74 586 64 585 c 1
 60 591 l 1xe180
 68 642 l 1
 107 641 178 639 226 639 c 0xd1c0
 378 639 464 642 528 651 c 1
 533 643 l 1xc5c0
 522 593 513 522 510 470 c 1
 443 465 l 1
 444 477 445 497 445 507 c 0
 445 568 432 575 304 575 c 0
 246 575 242 572 241 538 c 2
 233 361 l 1
 332 360 l 2
 354 360 409 364 452 370 c 1
 457 363 l 1
 443 292 l 1
 408 293 346 295 308 295 c 0
 285 295 255 292 231 289 c 1
 228 119 l 2
 228 66 234 59 300 59 c 0
 443 59 462 72 477 178 c 1
 539 184 l 1
EndSplineSet
Substitution2: "'c2sc' Capitals to Small Capitals lookup 35 subtable" uni1EC5.sc
Substitution2: "'aalt' Access All Alternates lookup 0 subtable" uni1EC5.sc
Position2: "'cpsp' Capital Spacing lookup 0 subtable" dx=10 dy=0 dh=20 dv=0
EndChar

StartChar: uni0204
Encoding: 516 516 56
Width: 593
GlyphClass: 2
Flags: MW
HStem: 0 59<180 371.5> 295 65<296.5 343> 571 20G<60 60> 575 64<275 302 202 368> 587 52 623 20G<533 533>
VStem: 131 97<101.5 119 92.5 130> 445 65<470 537.5>
AnchorPoint: "Anchor-17" 0 0 basechar 0
AnchorPoint: "Anchor-16" 0 0 basechar 0
AnchorPoint: "Anchor-15" 296 846 basechar 0
AnchorPoint: "Anchor-14" 524 40 basechar 0
AnchorPoint: "Anchor-13" 318 0 basechar 0
LayerCount: 2
Back
SplineSet
444 690 m 1xd3
 360 739 278 782 278 782 c 1
 276 792 l 1
 307 843 l 1
 317 846 l 1
 317 846 396 779 469 721 c 1
 454 695 l 1
 444 690 l 1xd3
292 683 m 1
 208 732 126 774 126 774 c 1
 124 785 l 1
 155 835 l 1
 165 839 l 1
 165 839 244 772 317 714 c 1
 301 687 l 1
 292 683 l 1
539 184 m 1
 544 177 l 1
 534 132 522 57 516 1 c 1
 509 -7 l 1
 394 -3 265 0 203 0 c 0
 157 0 94 -4 49 -10 c 1
 55 45 l 1
 113 53 131 73 131 130 c 2
 132 533 l 2
 132 576 125 587 97 587 c 0xcb
 89 587 74 586 64 585 c 1
 60 591 l 1xe3
 68 642 l 1
 107 641 178 639 226 639 c 0xd3
 378 639 464 642 528 651 c 1
 533 643 l 1xc7
 522 593 513 522 510 470 c 1
 443 465 l 1
 444 477 445 497 445 507 c 0
 445 568 432 575 304 575 c 0
 246 575 242 572 241 538 c 2
 233 361 l 1
 332 360 l 2
 354 360 409 364 452 370 c 1
 457 363 l 1
 443 292 l 1
 408 293 346 295 308 295 c 0
 285 295 255 292 231 289 c 1
 228 119 l 2
 228 66 234 59 300 59 c 0
 443 59 462 72 477 178 c 1
 539 184 l 1
EndSplineSet
Fore
SplineSet
444 690 m 1xd3
 360 739 278 782 278 782 c 1
 276 792 l 1
 307 843 l 1
 317 846 l 1
 317 846 396 779 469 721 c 1
 454 695 l 1
 444 690 l 1xd3
292 683 m 1
 208 732 126 774 126 774 c 1
 124 785 l 1
 155 835 l 1
 165 839 l 1
 165 839 244 772 317 714 c 1
 301 687 l 1
 292 683 l 1
539 184 m 1
 544 177 l 1
 534 132 522 57 516 1 c 1
 509 -7 l 1
 394 -3 265 0 203 0 c 0
 157 0 94 -4 49 -10 c 1
 55 45 l 1
 113 53 131 73 131 130 c 2
 132 533 l 2
 132 576 125 587 97 587 c 0xcb
 89 587 74 586 64 585 c 1
 60 591 l 1xe3
 68 642 l 1
 107 641 178 639 226 639 c 0xd3
 378 639 464 642 528 651 c 1
 533 643 l 1xc7
 522 593 513 522 510 470 c 1
 443 465 l 1
 444 477 445 497 445 507 c 0
 445 568 432 575 304 575 c 0
 246 575 242 572 241 538 c 2
 233 361 l 1
 332 360 l 2
 354 360 409 364 452 370 c 1
 457 363 l 1
 443 292 l 1
 408 293 346 295 308 295 c 0
 285 295 255 292 231 289 c 1
 228 119 l 2
 228 66 234 59 300 59 c 0
 443 59 462 72 477 178 c 1
 539 184 l 1
EndSplineSet
Substitution2: "'c2sc' Capitals to Small Capitals lookup 35 subtable" uni0205.sc
Substitution2: "'aalt' Access All Alternates lookup 0 subtable" uni0205.sc
Position2: "'cpsp' Capital Spacing lookup 0 subtable" dx=10 dy=0 dh=20 dv=0
EndChar

StartChar: Edieresis
Encoding: 203 203 57
Width: 593
GlyphClass: 2
Flags: MW
HStem: 0 59<180 371.5> 295 65<296.5 343> 571 20G<60 60> 575 64<275 302 202 368> 587 52 623 20G<533 533> 709 108<215 240 386 411.5>
VStem: 131 97<101.5 119 92.5 130> 174 106<750 775.5> 346 106<750 775.5> 445 65<470 537.5>
AnchorPoint: "Anchor-17" 0 0 basechar 0
AnchorPoint: "Anchor-16" 0 0 basechar 0
AnchorPoint: "Anchor-15" 314 817 basechar 0
AnchorPoint: "Anchor-14" 524 40 basechar 0
AnchorPoint: "Anchor-13" 318 0 basechar 0
LayerCount: 2
Back
SplineSet
223 709 m 0xd2c0
 191 709 174 732 174 759 c 0
 174 792 198 817 232 817 c 0
 263 817 280 794 280 766 c 0
 280 734 257 709 223 709 c 0xd2c0
395 709 m 0
 362 709 346 732 346 759 c 0
 346 792 369 817 403 817 c 0
 435 817 452 794 452 766 c 0
 452 734 428 709 395 709 c 0
539 184 m 1
 544 177 l 1
 534 132 522 57 516 1 c 1
 509 -7 l 1
 394 -3 265 0 203 0 c 0
 157 0 94 -4 49 -10 c 1
 55 45 l 1
 113 53 131 73 131 130 c 2
 132 533 l 2
 132 576 125 587 97 587 c 0xc9
 89 587 74 586 64 585 c 1
 60 591 l 1xe1
 68 642 l 1
 107 641 178 639 226 639 c 0xd120
 378 639 464 642 528 651 c 1
 533 643 l 1xc520
 522 593 513 522 510 470 c 1
 443 465 l 1
 444 477 445 497 445 507 c 0xd120
 445 568 432 575 304 575 c 0
 246 575 242 572 241 538 c 2
 233 361 l 1
 332 360 l 2
 354 360 409 364 452 370 c 1
 457 363 l 1
 443 292 l 1
 408 293 346 295 308 295 c 0
 285 295 255 292 231 289 c 1
 228 119 l 2
 228 66 234 59 300 59 c 0xd140
 443 59 462 72 477 178 c 1
 539 184 l 1
EndSplineSet
Fore
SplineSet
223 709 m 0xd2c0
 191 709 174 732 174 759 c 0
 174 792 198 817 232 817 c 0
 263 817 280 794 280 766 c 0
 280 734 257 709 223 709 c 0xd2c0
395 709 m 0
 362 709 346 732 346 759 c 0
 346 792 369 817 403 817 c 0
 435 817 452 794 452 766 c 0
 452 734 428 709 395 709 c 0
539 184 m 1
 544 177 l 1
 534 132 522 57 516 1 c 1
 509 -7 l 1
 394 -3 265 0 203 0 c 0
 157 0 94 -4 49 -10 c 1
 55 45 l 1
 113 53 131 73 131 130 c 2
 132 533 l 2
 132 576 125 587 97 587 c 0xc9
 89 587 74 586 64 585 c 1
 60 591 l 1xe1
 68 642 l 1
 107 641 178 639 226 639 c 0xd120
 378 639 464 642 528 651 c 1
 533 643 l 1xc520
 522 593 513 522 510 470 c 1
 443 465 l 1
 444 477 445 497 445 507 c 0xd120
 445 568 432 575 304 575 c 0
 246 575 242 572 241 538 c 2
 233 361 l 1
 332 360 l 2
 354 360 409 364 452 370 c 1
 457 363 l 1
 443 292 l 1
 408 293 346 295 308 295 c 0
 285 295 255 292 231 289 c 1
 228 119 l 2
 228 66 234 59 300 59 c 0xd140
 443 59 462 72 477 178 c 1
 539 184 l 1
EndSplineSet
Substitution2: "'c2sc' Capitals to Small Capitals lookup 35 subtable" edieresis.sc
Substitution2: "'aalt' Access All Alternates lookup 0 subtable" edieresis.sc
Position2: "'cpsp' Capital Spacing lookup 0 subtable" dx=10 dy=0 dh=20 dv=0
EndChar

StartChar: Edotaccent
Encoding: 278 278 58
Width: 593
GlyphClass: 2
Flags: MW
HStem: 0 59<180 371.5> 295 65<296.5 343> 571 20G<60 60> 575 64<275 302 202 368> 587 52 623 20G<533 533> 703 129<299 329>
VStem: 131 97<101.5 119 92.5 130> 251 126<752.5 782.5> 445 65<470 537.5>
AnchorPoint: "Anchor-17" 0 0 basechar 0
AnchorPoint: "Anchor-16" 0 0 basechar 0
AnchorPoint: "Anchor-15" 314 832 basechar 0
AnchorPoint: "Anchor-14" 524 40 basechar 0
AnchorPoint: "Anchor-13" 318 0 basechar 0
LayerCount: 2
Back
SplineSet
309 703 m 0xd380
 270 703 251 731 251 763 c 0
 251 802 279 832 319 832 c 0
 356 832 377 805 377 772 c 0
 377 733 349 703 309 703 c 0xd380
539 184 m 1
 544 177 l 1
 534 132 522 57 516 1 c 1
 509 -7 l 1
 394 -3 265 0 203 0 c 0
 157 0 94 -4 49 -10 c 1
 55 45 l 1
 113 53 131 73 131 130 c 2
 132 533 l 2
 132 576 125 587 97 587 c 0xc9
 89 587 74 586 64 585 c 1
 60 591 l 1xe1
 68 642 l 1
 107 641 178 639 226 639 c 0xd140
 378 639 464 642 528 651 c 1
 533 643 l 1xc540
 522 593 513 522 510 470 c 1
 443 465 l 1
 444 477 445 497 445 507 c 0
 445 568 432 575 304 575 c 0
 246 575 242 572 241 538 c 2
 233 361 l 1
 332 360 l 2
 354 360 409 364 452 370 c 1
 457 363 l 1
 443 292 l 1
 408 293 346 295 308 295 c 0
 285 295 255 292 231 289 c 1
 228 119 l 2
 228 66 234 59 300 59 c 0xd140
 443 59 462 72 477 178 c 1
 539 184 l 1
EndSplineSet
Fore
SplineSet
309 703 m 0xd380
 270 703 251 731 251 763 c 0
 251 802 279 832 319 832 c 0
 356 832 377 805 377 772 c 0
 377 733 349 703 309 703 c 0xd380
539 184 m 1
 544 177 l 1
 534 132 522 57 516 1 c 1
 509 -7 l 1
 394 -3 265 0 203 0 c 0
 157 0 94 -4 49 -10 c 1
 55 45 l 1
 113 53 131 73 131 130 c 2
 132 533 l 2
 132 576 125 587 97 587 c 0xc9
 89 587 74 586 64 585 c 1
 60 591 l 1xe1
 68 642 l 1
 107 641 178 639 226 639 c 0xd140
 378 639 464 642 528 651 c 1
 533 643 l 1xc540
 522 593 513 522 510 470 c 1
 443 465 l 1
 444 477 445 497 445 507 c 0
 445 568 432 575 304 575 c 0
 246 575 242 572 241 538 c 2
 233 361 l 1
 332 360 l 2
 354 360 409 364 452 370 c 1
 457 363 l 1
 443 292 l 1
 408 293 346 295 308 295 c 0
 285 295 255 292 231 289 c 1
 228 119 l 2
 228 66 234 59 300 59 c 0xd140
 443 59 462 72 477 178 c 1
 539 184 l 1
EndSplineSet
Substitution2: "'c2sc' Capitals to Small Capitals lookup 35 subtable" edotaccent.sc
Substitution2: "'aalt' Access All Alternates lookup 0 subtable" edotaccent.sc
Position2: "'cpsp' Capital Spacing lookup 0 subtable" dx=10 dy=0 dh=20 dv=0
EndChar

StartChar: uni1EB8
Encoding: 7864 7864 59
Width: 593
GlyphClass: 2
Flags: MW
HStem: -200 135<282.5 319.5> 0 59<180 371.5> 295 65<296.5 343> 571 20G<60 60> 575 64<275 302 202 368> 587 52 623 20G<533 533>
VStem: 131 97<101.5 119 92.5 130> 234 134<-150 -115> 445 65<470 537.5>
AnchorPoint: "Anchor-17" 0 0 basechar 0
AnchorPoint: "Anchor-16" 0 0 basechar 0
AnchorPoint: "Anchor-15" 326 647 basechar 0
AnchorPoint: "Anchor-14" 524 40 basechar 0
AnchorPoint: "Anchor-13" 302 -200 basechar 0
LayerCount: 2
Back
SplineSet
539 184 m 1x6940
 544 177 l 1
 534 132 522 57 516 1 c 1
 509 -7 l 1
 394 -3 265 0 203 0 c 0
 157 0 94 -4 49 -10 c 1
 55 45 l 1
 113 53 131 73 131 130 c 2
 132 533 l 2
 132 576 125 587 97 587 c 0x6540
 89 587 74 586 64 585 c 1
 60 591 l 1x7140
 68 642 l 1
 107 641 178 639 226 639 c 0x6940
 378 639 464 642 528 651 c 1
 533 643 l 1x6340
 522 593 513 522 510 470 c 1
 443 465 l 1
 444 477 445 497 445 507 c 0
 445 568 432 575 304 575 c 0
 246 575 242 572 241 538 c 2
 233 361 l 1
 332 360 l 2
 354 360 409 364 452 370 c 1
 457 363 l 1
 443 292 l 1
 408 293 346 295 308 295 c 0
 285 295 255 292 231 289 c 1
 228 119 l 2
 228 66 234 59 300 59 c 0
 443 59 462 72 477 178 c 1
 539 184 l 1x6940
304 -65 m 0xe8c0
 345 -65 368 -93 368 -130 c 0
 368 -170 341 -200 298 -200 c 0
 255 -200 234 -171 234 -135 c 0
 234 -95 261 -65 304 -65 c 0xe8c0
EndSplineSet
Fore
SplineSet
539 184 m 1x6940
 544 177 l 1
 534 132 522 57 516 1 c 1
 509 -7 l 1
 394 -3 265 0 203 0 c 0
 157 0 94 -4 49 -10 c 1
 55 45 l 1
 113 53 131 73 131 130 c 2
 132 533 l 2
 132 576 125 587 97 587 c 0x6540
 89 587 74 586 64 585 c 1
 60 591 l 1x7140
 68 642 l 1
 107 641 178 639 226 639 c 0x6940
 378 639 464 642 528 651 c 1
 533 643 l 1x6340
 522 593 513 522 510 470 c 1
 443 465 l 1
 444 477 445 497 445 507 c 0
 445 568 432 575 304 575 c 0
 246 575 242 572 241 538 c 2
 233 361 l 1
 332 360 l 2
 354 360 409 364 452 370 c 1
 457 363 l 1
 443 292 l 1
 408 293 346 295 308 295 c 0
 285 295 255 292 231 289 c 1
 228 119 l 2
 228 66 234 59 300 59 c 0
 443 59 462 72 477 178 c 1
 539 184 l 1x6940
304 -65 m 0xe8c0
 345 -65 368 -93 368 -130 c 0
 368 -170 341 -200 298 -200 c 0
 255 -200 234 -171 234 -135 c 0
 234 -95 261 -65 304 -65 c 0xe8c0
EndSplineSet
Substitution2: "'c2sc' Capitals to Small Capitals lookup 35 subtable" uni1EB9.sc
Substitution2: "'aalt' Access All Alternates lookup 0 subtable" uni1EB9.sc
Position2: "'cpsp' Capital Spacing lookup 0 subtable" dx=10 dy=0 dh=20 dv=0
EndChar

StartChar: Egrave
Encoding: 200 200 60
Width: 593
GlyphClass: 2
Flags: MW
HStem: 0 59<180 371.5> 295 65<296.5 343> 571 20G<60 60> 575 64<275 302 202 368> 587 52 623 20G<533 533> 721 20G<394 394>
VStem: 131 97<101.5 119 92.5 130> 445 65<470 537.5>
AnchorPoint: "Anchor-17" 0 0 basechar 0
AnchorPoint: "Anchor-16" 0 0 basechar 0
AnchorPoint: "Anchor-15" 274 848 basechar 0
AnchorPoint: "Anchor-14" 524 40 basechar 0
AnchorPoint: "Anchor-13" 318 0 basechar 0
LayerCount: 2
Back
SplineSet
375 701 m 1xd380
 266 739 159 771 159 771 c 1
 154 782 l 1
 174 842 l 1
 185 848 l 1
 185 848 294 789 394 741 c 1
 385 707 l 1
 375 701 l 1xd380
539 184 m 1
 544 177 l 1
 534 132 522 57 516 1 c 1
 509 -7 l 1
 394 -3 265 0 203 0 c 0
 157 0 94 -4 49 -10 c 1
 55 45 l 1
 113 53 131 73 131 130 c 2
 132 533 l 2
 132 576 125 587 97 587 c 0xcb80
 89 587 74 586 64 585 c 1
 60 591 l 1xe380
 68 642 l 1
 107 641 178 639 226 639 c 0xd380
 378 639 464 642 528 651 c 1
 533 643 l 1xc780
 522 593 513 522 510 470 c 1
 443 465 l 1
 444 477 445 497 445 507 c 0
 445 568 432 575 304 575 c 0
 246 575 242 572 241 538 c 2
 233 361 l 1
 332 360 l 2
 354 360 409 364 452 370 c 1
 457 363 l 1
 443 292 l 1
 408 293 346 295 308 295 c 0
 285 295 255 292 231 289 c 1
 228 119 l 2
 228 66 234 59 300 59 c 0
 443 59 462 72 477 178 c 1
 539 184 l 1
EndSplineSet
Fore
SplineSet
375 701 m 1xd380
 266 739 159 771 159 771 c 1
 154 782 l 1
 174 842 l 1
 185 848 l 1
 185 848 294 789 394 741 c 1
 385 707 l 1
 375 701 l 1xd380
539 184 m 1
 544 177 l 1
 534 132 522 57 516 1 c 1
 509 -7 l 1
 394 -3 265 0 203 0 c 0
 157 0 94 -4 49 -10 c 1
 55 45 l 1
 113 53 131 73 131 130 c 2
 132 533 l 2
 132 576 125 587 97 587 c 0xcb80
 89 587 74 586 64 585 c 1
 60 591 l 1xe380
 68 642 l 1
 107 641 178 639 226 639 c 0xd380
 378 639 464 642 528 651 c 1
 533 643 l 1xc780
 522 593 513 522 510 470 c 1
 443 465 l 1
 444 477 445 497 445 507 c 0
 445 568 432 575 304 575 c 0
 246 575 242 572 241 538 c 2
 233 361 l 1
 332 360 l 2
 354 360 409 364 452 370 c 1
 457 363 l 1
 443 292 l 1
 408 293 346 295 308 295 c 0
 285 295 255 292 231 289 c 1
 228 119 l 2
 228 66 234 59 300 59 c 0
 443 59 462 72 477 178 c 1
 539 184 l 1
EndSplineSet
Substitution2: "'c2sc' Capitals to Small Capitals lookup 35 subtable" egrave.sc
Substitution2: "'aalt' Access All Alternates lookup 0 subtable" egrave.sc
Position2: "'cpsp' Capital Spacing lookup 0 subtable" dx=10 dy=0 dh=20 dv=0
EndChar

StartChar: uni1EBA
Encoding: 7866 7866 61
Width: 593
GlyphClass: 2
Flags: MW
HStem: 0 59<180 371.5> 295 65<296.5 343> 571 20G<60 60> 575 64<275 302 202 368> 587 52 623 20G<533 533> 844 58<308 310>
VStem: 131 97<101.5 119 92.5 130> 335 66<823 826> 445 65<470 537.5>
AnchorPoint: "Anchor-17" 0 0 basechar 0
AnchorPoint: "Anchor-16" 0 0 basechar 0
AnchorPoint: "Anchor-15" 313 902 basechar 0
AnchorPoint: "Anchor-14" 524 40 basechar 0
AnchorPoint: "Anchor-13" 318 0 basechar 0
LayerCount: 2
Back
SplineSet
299 844 m 0xd3c0
 268 844 239 823 239 823 c 1
 225 845 l 1
 225 845 267 887 308 902 c 1
 365 902 401 877 401 835 c 0
 401 811 380 781 340 750 c 1
 363 713 l 1
 319 690 l 1
 282 752 l 1
 321 780 335 798 335 818 c 0
 335 834 321 844 299 844 c 0xd3c0
539 184 m 1
 544 177 l 1
 534 132 522 57 516 1 c 1
 509 -7 l 1
 394 -3 265 0 203 0 c 0
 157 0 94 -4 49 -10 c 1
 55 45 l 1
 113 53 131 73 131 130 c 2
 132 533 l 2
 132 576 125 587 97 587 c 0xcbc0
 89 587 74 586 64 585 c 1
 60 591 l 1xe3c0
 68 642 l 1
 107 641 178 639 226 639 c 0xd3c0
 378 639 464 642 528 651 c 1
 533 643 l 1xc7c0
 522 593 513 522 510 470 c 1
 443 465 l 1
 444 477 445 497 445 507 c 0
 445 568 432 575 304 575 c 0
 246 575 242 572 241 538 c 2
 233 361 l 1
 332 360 l 2
 354 360 409 364 452 370 c 1
 457 363 l 1
 443 292 l 1
 408 293 346 295 308 295 c 0
 285 295 255 292 231 289 c 1
 228 119 l 2
 228 66 234 59 300 59 c 0
 443 59 462 72 477 178 c 1
 539 184 l 1
EndSplineSet
Fore
SplineSet
299 844 m 0xd3c0
 268 844 239 823 239 823 c 1
 225 845 l 1
 225 845 267 887 308 902 c 1
 365 902 401 877 401 835 c 0
 401 811 380 781 340 750 c 1
 363 713 l 1
 319 690 l 1
 282 752 l 1
 321 780 335 798 335 818 c 0
 335 834 321 844 299 844 c 0xd3c0
539 184 m 1
 544 177 l 1
 534 132 522 57 516 1 c 1
 509 -7 l 1
 394 -3 265 0 203 0 c 0
 157 0 94 -4 49 -10 c 1
 55 45 l 1
 113 53 131 73 131 130 c 2
 132 533 l 2
 132 576 125 587 97 587 c 0xcbc0
 89 587 74 586 64 585 c 1
 60 591 l 1xe3c0
 68 642 l 1
 107 641 178 639 226 639 c 0xd3c0
 378 639 464 642 528 651 c 1
 533 643 l 1xc7c0
 522 593 513 522 510 470 c 1
 443 465 l 1
 444 477 445 497 445 507 c 0
 445 568 432 575 304 575 c 0
 246 575 242 572 241 538 c 2
 233 361 l 1
 332 360 l 2
 354 360 409 364 452 370 c 1
 457 363 l 1
 443 292 l 1
 408 293 346 295 308 295 c 0
 285 295 255 292 231 289 c 1
 228 119 l 2
 228 66 234 59 300 59 c 0
 443 59 462 72 477 178 c 1
 539 184 l 1
EndSplineSet
Substitution2: "'c2sc' Capitals to Small Capitals lookup 35 subtable" uni1EBB.sc
Substitution2: "'aalt' Access All Alternates lookup 0 subtable" uni1EBB.sc
Position2: "'cpsp' Capital Spacing lookup 0 subtable" dx=10 dy=0 dh=20 dv=0
EndChar

StartChar: uni0206
Encoding: 518 518 62
Width: 593
GlyphClass: 2
Flags: MW
HStem: 0 59<180 371.5> 295 65<296.5 343> 571 20G<60 60> 575 64<275 302 202 368> 587 52 623 20G<533 533> 791 74<304 347.5>
VStem: 131 97<101.5 119 92.5 130> 445 65<470 537.5>
AnchorPoint: "Anchor-17" 0 0 basechar 0
AnchorPoint: "Anchor-16" 0 0 basechar 0
AnchorPoint: "Anchor-15" 326 865 basechar 0
AnchorPoint: "Anchor-14" 524 40 basechar 0
AnchorPoint: "Anchor-13" 318 0 basechar 0
LayerCount: 2
Back
SplineSet
227 724 m 1xd380
 215 726 l 1
 194 746 l 1
 209 806 250 865 326 865 c 0
 402 865 442 806 458 746 c 1
 437 726 l 1
 425 724 l 1
 407 769 369 791 326 791 c 0
 282 791 244 769 227 724 c 1xd380
539 184 m 1
 544 177 l 1
 534 132 522 57 516 1 c 1
 509 -7 l 1
 394 -3 265 0 203 0 c 0
 157 0 94 -4 49 -10 c 1
 55 45 l 1
 113 53 131 73 131 130 c 2
 132 533 l 2
 132 576 125 587 97 587 c 0xcb80
 89 587 74 586 64 585 c 1
 60 591 l 1xe380
 68 642 l 1
 107 641 178 639 226 639 c 0xd380
 378 639 464 642 528 651 c 1
 533 643 l 1xc780
 522 593 513 522 510 470 c 1
 443 465 l 1
 444 477 445 497 445 507 c 0
 445 568 432 575 304 575 c 0
 246 575 242 572 241 538 c 2
 233 361 l 1
 332 360 l 2
 354 360 409 364 452 370 c 1
 457 363 l 1
 443 292 l 1
 408 293 346 295 308 295 c 0
 285 295 255 292 231 289 c 1
 228 119 l 2
 228 66 234 59 300 59 c 0
 443 59 462 72 477 178 c 1
 539 184 l 1
EndSplineSet
Fore
SplineSet
227 724 m 1xd380
 215 726 l 1
 194 746 l 1
 209 806 250 865 326 865 c 0
 402 865 442 806 458 746 c 1
 437 726 l 1
 425 724 l 1
 407 769 369 791 326 791 c 0
 282 791 244 769 227 724 c 1xd380
539 184 m 1
 544 177 l 1
 534 132 522 57 516 1 c 1
 509 -7 l 1
 394 -3 265 0 203 0 c 0
 157 0 94 -4 49 -10 c 1
 55 45 l 1
 113 53 131 73 131 130 c 2
 132 533 l 2
 132 576 125 587 97 587 c 0xcb80
 89 587 74 586 64 585 c 1
 60 591 l 1xe380
 68 642 l 1
 107 641 178 639 226 639 c 0xd380
 378 639 464 642 528 651 c 1
 533 643 l 1xc780
 522 593 513 522 510 470 c 1
 443 465 l 1
 444 477 445 497 445 507 c 0
 445 568 432 575 304 575 c 0
 246 575 242 572 241 538 c 2
 233 361 l 1
 332 360 l 2
 354 360 409 364 452 370 c 1
 457 363 l 1
 443 292 l 1
 408 293 346 295 308 295 c 0
 285 295 255 292 231 289 c 1
 228 119 l 2
 228 66 234 59 300 59 c 0
 443 59 462 72 477 178 c 1
 539 184 l 1
EndSplineSet
Substitution2: "'c2sc' Capitals to Small Capitals lookup 35 subtable" uni0207.sc
Substitution2: "'aalt' Access All Alternates lookup 0 subtable" uni0207.sc
Position2: "'cpsp' Capital Spacing lookup 0 subtable" dx=10 dy=0 dh=20 dv=0
EndChar

StartChar: Emacron
Encoding: 274 274 63
Width: 593
GlyphClass: 2
Flags: MW
HStem: 0 59<180 371.5> 295 65<296.5 343> 571 20G<60 60> 575 64<275 302 202 368> 587 52 623 20G<533 533> 715 66<299.5 314> 776 11<457 464>
VStem: 131 97<101.5 119 92.5 130> 445 65<470 537.5>
AnchorPoint: "Anchor-17" 0 0 basechar 0
AnchorPoint: "Anchor-16" 0 0 basechar 0
AnchorPoint: "Anchor-15" 314 761 basechar 0
AnchorPoint: "Anchor-14" 524 40 basechar 0
AnchorPoint: "Anchor-13" 318 0 basechar 0
LayerCount: 2
Back
SplineSet
314 715 m 2xd280
 255 715 172 714 172 714 c 1
 164 724 l 1
 175 782 l 1
 175 782 270 781 329 781 c 0xd280
 379 781 457 787 457 787 c 1
 464 776 l 1xd180
 455 716 l 1
 314 715 l 2xd280
539 184 m 1
 544 177 l 1
 534 132 522 57 516 1 c 1
 509 -7 l 1
 394 -3 265 0 203 0 c 0
 157 0 94 -4 49 -10 c 1
 55 45 l 1
 113 53 131 73 131 130 c 2
 132 533 l 2
 132 576 125 587 97 587 c 0xca80
 89 587 74 586 64 585 c 1
 60 591 l 1xe280
 68 642 l 1
 107 641 178 639 226 639 c 0xd2c0
 378 639 464 642 528 651 c 1
 533 643 l 1xc6c0
 522 593 513 522 510 470 c 1
 443 465 l 1
 444 477 445 497 445 507 c 0xd2c0
 445 568 432 575 304 575 c 0
 246 575 242 572 241 538 c 2
 233 361 l 1
 332 360 l 2
 354 360 409 364 452 370 c 1
 457 363 l 1
 443 292 l 1
 408 293 346 295 308 295 c 0
 285 295 255 292 231 289 c 1
 228 119 l 2
 228 66 234 59 300 59 c 0
 443 59 462 72 477 178 c 1
 539 184 l 1
EndSplineSet
Fore
SplineSet
314 715 m 2xd280
 255 715 172 714 172 714 c 1
 164 724 l 1
 175 782 l 1
 175 782 270 781 329 781 c 0xd280
 379 781 457 787 457 787 c 1
 464 776 l 1xd180
 455 716 l 1
 314 715 l 2xd280
539 184 m 1
 544 177 l 1
 534 132 522 57 516 1 c 1
 509 -7 l 1
 394 -3 265 0 203 0 c 0
 157 0 94 -4 49 -10 c 1
 55 45 l 1
 113 53 131 73 131 130 c 2
 132 533 l 2
 132 576 125 587 97 587 c 0xca80
 89 587 74 586 64 585 c 1
 60 591 l 1xe280
 68 642 l 1
 107 641 178 639 226 639 c 0xd2c0
 378 639 464 642 528 651 c 1
 533 643 l 1xc6c0
 522 593 513 522 510 470 c 1
 443 465 l 1
 444 477 445 497 445 507 c 0xd2c0
 445 568 432 575 304 575 c 0
 246 575 242 572 241 538 c 2
 233 361 l 1
 332 360 l 2
 354 360 409 364 452 370 c 1
 457 363 l 1
 443 292 l 1
 408 293 346 295 308 295 c 0
 285 295 255 292 231 289 c 1
 228 119 l 2
 228 66 234 59 300 59 c 0
 443 59 462 72 477 178 c 1
 539 184 l 1
EndSplineSet
Substitution2: "'c2sc' Capitals to Small Capitals lookup 35 subtable" emacron.sc
Substitution2: "'aalt' Access All Alternates lookup 0 subtable" emacron.sc
Position2: "'cpsp' Capital Spacing lookup 0 subtable" dx=10 dy=0 dh=20 dv=0
EndChar

StartChar: uni1E16
Encoding: 7702 7702 64
Width: 593
GlyphClass: 2
Flags: MW
HStem: 0 59<180 371.5> 295 65<296.5 343> 571 20G<60 60> 575 64<275 302 202 368> 587 52 623 20G<533 533> 718 67<311.5 325> 779 12<469 476>
VStem: 131 97<101.5 119 92.5 130> 445 65<470 537.5>
AnchorPoint: "Anchor-17" 0 0 basechar 0
AnchorPoint: "Anchor-16" 0 0 basechar 0
AnchorPoint: "Anchor-15" 326 964 basechar 0
AnchorPoint: "Anchor-14" 524 40 basechar 0
AnchorPoint: "Anchor-13" 318 0 basechar 0
LayerCount: 2
Back
SplineSet
223 824 m 1xd280
 213 830 l 1
 204 864 l 1
 304 912 413 971 413 971 c 1
 423 965 l 1
 443 905 l 1
 439 894 l 1
 439 894 332 862 223 824 c 1xd280
325 718 m 2
 266 718 183 717 183 717 c 1
 175 728 l 1
 187 786 l 1
 187 786 282 785 341 785 c 0
 391 785 469 791 469 791 c 1xd280
 476 779 l 1xd180
 467 719 l 1
 325 718 l 2
539 184 m 1
 544 177 l 1
 534 132 522 57 516 1 c 1
 509 -7 l 1
 394 -3 265 0 203 0 c 0
 157 0 94 -4 49 -10 c 1
 55 45 l 1
 113 53 131 73 131 130 c 2
 132 533 l 2
 132 576 125 587 97 587 c 0xca80
 89 587 74 586 64 585 c 1
 60 591 l 1xe280
 68 642 l 1
 107 641 178 639 226 639 c 0xd2c0
 378 639 464 642 528 651 c 1
 533 643 l 1xc6c0
 522 593 513 522 510 470 c 1
 443 465 l 1
 444 477 445 497 445 507 c 0xd2c0
 445 568 432 575 304 575 c 0
 246 575 242 572 241 538 c 2
 233 361 l 1
 332 360 l 2
 354 360 409 364 452 370 c 1
 457 363 l 1
 443 292 l 1
 408 293 346 295 308 295 c 0
 285 295 255 292 231 289 c 1
 228 119 l 2
 228 66 234 59 300 59 c 0
 443 59 462 72 477 178 c 1
 539 184 l 1
EndSplineSet
Fore
SplineSet
223 824 m 1xd280
 213 830 l 1
 204 864 l 1
 304 912 413 971 413 971 c 1
 423 965 l 1
 443 905 l 1
 439 894 l 1
 439 894 332 862 223 824 c 1xd280
325 718 m 2
 266 718 183 717 183 717 c 1
 175 728 l 1
 187 786 l 1
 187 786 282 785 341 785 c 0
 391 785 469 791 469 791 c 1xd280
 476 779 l 1xd180
 467 719 l 1
 325 718 l 2
539 184 m 1
 544 177 l 1
 534 132 522 57 516 1 c 1
 509 -7 l 1
 394 -3 265 0 203 0 c 0
 157 0 94 -4 49 -10 c 1
 55 45 l 1
 113 53 131 73 131 130 c 2
 132 533 l 2
 132 576 125 587 97 587 c 0xca80
 89 587 74 586 64 585 c 1
 60 591 l 1xe280
 68 642 l 1
 107 641 178 639 226 639 c 0xd2c0
 378 639 464 642 528 651 c 1
 533 643 l 1xc6c0
 522 593 513 522 510 470 c 1
 443 465 l 1
 444 477 445 497 445 507 c 0xd2c0
 445 568 432 575 304 575 c 0
 246 575 242 572 241 538 c 2
 233 361 l 1
 332 360 l 2
 354 360 409 364 452 370 c 1
 457 363 l 1
 443 292 l 1
 408 293 346 295 308 295 c 0
 285 295 255 292 231 289 c 1
 228 119 l 2
 228 66 234 59 300 59 c 0
 443 59 462 72 477 178 c 1
 539 184 l 1
EndSplineSet
Substitution2: "'c2sc' Capitals to Small Capitals lookup 35 subtable" uni1E17.sc
Substitution2: "'aalt' Access All Alternates lookup 0 subtable" uni1E17.sc
Position2: "'cpsp' Capital Spacing lookup 0 subtable" dx=10 dy=0 dh=20 dv=0
EndChar

StartChar: uni1E14
Encoding: 7700 7700 65
Width: 593
GlyphClass: 2
Flags: MW
HStem: 0 59<180 371.5> 295 65<296.5 343> 571 20G<60 60> 575 64<275 302 202 368> 587 52 623 20G<533 533> 718 67<311.5 325> 779 12<469 476>
VStem: 131 97<101.5 119 92.5 130> 445 65<470 537.5>
AnchorPoint: "Anchor-17" 0 0 basechar 0
AnchorPoint: "Anchor-16" 0 0 basechar 0
AnchorPoint: "Anchor-15" 326 964 basechar 0
AnchorPoint: "Anchor-14" 524 40 basechar 0
AnchorPoint: "Anchor-13" 318 0 basechar 0
LayerCount: 2
Back
SplineSet
434 824 m 1xd280
 325 862 218 894 218 894 c 1
 214 905 l 1
 234 965 l 1
 244 971 l 1
 244 971 354 912 454 864 c 1
 445 830 l 1
 434 824 l 1xd280
325 718 m 2
 266 718 183 717 183 717 c 1
 175 728 l 1
 187 786 l 1
 187 786 282 785 341 785 c 0
 391 785 469 791 469 791 c 1xd280
 476 779 l 1xd180
 467 719 l 1
 325 718 l 2
539 184 m 1
 544 177 l 1
 534 132 522 57 516 1 c 1
 509 -7 l 1
 394 -3 265 0 203 0 c 0
 157 0 94 -4 49 -10 c 1
 55 45 l 1
 113 53 131 73 131 130 c 2
 132 533 l 2
 132 576 125 587 97 587 c 0xca80
 89 587 74 586 64 585 c 1
 60 591 l 1xe280
 68 642 l 1
 107 641 178 639 226 639 c 0xd2c0
 378 639 464 642 528 651 c 1
 533 643 l 1xc6c0
 522 593 513 522 510 470 c 1
 443 465 l 1
 444 477 445 497 445 507 c 0xd2c0
 445 568 432 575 304 575 c 0
 246 575 242 572 241 538 c 2
 233 361 l 1
 332 360 l 2
 354 360 409 364 452 370 c 1
 457 363 l 1
 443 292 l 1
 408 293 346 295 308 295 c 0
 285 295 255 292 231 289 c 1
 228 119 l 2
 228 66 234 59 300 59 c 0
 443 59 462 72 477 178 c 1
 539 184 l 1
EndSplineSet
Fore
SplineSet
434 824 m 1xd280
 325 862 218 894 218 894 c 1
 214 905 l 1
 234 965 l 1
 244 971 l 1
 244 971 354 912 454 864 c 1
 445 830 l 1
 434 824 l 1xd280
325 718 m 2
 266 718 183 717 183 717 c 1
 175 728 l 1
 187 786 l 1
 187 786 282 785 341 785 c 0
 391 785 469 791 469 791 c 1xd280
 476 779 l 1xd180
 467 719 l 1
 325 718 l 2
539 184 m 1
 544 177 l 1
 534 132 522 57 516 1 c 1
 509 -7 l 1
 394 -3 265 0 203 0 c 0
 157 0 94 -4 49 -10 c 1
 55 45 l 1
 113 53 131 73 131 130 c 2
 132 533 l 2
 132 576 125 587 97 587 c 0xca80
 89 587 74 586 64 585 c 1
 60 591 l 1xe280
 68 642 l 1
 107 641 178 639 226 639 c 0xd2c0
 378 639 464 642 528 651 c 1
 533 643 l 1xc6c0
 522 593 513 522 510 470 c 1
 443 465 l 1
 444 477 445 497 445 507 c 0xd2c0
 445 568 432 575 304 575 c 0
 246 575 242 572 241 538 c 2
 233 361 l 1
 332 360 l 2
 354 360 409 364 452 370 c 1
 457 363 l 1
 443 292 l 1
 408 293 346 295 308 295 c 0
 285 295 255 292 231 289 c 1
 228 119 l 2
 228 66 234 59 300 59 c 0
 443 59 462 72 477 178 c 1
 539 184 l 1
EndSplineSet
Substitution2: "'c2sc' Capitals to Small Capitals lookup 35 subtable" uni1E15.sc
Substitution2: "'aalt' Access All Alternates lookup 0 subtable" uni1E15.sc
Position2: "'cpsp' Capital Spacing lookup 0 subtable" dx=10 dy=0 dh=20 dv=0
EndChar

StartChar: Eogonek
Encoding: 280 280 66
Width: 593
GlyphClass: 2
Flags: MW
HStem: -241 68<430.5 434> -6 187 0 59<180 371.5> 295 65<296.5 343> 571 20G<60 60> 575 64<275 302 202 368> 587 52 623 20G<533 533>
VStem: 131 97<101.5 119 92.5 130> 320 75<-138.5 -128.5> 445 65<470 537.5>
AnchorPoint: "Anchor-17" 0 0 basechar 0
AnchorPoint: "Anchor-16" 0 0 basechar 0
AnchorPoint: "Anchor-15" 326 647 basechar 0
AnchorPoint: "Anchor-14" 524 40 basechar 0
AnchorPoint: "Anchor-13" 318 0 basechar 0
LayerCount: 2
Back
SplineSet
446 -173 m 0xb4c0
 468 -173 498 -163 519 -150 c 1
 536 -176 l 1
 505 -206 464 -232 434 -241 c 1
 366 -241 320 -203 320 -148 c 0
 320 -109 334 -83 409 -4 c 1
 326 -2 247 0 203 0 c 0
 157 0 94 -4 49 -10 c 1
 55 45 l 1
 113 53 131 73 131 130 c 2
 132 533 l 2
 132 576 125 587 97 587 c 0xb2c0
 89 587 74 586 64 585 c 1
 60 591 l 1xb8c0
 68 642 l 1
 107 641 178 639 226 639 c 0xb4e0
 378 639 464 642 528 651 c 1
 533 643 l 1xb1e0
 522 593 513 522 510 470 c 1
 443 465 l 1
 444 477 445 497 445 507 c 0
 445 568 432 575 304 575 c 0
 246 575 242 572 241 538 c 2
 233 361 l 1
 332 360 l 2
 354 360 409 364 452 370 c 1
 457 363 l 1
 443 292 l 1
 408 293 346 295 308 295 c 0
 285 295 255 292 231 289 c 1
 228 119 l 2
 228 66 234 59 300 59 c 0xb4e0
 443 59 462 72 477 178 c 1
 539 184 l 1
 544 177 l 1
 534 132 522 57 516 1 c 1
 509 -7 l 1
 493 -6 478 -6 462 -5 c 1xd4c0
 409 -67 395 -94 395 -123 c 0
 395 -154 415 -173 446 -173 c 0xb4c0
EndSplineSet
Fore
SplineSet
446 -173 m 0xb4c0
 468 -173 498 -163 519 -150 c 1
 536 -176 l 1
 505 -206 464 -232 434 -241 c 1
 366 -241 320 -203 320 -148 c 0
 320 -109 334 -83 409 -4 c 1
 326 -2 247 0 203 0 c 0
 157 0 94 -4 49 -10 c 1
 55 45 l 1
 113 53 131 73 131 130 c 2
 132 533 l 2
 132 576 125 587 97 587 c 0xb2c0
 89 587 74 586 64 585 c 1
 60 591 l 1xb8c0
 68 642 l 1
 107 641 178 639 226 639 c 0xb4e0
 378 639 464 642 528 651 c 1
 533 643 l 1xb1e0
 522 593 513 522 510 470 c 1
 443 465 l 1
 444 477 445 497 445 507 c 0
 445 568 432 575 304 575 c 0
 246 575 242 572 241 538 c 2
 233 361 l 1
 332 360 l 2
 354 360 409 364 452 370 c 1
 457 363 l 1
 443 292 l 1
 408 293 346 295 308 295 c 0
 285 295 255 292 231 289 c 1
 228 119 l 2
 228 66 234 59 300 59 c 0xb4e0
 443 59 462 72 477 178 c 1
 539 184 l 1
 544 177 l 1
 534 132 522 57 516 1 c 1
 509 -7 l 1
 493 -6 478 -6 462 -5 c 1xd4c0
 409 -67 395 -94 395 -123 c 0
 395 -154 415 -173 446 -173 c 0xb4c0
EndSplineSet
Substitution2: "'c2sc' Capitals to Small Capitals lookup 35 subtable" eogonek.sc
Substitution2: "'aalt' Access All Alternates lookup 0 subtable" eogonek.sc
Position2: "'cpsp' Capital Spacing lookup 0 subtable" dx=10 dy=0 dh=20 dv=0
EndChar

StartChar: uni1EBC
Encoding: 7868 7868 67
Width: 593
GlyphClass: 2
Flags: MW
HStem: 0 59<180 371.5> 295 65<296.5 343> 571 20G<60 60> 575 64<275 302 202 368> 587 52 623 20G<533 533> 709 77<375.5 392> 742 78<236 253 236 259>
VStem: 131 97<101.5 119 92.5 130> 445 65<470 537.5>
AnchorPoint: "Anchor-17" 0 0 basechar 0
AnchorPoint: "Anchor-16" 0 0 basechar 0
AnchorPoint: "Anchor-15" 315 826 basechar 0
AnchorPoint: "Anchor-14" 524 40 basechar 0
AnchorPoint: "Anchor-13" 318 0 basechar 0
LayerCount: 2
Back
SplineSet
181 694 m 1xd180
 173 694 l 1
 143 722 l 1
 143 729 l 1
 220 816 l 1
 236 820 l 1xd1c0
 270 820 356 786 384 786 c 0
 407 786 448 834 448 834 c 1
 456 834 l 1
 486 806 l 1
 486 799 l 1
 408 713 l 1
 392 709 l 1xd280
 359 709 273 742 245 742 c 0
 220 742 181 694 181 694 c 1xd180
539 184 m 1
 544 177 l 1
 534 132 522 57 516 1 c 1
 509 -7 l 1
 394 -3 265 0 203 0 c 0
 157 0 94 -4 49 -10 c 1
 55 45 l 1
 113 53 131 73 131 130 c 2
 132 533 l 2
 132 576 125 587 97 587 c 0xc980
 89 587 74 586 64 585 c 1
 60 591 l 1xe180
 68 642 l 1
 107 641 178 639 226 639 c 0xd1c0
 378 639 464 642 528 651 c 1
 533 643 l 1xc5c0
 522 593 513 522 510 470 c 1
 443 465 l 1
 444 477 445 497 445 507 c 0
 445 568 432 575 304 575 c 0
 246 575 242 572 241 538 c 2
 233 361 l 1
 332 360 l 2
 354 360 409 364 452 370 c 1
 457 363 l 1
 443 292 l 1
 408 293 346 295 308 295 c 0
 285 295 255 292 231 289 c 1
 228 119 l 2
 228 66 234 59 300 59 c 0
 443 59 462 72 477 178 c 1
 539 184 l 1
EndSplineSet
Fore
SplineSet
181 694 m 1xd180
 173 694 l 1
 143 722 l 1
 143 729 l 1
 220 816 l 1
 236 820 l 1xd1c0
 270 820 356 786 384 786 c 0
 407 786 448 834 448 834 c 1
 456 834 l 1
 486 806 l 1
 486 799 l 1
 408 713 l 1
 392 709 l 1xd280
 359 709 273 742 245 742 c 0
 220 742 181 694 181 694 c 1xd180
539 184 m 1
 544 177 l 1
 534 132 522 57 516 1 c 1
 509 -7 l 1
 394 -3 265 0 203 0 c 0
 157 0 94 -4 49 -10 c 1
 55 45 l 1
 113 53 131 73 131 130 c 2
 132 533 l 2
 132 576 125 587 97 587 c 0xc980
 89 587 74 586 64 585 c 1
 60 591 l 1xe180
 68 642 l 1
 107 641 178 639 226 639 c 0xd1c0
 378 639 464 642 528 651 c 1
 533 643 l 1xc5c0
 522 593 513 522 510 470 c 1
 443 465 l 1
 444 477 445 497 445 507 c 0
 445 568 432 575 304 575 c 0
 246 575 242 572 241 538 c 2
 233 361 l 1
 332 360 l 2
 354 360 409 364 452 370 c 1
 457 363 l 1
 443 292 l 1
 408 293 346 295 308 295 c 0
 285 295 255 292 231 289 c 1
 228 119 l 2
 228 66 234 59 300 59 c 0
 443 59 462 72 477 178 c 1
 539 184 l 1
EndSplineSet
Ligature2: "'liga' Standard Ligatures lookup 39 subtable" tilde E
Ligature2: "'liga' Standard Ligatures lookup 39 subtable" tildecomb E
Ligature2: "'liga' Standard Ligatures lookup 39 subtable" asciitilde E
Substitution2: "'c2sc' Capitals to Small Capitals lookup 35 subtable" uni1EBD.sc
Substitution2: "'aalt' Access All Alternates lookup 0 subtable" uni1EBD.sc
Position2: "'cpsp' Capital Spacing lookup 0 subtable" dx=10 dy=0 dh=20 dv=0
EndChar

StartChar: uni01B7
Encoding: 439 439 68
Width: 556
GlyphClass: 2
Flags: MW
HStem: -12 68<217 302.5 217 316.5> 184 9.5 297 7<213 223.5> 298 61<241 305> 554 86 554 95 590 50
VStem: 73 63 84 52 393 119<138.5 222>
AnchorPoint: "Anchor-17" 0 0 basechar 0
AnchorPoint: "Anchor-16" 0 0 basechar 0
AnchorPoint: "Anchor-15" 295 639 basechar 0
AnchorPoint: "Anchor-14" 0 0 basechar 0
AnchorPoint: "Anchor-13" 276 0 basechar 0
LayerCount: 2
Back
SplineSet
305 359 m 1xd340
 439 348 512 289 512 190 c 0
 512 67 398 -12 235 -12 c 0
 189 -12 135 -6 75 6 c 1
 69 14 l 1
 72 44 73 65 73 94 c 0
 73 116 72 144 71 184 c 1
 80 192 l 1
 136 195 l 1xe940
 135 99 174 56 260 56 c 0
 345 56 393 97 393 180 c 0
 393 264 345 298 245 298 c 0
 237 298 228 297 219 297 c 1
 213 304 l 1
 218 349 l 1
 395 554 l 1
 220 554 l 2xe8c0
 158 554 145 537 136 449 c 1
 69 446 l 1
 77 489 83 563 84 640 c 1
 94 649 l 1xe4c0
 260 640 l 1
 490 639 l 1xe940
 506 590 l 1
 305 359 l 1xd340
EndSplineSet
Fore
SplineSet
305 359 m 1xd340
 439 348 512 289 512 190 c 0
 512 67 398 -12 235 -12 c 0
 189 -12 135 -6 75 6 c 1
 69 14 l 1
 72 44 73 65 73 94 c 0
 73 116 72 144 71 184 c 1
 80 192 l 1
 136 195 l 1xe940
 135 99 174 56 260 56 c 0
 345 56 393 97 393 180 c 0
 393 264 345 298 245 298 c 0
 237 298 228 297 219 297 c 1
 213 304 l 1
 218 349 l 1
 395 554 l 1
 220 554 l 2xe8c0
 158 554 145 537 136 449 c 1
 69 446 l 1
 77 489 83 563 84 640 c 1
 94 649 l 1xe4c0
 260 640 l 1
 490 639 l 1xe940
 506 590 l 1
 305 359 l 1xd340
EndSplineSet
Substitution2: "'c2sc' Capitals to Small Capitals lookup 35 subtable" uni0292.sc
Substitution2: "'aalt' Access All Alternates lookup 0 subtable" uni0292.sc
EndChar

StartChar: uni01EE
Encoding: 494 494 69
Width: 556
GlyphClass: 2
Flags: MW
HStem: -12 68<217 302.5 217 316.5> 184 9.5 297 7<213 223.5> 298 61<241 305> 554 86 554 95 590 50
VStem: 73 63 84 52 393 119<138.5 222>
AnchorPoint: "Anchor-17" 0 0 basechar 0
AnchorPoint: "Anchor-16" 0 0 basechar 0
AnchorPoint: "Anchor-15" 295 774 basechar 0
AnchorPoint: "Anchor-14" 0 0 basechar 0
AnchorPoint: "Anchor-13" 276 0 basechar 0
LayerCount: 2
Back
SplineSet
303 701 m 1xe940
 287 701 l 1
 287 701 209 766 141 817 c 1
 159 848 l 1
 171 850 l 1
 218 824 267 800 295 788 c 1
 323 800 371 824 419 850 c 1
 431 848 l 1
 449 817 l 1
 380 766 303 701 303 701 c 1xe940
305 359 m 1xd340
 439 348 512 289 512 190 c 0
 512 67 398 -12 235 -12 c 0
 189 -12 135 -6 75 6 c 1
 69 14 l 1
 72 44 73 65 73 94 c 0
 73 116 72 144 71 184 c 1
 80 192 l 1
 136 195 l 1xe940
 135 99 174 56 260 56 c 0
 345 56 393 97 393 180 c 0
 393 264 345 298 245 298 c 0
 237 298 228 297 219 297 c 1
 213 304 l 1
 218 349 l 1
 395 554 l 1
 220 554 l 2xe8c0
 158 554 145 537 136 449 c 1
 69 446 l 1
 77 489 83 563 84 640 c 1
 94 649 l 1xe4c0
 260 640 l 1
 490 639 l 1xe940
 506 590 l 1
 305 359 l 1xd340
EndSplineSet
Fore
SplineSet
303 701 m 1xe940
 287 701 l 1
 287 701 209 766 141 817 c 1
 159 848 l 1
 171 850 l 1
 218 824 267 800 295 788 c 1
 323 800 371 824 419 850 c 1
 431 848 l 1
 449 817 l 1
 380 766 303 701 303 701 c 1xe940
305 359 m 1xd340
 439 348 512 289 512 190 c 0
 512 67 398 -12 235 -12 c 0
 189 -12 135 -6 75 6 c 1
 69 14 l 1
 72 44 73 65 73 94 c 0
 73 116 72 144 71 184 c 1
 80 192 l 1
 136 195 l 1xe940
 135 99 174 56 260 56 c 0
 345 56 393 97 393 180 c 0
 393 264 345 298 245 298 c 0
 237 298 228 297 219 297 c 1
 213 304 l 1
 218 349 l 1
 395 554 l 1
 220 554 l 2xe8c0
 158 554 145 537 136 449 c 1
 69 446 l 1
 77 489 83 563 84 640 c 1
 94 649 l 1xe4c0
 260 640 l 1
 490 639 l 1xe940
 506 590 l 1
 305 359 l 1xd340
EndSplineSet
Substitution2: "'c2sc' Capitals to Small Capitals lookup 35 subtable" uni01EF.sc
Substitution2: "'aalt' Access All Alternates lookup 0 subtable" uni01EF.sc
EndChar

StartChar: F
Encoding: 70 70 70
Width: 521
GlyphClass: 2
Flags: MW
HStem: 0 59<152.5 282> 278 65<293 347.5> 571 20G<60 60> 575 64<275 292 193 358.5> 587 52 643 8<507 512>
VStem: 131 97<101.5 125 98.5 130>
AnchorPoint: "Anchor-17" 0 0 basechar 0
AnchorPoint: "Anchor-16" 0 0 basechar 0
AnchorPoint: "Anchor-15" 318 647 basechar 0
AnchorPoint: "Anchor-14" 0 0 basechar 0
AnchorPoint: "Anchor-13" 182 0 basechar 0
LayerCount: 2
Back
SplineSet
49 -12 m 1xd2
 55 44 l 1
 115 55 131 73 131 130 c 2
 132 533 l 2
 132 576 125 587 97 587 c 0xca
 85 587 64 585 64 585 c 1
 60 591 l 1
 68 642 l 1xe2
 68 642 160 639 226 639 c 0xd2
 358 639 447 642 507 651 c 1
 512 643 l 1xc6
 512 643 496 560 490 468 c 1
 424 463 l 1
 424 463 426 493 426 507 c 0
 426 567 413 575 304 575 c 0
 246 575 242 572 241 538 c 2
 233 344 l 1
 332 343 l 2
 363 343 437 353 437 353 c 1
 443 346 l 1
 429 275 l 1
 429 275 354 278 308 278 c 0
 278 278 248 274 231 271 c 1
 228 125 l 2
 228 72 236 59 271 59 c 0
 293 59 340 63 340 63 c 1
 344 56 l 1
 335 -4 l 1
 335 -4 235 0 183 0 c 0
 122 0 49 -12 49 -12 c 1xd2
EndSplineSet
Fore
SplineSet
49 -12 m 1xd2
 55 44 l 1
 115 55 131 73 131 130 c 2
 132 533 l 2
 132 576 125 587 97 587 c 0xca
 85 587 64 585 64 585 c 1
 60 591 l 1
 68 642 l 1xe2
 68 642 160 639 226 639 c 0xd2
 358 639 447 642 507 651 c 1
 512 643 l 1xc6
 512 643 496 560 490 468 c 1
 424 463 l 1
 424 463 426 493 426 507 c 0
 426 567 413 575 304 575 c 0
 246 575 242 572 241 538 c 2
 233 344 l 1
 332 343 l 2
 363 343 437 353 437 353 c 1
 443 346 l 1
 429 275 l 1
 429 275 354 278 308 278 c 0
 278 278 248 274 231 271 c 1
 228 125 l 2
 228 72 236 59 271 59 c 0
 293 59 340 63 340 63 c 1
 344 56 l 1
 335 -4 l 1
 335 -4 235 0 183 0 c 0
 122 0 49 -12 49 -12 c 1xd2
EndSplineSet
Substitution2: "'c2sc' Capitals to Small Capitals lookup 35 subtable" f.sc
Substitution2: "'aalt' Access All Alternates lookup 0 subtable" f.sc
Position2: "'cpsp' Capital Spacing lookup 0 subtable" dx=10 dy=0 dh=20 dv=0
EndChar

StartChar: G
Encoding: 71 71 71
Width: 661
GlyphClass: 2
Flags: MW
HStem: -12 69<291 388.5 291 397> 251 62<361 522.5> 576 75<296 411.5>
VStem: 35 116<247.5 406.5> 473 89<111.5 182.5>
AnchorPoint: "Anchor-17" 0 0 basechar 0
AnchorPoint: "Anchor-16" 0 0 basechar 0
AnchorPoint: "Anchor-15" 372 639 basechar 0
AnchorPoint: "Anchor-14" 0 0 basechar 0
AnchorPoint: "Anchor-13" 331 0 basechar 0
LayerCount: 2
Back
SplineSet
330 -12 m 0
 149 -12 35 108 35 300 c 0
 35 513 174 651 388 651 c 0
 473 651 584 627 584 627 c 1
 589 618 l 1
 589 618 569 541 563 444 c 1
 494 439 l 1
 494 439 497 465 497 493 c 0
 497 552 458 576 365 576 c 0
 227 576 151 492 151 333 c 0
 151 162 229 57 353 57 c 0
 424 57 473 90 473 90 c 1
 473 199 l 2
 473 242 463 251 423 251 c 2
 361 251 l 1
 358 257 l 1
 367 316 l 1
 378 316 442 313 500 313 c 0
 545 313 592 318 592 318 c 1
 598 288 l 1
 569 267 562 235 562 130 c 0
 562 93 565 60 569 42 c 1
 562 32 l 1
 562 32 464 -12 330 -12 c 0
EndSplineSet
Fore
SplineSet
330 -12 m 0
 149 -12 35 108 35 300 c 0
 35 513 174 651 388 651 c 0
 473 651 584 627 584 627 c 1
 589 618 l 1
 589 618 569 541 563 444 c 1
 494 439 l 1
 494 439 497 465 497 493 c 0
 497 552 458 576 365 576 c 0
 227 576 151 492 151 333 c 0
 151 162 229 57 353 57 c 0
 424 57 473 90 473 90 c 1
 473 199 l 2
 473 242 463 251 423 251 c 2
 361 251 l 1
 358 257 l 1
 367 316 l 1
 378 316 442 313 500 313 c 0
 545 313 592 318 592 318 c 1
 598 288 l 1
 569 267 562 235 562 130 c 0
 562 93 565 60 569 42 c 1
 562 32 l 1
 562 32 464 -12 330 -12 c 0
EndSplineSet
Substitution2: "'c2sc' Capitals to Small Capitals lookup 35 subtable" g.sc
Substitution2: "'aalt' Access All Alternates lookup 0 subtable" g.sc
Position2: "'cpsp' Capital Spacing lookup 0 subtable" dx=10 dy=0 dh=20 dv=0
EndChar

StartChar: Gbreve
Encoding: 286 286 72
Width: 661
GlyphClass: 2
Flags: MW
HStem: -12 69<291 388.5 291 397> 251 62<361 522.5> 576 75<296 411.5> 695 74<350.5 393.5 350.5 410>
VStem: 35 116<247.5 406.5> 473 89<111.5 182.5>
AnchorPoint: "Anchor-17" 0 0 basechar 0
AnchorPoint: "Anchor-16" 0 0 basechar 0
AnchorPoint: "Anchor-15" 372 823 basechar 0
AnchorPoint: "Anchor-14" 0 0 basechar 0
AnchorPoint: "Anchor-13" 331 0 basechar 0
LayerCount: 2
Back
SplineSet
372 695 m 0
 296 695 256 748 240 801 c 1
 261 821 l 1
 273 823 l 1
 291 787 329 769 372 769 c 0
 415 769 453 787 471 823 c 1
 483 821 l 1
 504 801 l 1
 489 748 448 695 372 695 c 0
330 -12 m 0
 149 -12 35 108 35 300 c 0
 35 513 174 651 388 651 c 0
 473 651 584 627 584 627 c 1
 589 618 l 1
 589 618 569 541 563 444 c 1
 494 439 l 1
 494 439 497 465 497 493 c 0
 497 552 458 576 365 576 c 0
 227 576 151 492 151 333 c 0
 151 162 229 57 353 57 c 0
 424 57 473 90 473 90 c 1
 473 199 l 2
 473 242 463 251 423 251 c 2
 361 251 l 1
 358 257 l 1
 367 316 l 1
 378 316 442 313 500 313 c 0
 545 313 592 318 592 318 c 1
 598 288 l 1
 569 267 562 235 562 130 c 0
 562 93 565 60 569 42 c 1
 562 32 l 1
 562 32 464 -12 330 -12 c 0
EndSplineSet
Fore
SplineSet
372 695 m 0
 296 695 256 748 240 801 c 1
 261 821 l 1
 273 823 l 1
 291 787 329 769 372 769 c 0
 415 769 453 787 471 823 c 1
 483 821 l 1
 504 801 l 1
 489 748 448 695 372 695 c 0
330 -12 m 0
 149 -12 35 108 35 300 c 0
 35 513 174 651 388 651 c 0
 473 651 584 627 584 627 c 1
 589 618 l 1
 589 618 569 541 563 444 c 1
 494 439 l 1
 494 439 497 465 497 493 c 0
 497 552 458 576 365 576 c 0
 227 576 151 492 151 333 c 0
 151 162 229 57 353 57 c 0
 424 57 473 90 473 90 c 1
 473 199 l 2
 473 242 463 251 423 251 c 2
 361 251 l 1
 358 257 l 1
 367 316 l 1
 378 316 442 313 500 313 c 0
 545 313 592 318 592 318 c 1
 598 288 l 1
 569 267 562 235 562 130 c 0
 562 93 565 60 569 42 c 1
 562 32 l 1
 562 32 464 -12 330 -12 c 0
EndSplineSet
Substitution2: "'c2sc' Capitals to Small Capitals lookup 35 subtable" gbreve.sc
Substitution2: "'aalt' Access All Alternates lookup 0 subtable" gbreve.sc
Position2: "'cpsp' Capital Spacing lookup 0 subtable" dx=10 dy=0 dh=20 dv=0
EndChar

StartChar: Gcaron
Encoding: 486 486 73
Width: 661
GlyphClass: 2
Flags: MW
HStem: -12 69<291 388.5 291 397> 251 62<361 522.5> 576 75<296 411.5>
VStem: 35 116<247.5 406.5> 473 89<111.5 182.5>
AnchorPoint: "Anchor-17" 0 0 basechar 0
AnchorPoint: "Anchor-16" 0 0 basechar 0
AnchorPoint: "Anchor-15" 372 774 basechar 0
AnchorPoint: "Anchor-14" 0 0 basechar 0
AnchorPoint: "Anchor-13" 331 0 basechar 0
LayerCount: 2
Back
SplineSet
364 701 m 1
 364 701 286 766 218 817 c 1
 236 848 l 1
 248 850 l 1
 295 824 344 800 372 788 c 1
 400 800 448 824 496 850 c 1
 508 848 l 1
 526 817 l 1
 457 766 380 701 380 701 c 1
 364 701 l 1
330 -12 m 0
 149 -12 35 108 35 300 c 0
 35 513 174 651 388 651 c 0
 473 651 584 627 584 627 c 1
 589 618 l 1
 589 618 569 541 563 444 c 1
 494 439 l 1
 494 439 497 465 497 493 c 0
 497 552 458 576 365 576 c 0
 227 576 151 492 151 333 c 0
 151 162 229 57 353 57 c 0
 424 57 473 90 473 90 c 1
 473 199 l 2
 473 242 463 251 423 251 c 2
 361 251 l 1
 358 257 l 1
 367 316 l 1
 378 316 442 313 500 313 c 0
 545 313 592 318 592 318 c 1
 598 288 l 1
 569 267 562 235 562 130 c 0
 562 93 565 60 569 42 c 1
 562 32 l 1
 562 32 464 -12 330 -12 c 0
EndSplineSet
Fore
SplineSet
364 701 m 1
 364 701 286 766 218 817 c 1
 236 848 l 1
 248 850 l 1
 295 824 344 800 372 788 c 1
 400 800 448 824 496 850 c 1
 508 848 l 1
 526 817 l 1
 457 766 380 701 380 701 c 1
 364 701 l 1
330 -12 m 0
 149 -12 35 108 35 300 c 0
 35 513 174 651 388 651 c 0
 473 651 584 627 584 627 c 1
 589 618 l 1
 589 618 569 541 563 444 c 1
 494 439 l 1
 494 439 497 465 497 493 c 0
 497 552 458 576 365 576 c 0
 227 576 151 492 151 333 c 0
 151 162 229 57 353 57 c 0
 424 57 473 90 473 90 c 1
 473 199 l 2
 473 242 463 251 423 251 c 2
 361 251 l 1
 358 257 l 1
 367 316 l 1
 378 316 442 313 500 313 c 0
 545 313 592 318 592 318 c 1
 598 288 l 1
 569 267 562 235 562 130 c 0
 562 93 565 60 569 42 c 1
 562 32 l 1
 562 32 464 -12 330 -12 c 0
EndSplineSet
Substitution2: "'c2sc' Capitals to Small Capitals lookup 35 subtable" gcaron.sc
Substitution2: "'aalt' Access All Alternates lookup 0 subtable" gcaron.sc
Position2: "'cpsp' Capital Spacing lookup 0 subtable" dx=10 dy=0 dh=20 dv=0
EndChar

StartChar: Gcircumflex
Encoding: 284 284 74
Width: 661
GlyphClass: 2
Flags: MW
HStem: -12 69<291 388.5 291 397> 251 62<361 522.5> 576 75<296 411.5>
VStem: 35 116<247.5 406.5> 473 89<111.5 182.5>
AnchorPoint: "Anchor-17" 0 0 basechar 0
AnchorPoint: "Anchor-16" 0 0 basechar 0
AnchorPoint: "Anchor-15" 378 881 basechar 0
AnchorPoint: "Anchor-14" 0 0 basechar 0
AnchorPoint: "Anchor-13" 331 0 basechar 0
LayerCount: 2
Back
SplineSet
258 695 m 1
 246 697 l 1
 226 727 l 1
 293 795 370 881 370 881 c 1
 386 881 l 1
 386 881 462 795 530 727 c 1
 510 697 l 1
 498 695 l 1
 452 733 405 766 378 786 c 1
 350 766 304 734 258 695 c 1
330 -12 m 0
 149 -12 35 108 35 300 c 0
 35 513 174 651 388 651 c 0
 473 651 584 627 584 627 c 1
 589 618 l 1
 589 618 569 541 563 444 c 1
 494 439 l 1
 494 439 497 465 497 493 c 0
 497 552 458 576 365 576 c 0
 227 576 151 492 151 333 c 0
 151 162 229 57 353 57 c 0
 424 57 473 90 473 90 c 1
 473 199 l 2
 473 242 463 251 423 251 c 2
 361 251 l 1
 358 257 l 1
 367 316 l 1
 378 316 442 313 500 313 c 0
 545 313 592 318 592 318 c 1
 598 288 l 1
 569 267 562 235 562 130 c 0
 562 93 565 60 569 42 c 1
 562 32 l 1
 562 32 464 -12 330 -12 c 0
EndSplineSet
Fore
SplineSet
258 695 m 1
 246 697 l 1
 226 727 l 1
 293 795 370 881 370 881 c 1
 386 881 l 1
 386 881 462 795 530 727 c 1
 510 697 l 1
 498 695 l 1
 452 733 405 766 378 786 c 1
 350 766 304 734 258 695 c 1
330 -12 m 0
 149 -12 35 108 35 300 c 0
 35 513 174 651 388 651 c 0
 473 651 584 627 584 627 c 1
 589 618 l 1
 589 618 569 541 563 444 c 1
 494 439 l 1
 494 439 497 465 497 493 c 0
 497 552 458 576 365 576 c 0
 227 576 151 492 151 333 c 0
 151 162 229 57 353 57 c 0
 424 57 473 90 473 90 c 1
 473 199 l 2
 473 242 463 251 423 251 c 2
 361 251 l 1
 358 257 l 1
 367 316 l 1
 378 316 442 313 500 313 c 0
 545 313 592 318 592 318 c 1
 598 288 l 1
 569 267 562 235 562 130 c 0
 562 93 565 60 569 42 c 1
 562 32 l 1
 562 32 464 -12 330 -12 c 0
EndSplineSet
Substitution2: "'c2sc' Capitals to Small Capitals lookup 35 subtable" gcircumflex.sc
Substitution2: "'aalt' Access All Alternates lookup 0 subtable" gcircumflex.sc
Position2: "'cpsp' Capital Spacing lookup 0 subtable" dx=10 dy=0 dh=20 dv=0
EndChar

StartChar: uni0122
Encoding: 290 290 75
Width: 661
GlyphClass: 2
Flags: MW
HStem: -12 69<291 388.5 291 397> 251 62<361 522.5> 576 75<296 411.5>
VStem: 35 116<247.5 406.5> 301 92<-173 -155.5> 473 89<111.5 182.5>
AnchorPoint: "Anchor-17" 0 0 basechar 0
AnchorPoint: "Anchor-16" 0 0 basechar 0
AnchorPoint: "Anchor-15" 372 639 basechar 0
AnchorPoint: "Anchor-14" 0 0 basechar 0
AnchorPoint: "Anchor-13" 312 -304 basechar 0
LayerCount: 2
Back
SplineSet
330 -12 m 0
 149 -12 35 108 35 300 c 0
 35 513 174 651 388 651 c 0
 473 651 584 627 584 627 c 1
 589 618 l 1
 589 618 569 541 563 444 c 1
 494 439 l 1
 494 439 497 465 497 493 c 0
 497 552 458 576 365 576 c 0
 227 576 151 492 151 333 c 0
 151 162 229 57 353 57 c 0
 424 57 473 90 473 90 c 1
 473 199 l 2
 473 242 463 251 423 251 c 2
 361 251 l 1
 358 257 l 1
 367 316 l 1
 378 316 442 313 500 313 c 0
 545 313 592 318 592 318 c 1
 598 288 l 1
 569 267 562 235 562 130 c 0
 562 93 565 60 569 42 c 1
 562 32 l 1
 562 32 464 -12 330 -12 c 0
257 -304 m 1
 231 -282 l 1
 231 -269 l 1
 271 -244 301 -203 301 -169 c 0
 301 -142 285 -118 264 -104 c 1
 266 -90 l 1
 284 -76 310 -60 333 -60 c 0
 367 -60 393 -90 393 -137 c 0
 393 -209 322 -269 257 -304 c 1
EndSplineSet
Fore
SplineSet
330 -12 m 0
 149 -12 35 108 35 300 c 0
 35 513 174 651 388 651 c 0
 473 651 584 627 584 627 c 1
 589 618 l 1
 589 618 569 541 563 444 c 1
 494 439 l 1
 494 439 497 465 497 493 c 0
 497 552 458 576 365 576 c 0
 227 576 151 492 151 333 c 0
 151 162 229 57 353 57 c 0
 424 57 473 90 473 90 c 1
 473 199 l 2
 473 242 463 251 423 251 c 2
 361 251 l 1
 358 257 l 1
 367 316 l 1
 378 316 442 313 500 313 c 0
 545 313 592 318 592 318 c 1
 598 288 l 1
 569 267 562 235 562 130 c 0
 562 93 565 60 569 42 c 1
 562 32 l 1
 562 32 464 -12 330 -12 c 0
257 -304 m 1
 231 -282 l 1
 231 -269 l 1
 271 -244 301 -203 301 -169 c 0
 301 -142 285 -118 264 -104 c 1
 266 -90 l 1
 284 -76 310 -60 333 -60 c 0
 367 -60 393 -90 393 -137 c 0
 393 -209 322 -269 257 -304 c 1
EndSplineSet
Substitution2: "'c2sc' Capitals to Small Capitals lookup 35 subtable" uni0123.sc
Substitution2: "'aalt' Access All Alternates lookup 0 subtable" uni0123.sc
Position2: "'cpsp' Capital Spacing lookup 0 subtable" dx=10 dy=0 dh=20 dv=0
EndChar

StartChar: Gdotaccent
Encoding: 288 288 76
Width: 661
GlyphClass: 2
Flags: MW
HStem: -12 69<291 388.5 291 397> 251 62<361 522.5> 576 75<296 411.5> 703 129<357 387>
VStem: 35 116<247.5 406.5> 309 126<752.5 782.5> 473 89<111.5 182.5>
AnchorPoint: "Anchor-17" 0 0 basechar 0
AnchorPoint: "Anchor-16" 0 0 basechar 0
AnchorPoint: "Anchor-15" 372 832 basechar 0
AnchorPoint: "Anchor-14" 0 0 basechar 0
AnchorPoint: "Anchor-13" 331 0 basechar 0
LayerCount: 2
Back
SplineSet
367 703 m 0
 328 703 309 731 309 763 c 0
 309 802 337 832 377 832 c 0
 414 832 435 805 435 772 c 0
 435 733 407 703 367 703 c 0
330 -12 m 0
 149 -12 35 108 35 300 c 0
 35 513 174 651 388 651 c 0
 473 651 584 627 584 627 c 1
 589 618 l 1
 589 618 569 541 563 444 c 1
 494 439 l 1
 494 439 497 465 497 493 c 0
 497 552 458 576 365 576 c 0
 227 576 151 492 151 333 c 0
 151 162 229 57 353 57 c 0
 424 57 473 90 473 90 c 1
 473 199 l 2
 473 242 463 251 423 251 c 2
 361 251 l 1
 358 257 l 1
 367 316 l 1
 378 316 442 313 500 313 c 0
 545 313 592 318 592 318 c 1
 598 288 l 1
 569 267 562 235 562 130 c 0
 562 93 565 60 569 42 c 1
 562 32 l 1
 562 32 464 -12 330 -12 c 0
EndSplineSet
Fore
SplineSet
367 703 m 0
 328 703 309 731 309 763 c 0
 309 802 337 832 377 832 c 0
 414 832 435 805 435 772 c 0
 435 733 407 703 367 703 c 0
330 -12 m 0
 149 -12 35 108 35 300 c 0
 35 513 174 651 388 651 c 0
 473 651 584 627 584 627 c 1
 589 618 l 1
 589 618 569 541 563 444 c 1
 494 439 l 1
 494 439 497 465 497 493 c 0
 497 552 458 576 365 576 c 0
 227 576 151 492 151 333 c 0
 151 162 229 57 353 57 c 0
 424 57 473 90 473 90 c 1
 473 199 l 2
 473 242 463 251 423 251 c 2
 361 251 l 1
 358 257 l 1
 367 316 l 1
 378 316 442 313 500 313 c 0
 545 313 592 318 592 318 c 1
 598 288 l 1
 569 267 562 235 562 130 c 0
 562 93 565 60 569 42 c 1
 562 32 l 1
 562 32 464 -12 330 -12 c 0
EndSplineSet
Substitution2: "'c2sc' Capitals to Small Capitals lookup 35 subtable" gdotaccent.sc
Substitution2: "'aalt' Access All Alternates lookup 0 subtable" gdotaccent.sc
Position2: "'cpsp' Capital Spacing lookup 0 subtable" dx=10 dy=0 dh=20 dv=0
EndChar

StartChar: uni1E20
Encoding: 7712 7712 77
Width: 661
GlyphClass: 2
Flags: MW
HStem: -12 69<291 388.5 291 397> 251 62<361 522.5> 576 75<296 411.5> 715 66<358.5 372> 776 11<516 523>
VStem: 35 116<247.5 406.5> 473 89<111.5 182.5>
AnchorPoint: "Anchor-17" 0 0 basechar 0
AnchorPoint: "Anchor-16" 0 0 basechar 0
AnchorPoint: "Anchor-15" 373 761 basechar 0
AnchorPoint: "Anchor-14" 0 0 basechar 0
AnchorPoint: "Anchor-13" 331 0 basechar 0
LayerCount: 2
Back
SplineSet
230 714 m 1xf6
 222 724 l 1
 234 782 l 1
 234 782 329 781 388 781 c 0xf6
 438 781 516 787 516 787 c 1
 523 776 l 1xee
 514 716 l 1
 372 715 l 2
 313 715 230 714 230 714 c 1xf6
330 -12 m 0
 149 -12 35 108 35 300 c 0
 35 513 174 651 388 651 c 0
 473 651 584 627 584 627 c 1
 589 618 l 1
 589 618 569 541 563 444 c 1
 494 439 l 1
 494 439 497 465 497 493 c 0
 497 552 458 576 365 576 c 0
 227 576 151 492 151 333 c 0
 151 162 229 57 353 57 c 0
 424 57 473 90 473 90 c 1
 473 199 l 2
 473 242 463 251 423 251 c 2
 361 251 l 1
 358 257 l 1
 367 316 l 1
 378 316 442 313 500 313 c 0
 545 313 592 318 592 318 c 1
 598 288 l 1
 569 267 562 235 562 130 c 0
 562 93 565 60 569 42 c 1
 562 32 l 1
 562 32 464 -12 330 -12 c 0
EndSplineSet
Fore
SplineSet
230 714 m 1xf6
 222 724 l 1
 234 782 l 1
 234 782 329 781 388 781 c 0xf6
 438 781 516 787 516 787 c 1
 523 776 l 1xee
 514 716 l 1
 372 715 l 2
 313 715 230 714 230 714 c 1xf6
330 -12 m 0
 149 -12 35 108 35 300 c 0
 35 513 174 651 388 651 c 0
 473 651 584 627 584 627 c 1
 589 618 l 1
 589 618 569 541 563 444 c 1
 494 439 l 1
 494 439 497 465 497 493 c 0
 497 552 458 576 365 576 c 0
 227 576 151 492 151 333 c 0
 151 162 229 57 353 57 c 0
 424 57 473 90 473 90 c 1
 473 199 l 2
 473 242 463 251 423 251 c 2
 361 251 l 1
 358 257 l 1
 367 316 l 1
 378 316 442 313 500 313 c 0
 545 313 592 318 592 318 c 1
 598 288 l 1
 569 267 562 235 562 130 c 0
 562 93 565 60 569 42 c 1
 562 32 l 1
 562 32 464 -12 330 -12 c 0
EndSplineSet
Substitution2: "'c2sc' Capitals to Small Capitals lookup 35 subtable" uni1E21.sc
Substitution2: "'aalt' Access All Alternates lookup 0 subtable" uni1E21.sc
Position2: "'cpsp' Capital Spacing lookup 0 subtable" dx=10 dy=0 dh=20 dv=0
EndChar

StartChar: uni01E4
Encoding: 484 484 78
Width: 672
GlyphClass: 1
Flags: MW
HStem: -12 67<291 375 291 376> 139.5 50.5 141 52.5 251 62<361 515> 576 75<295.5 411.5>
VStem: 35 116<246 406.5> 473 89<112 130 130 140 140 140> 497 66
LayerCount: 2
Back
SplineSet
625 141 m 1xbe
 562 141 l 1
 562 130 l 2
 562 94 565 60 569 42 c 1
 562 32 l 1xbe
 515 10 422 -12 330 -12 c 0
 149 -12 35 108 35 300 c 0
 35 513 174 651 388 651 c 0
 445 651 529 638 584 627 c 1
 589 618 l 1
 580 584 566 511 563 444 c 1
 494 439 l 1
 495 459 497 476 497 493 c 0xdd
 497 552 458 576 365 576 c 0
 226 576 151 491 151 332 c 0
 151 160 229 55 353 55 c 0
 397 55 445 70 473 88 c 1
 473 140 l 1
 346 139 l 1
 340 147 l 1
 347 191 l 1xde
 382 190 435 190 473 190 c 1
 473 199 l 2
 473 242 463 251 423 251 c 2
 361 251 l 1
 358 257 l 1
 367 316 l 1
 404 314 458 313 500 313 c 0
 530 313 572 315 592 318 c 1
 598 288 l 1
 576 272 566 249 563 192 c 1
 623 195 l 1
 629 184 l 1
 625 141 l 1xbe
EndSplineSet
Fore
SplineSet
625 141 m 1xbe
 562 141 l 1
 562 130 l 2
 562 94 565 60 569 42 c 1
 562 32 l 1xbe
 515 10 422 -12 330 -12 c 0
 149 -12 35 108 35 300 c 0
 35 513 174 651 388 651 c 0
 445 651 529 638 584 627 c 1
 589 618 l 1
 580 584 566 511 563 444 c 1
 494 439 l 1
 495 459 497 476 497 493 c 0xdd
 497 552 458 576 365 576 c 0
 226 576 151 491 151 332 c 0
 151 160 229 55 353 55 c 0
 397 55 445 70 473 88 c 1
 473 140 l 1
 346 139 l 1
 340 147 l 1
 347 191 l 1xde
 382 190 435 190 473 190 c 1
 473 199 l 2
 473 242 463 251 423 251 c 2
 361 251 l 1
 358 257 l 1
 367 316 l 1
 404 314 458 313 500 313 c 0
 530 313 572 315 592 318 c 1
 598 288 l 1
 576 272 566 249 563 192 c 1
 623 195 l 1
 629 184 l 1
 625 141 l 1xbe
EndSplineSet
Substitution2: "'c2sc' Capitals to Small Capitals lookup 35 subtable" uni01E5.sc
Substitution2: "'aalt' Access All Alternates lookup 0 subtable" uni01E5.sc
EndChar

StartChar: H
Encoding: 72 72 79
Width: 751
GlyphClass: 2
Flags: MW
HStem: 0 53<176.5 276> 294 62<384 401.5> 571 20G<59 59 447 447> 587 52 627 20G<307 307 697 697>
VStem: 131 97<101 121 94 129> 519 97<152 166 94 293>
AnchorPoint: "Anchor-17" 0 0 basechar 0
AnchorPoint: "Anchor-16" 376 320 basechar 0
AnchorPoint: "Anchor-15" 376 639 basechar 0
AnchorPoint: "Anchor-14" 0 0 basechar 0
AnchorPoint: "Anchor-13" 376 0 basechar 0
LayerCount: 2
Back
SplineSet
49 -11 m 1xd6
 56 43 l 1
 116 55 131 73 131 129 c 2
 132 533 l 2
 132 576 125 587 95 587 c 0xd6
 87 587 72 586 63 585 c 1
 59 591 l 1xe6
 67 641 l 1
 99 641 153 639 181 639 c 0xd6
 207 639 259 643 307 647 c 1
 303 593 l 1xce
 249 584 242 575 239 511 c 2
 233 357 l 1
 384 356 l 2
 427 356 460 358 519 364 c 1
 520 533 l 2
 520 576 513 587 483 587 c 0xd6
 474 587 460 586 451 585 c 1
 447 591 l 1xe6
 454 641 l 1
 464 641 532 639 565 639 c 0xd6
 593 639 646 643 697 647 c 1
 692 593 l 1xce
 643 586 631 576 629 537 c 0
 621 398 616 212 616 120 c 0
 616 68 625 53 659 53 c 0
 673 53 690 55 700 56 c 1
 704 51 l 1
 695 -3 l 1
 659 -2 598 0 562 0 c 0
 535 0 476 -1 436 -2 c 1
 445 52 l 1
 505 53 519 71 519 152 c 2
 519 293 l 1
 479 293 417 294 386 294 c 0
 367 294 294 290 231 284 c 1
 228 121 l 2
 228 67 236 53 269 53 c 0
 283 53 300 55 311 56 c 1
 314 51 l 1
 305 -3 l 1
 294 -2 234 0 204 0 c 0
 149 0 65 -6 49 -11 c 1xd6
EndSplineSet
Fore
SplineSet
49 -11 m 1xd6
 56 43 l 1
 116 55 131 73 131 129 c 2
 132 533 l 2
 132 576 125 587 95 587 c 0xd6
 87 587 72 586 63 585 c 1
 59 591 l 1xe6
 67 641 l 1
 99 641 153 639 181 639 c 0xd6
 207 639 259 643 307 647 c 1
 303 593 l 1xce
 249 584 242 575 239 511 c 2
 233 357 l 1
 384 356 l 2
 427 356 460 358 519 364 c 1
 520 533 l 2
 520 576 513 587 483 587 c 0xd6
 474 587 460 586 451 585 c 1
 447 591 l 1xe6
 454 641 l 1
 464 641 532 639 565 639 c 0xd6
 593 639 646 643 697 647 c 1
 692 593 l 1xce
 643 586 631 576 629 537 c 0
 621 398 616 212 616 120 c 0
 616 68 625 53 659 53 c 0
 673 53 690 55 700 56 c 1
 704 51 l 1
 695 -3 l 1
 659 -2 598 0 562 0 c 0
 535 0 476 -1 436 -2 c 1
 445 52 l 1
 505 53 519 71 519 152 c 2
 519 293 l 1
 479 293 417 294 386 294 c 0
 367 294 294 290 231 284 c 1
 228 121 l 2
 228 67 236 53 269 53 c 0
 283 53 300 55 311 56 c 1
 314 51 l 1
 305 -3 l 1
 294 -2 234 0 204 0 c 0
 149 0 65 -6 49 -11 c 1xd6
EndSplineSet
Substitution2: "'c2sc' Capitals to Small Capitals lookup 35 subtable" h.sc
Substitution2: "'aalt' Access All Alternates lookup 0 subtable" h.sc
Position2: "'cpsp' Capital Spacing lookup 0 subtable" dx=10 dy=0 dh=20 dv=0
EndChar

StartChar: Hbar
Encoding: 294 294 80
Width: 748
GlyphClass: 2
Flags: MW
HStem: 0 53<174.5 275> 294 62<383 385> 447 51<517 517> 448 54<702 702 702 711> 488 14<702 715> 587 52 627 20G<306 306 695 695>
VStem: 129 97<101 121 94 129> 130 108<446 511 511 511 511 533 511 554.5> 517 97<152 156.5 94 293> 518 107<500 500 500 533 500 554.5>
AnchorPoint: "Anchor-17" 0 0 basechar 0
AnchorPoint: "Anchor-16" 368 324 basechar 0
AnchorPoint: "Anchor-15" 371 647 basechar 0
AnchorPoint: "Anchor-14" 0 0 basechar 0
AnchorPoint: "Anchor-13" 376 0 basechar 0
LayerCount: 2
Back
SplineSet
711 448 m 1xd520
 623 448 l 1xd540
 618 326 614 193 614 120 c 0
 614 68 623 53 657 53 c 0
 671 53 689 55 699 56 c 1
 702 51 l 1
 693 -3 l 1
 657 -2 597 0 560 0 c 0
 533 0 474 -1 435 -2 c 1
 443 52 l 1
 503 53 517 71 517 152 c 2
 517 293 l 1
 385 294 l 2
 366 294 292 290 229 284 c 1
 226 121 l 2
 226 67 235 53 268 53 c 0
 282 53 299 55 309 56 c 1
 312 51 l 1
 303 -3 l 1
 292 -2 232 0 202 0 c 0
 147 0 64 -6 48 -11 c 1
 54 43 l 1
 114 55 129 73 129 129 c 2
 130 446 l 1
 42 446 l 1
 32 455 l 1
 40 498 l 1xe540
 130 498 l 1
 130 533 l 2
 130 576 123 587 94 587 c 0
 86 587 70 586 61 585 c 1
 58 591 l 1
 65 641 l 1
 97 641 151 639 180 639 c 0xe4c0
 206 639 257 643 306 647 c 1
 301 593 l 1xe2c0
 248 584 240 575 238 511 c 2
 237 497 l 1
 397 497 l 2
 434 497 477 497 518 498 c 1
 518 533 l 2
 518 576 511 587 482 587 c 0
 473 587 458 586 449 585 c 1
 446 591 l 1
 453 641 l 1
 462 641 530 639 564 639 c 0xe4a0
 591 639 644 643 695 647 c 1
 691 593 l 1
 642 586 629 576 627 537 c 0
 626 525 626 513 625 500 c 1
 702 502 l 1xd320
 715 488 l 1xcd20
 711 448 l 1xd520
517 364 m 1
 517 447 l 1
 374 447 l 1
 235 447 l 1xe540
 232 357 l 1
 383 356 l 2
 425 356 459 358 517 364 c 1
EndSplineSet
Fore
SplineSet
711 448 m 1xd520
 623 448 l 1xd540
 618 326 614 193 614 120 c 0
 614 68 623 53 657 53 c 0
 671 53 689 55 699 56 c 1
 702 51 l 1
 693 -3 l 1
 657 -2 597 0 560 0 c 0
 533 0 474 -1 435 -2 c 1
 443 52 l 1
 503 53 517 71 517 152 c 2
 517 293 l 1
 385 294 l 2
 366 294 292 290 229 284 c 1
 226 121 l 2
 226 67 235 53 268 53 c 0
 282 53 299 55 309 56 c 1
 312 51 l 1
 303 -3 l 1
 292 -2 232 0 202 0 c 0
 147 0 64 -6 48 -11 c 1
 54 43 l 1
 114 55 129 73 129 129 c 2
 130 446 l 1
 42 446 l 1
 32 455 l 1
 40 498 l 1xe540
 130 498 l 1
 130 533 l 2
 130 576 123 587 94 587 c 0
 86 587 70 586 61 585 c 1
 58 591 l 1
 65 641 l 1
 97 641 151 639 180 639 c 0xe4c0
 206 639 257 643 306 647 c 1
 301 593 l 1xe2c0
 248 584 240 575 238 511 c 2
 237 497 l 1
 397 497 l 2
 434 497 477 497 518 498 c 1
 518 533 l 2
 518 576 511 587 482 587 c 0
 473 587 458 586 449 585 c 1
 446 591 l 1
 453 641 l 1
 462 641 530 639 564 639 c 0xe4a0
 591 639 644 643 695 647 c 1
 691 593 l 1
 642 586 629 576 627 537 c 0
 626 525 626 513 625 500 c 1
 702 502 l 1xd320
 715 488 l 1xcd20
 711 448 l 1xd520
517 364 m 1
 517 447 l 1
 374 447 l 1
 235 447 l 1xe540
 232 357 l 1
 383 356 l 2
 425 356 459 358 517 364 c 1
EndSplineSet
Substitution2: "'c2sc' Capitals to Small Capitals lookup 35 subtable" hbar.sc
Substitution2: "'aalt' Access All Alternates lookup 0 subtable" hbar.sc
Position2: "'cpsp' Capital Spacing lookup 0 subtable" dx=10 dy=0 dh=20 dv=0
EndChar

StartChar: uni1E2A
Encoding: 7722 7722 81
Width: 751
GlyphClass: 2
Flags: MW
HStem: -210 74<354.5 397.5 354.5 414> 0 53<176.5 276> 294 62<384 401.5> 571 20G<59 59 447 447> 587 52 627 20G<307 307 697 697>
VStem: 131 97<101 121 94 129> 519 97<152 166 94 293>
AnchorPoint: "Anchor-17" 0 0 basechar 0
AnchorPoint: "Anchor-16" 376 320 basechar 0
AnchorPoint: "Anchor-15" 376 639 basechar 0
AnchorPoint: "Anchor-14" 0 0 basechar 0
AnchorPoint: "Anchor-13" 376 -210 basechar 0
LayerCount: 2
Back
SplineSet
49 -11 m 1xeb
 56 43 l 1
 116 55 131 73 131 129 c 2
 132 533 l 2
 132 576 125 587 95 587 c 0xeb
 87 587 72 586 63 585 c 1
 59 591 l 1xf3
 67 641 l 1
 99 641 153 639 181 639 c 0xeb
 207 639 259 643 307 647 c 1
 303 593 l 1xe7
 249 584 242 575 239 511 c 2
 233 357 l 1
 384 356 l 2
 427 356 460 358 519 364 c 1
 520 533 l 2
 520 576 513 587 483 587 c 0xeb
 474 587 460 586 451 585 c 1
 447 591 l 1xf3
 454 641 l 1
 464 641 532 639 565 639 c 0xeb
 593 639 646 643 697 647 c 1
 692 593 l 1xe7
 643 586 631 576 629 537 c 0
 621 398 616 212 616 120 c 0
 616 68 625 53 659 53 c 0
 673 53 690 55 700 56 c 1
 704 51 l 1
 695 -3 l 1
 659 -2 598 0 562 0 c 0
 535 0 476 -1 436 -2 c 1
 445 52 l 1
 505 53 519 71 519 152 c 2
 519 293 l 1
 479 293 417 294 386 294 c 0
 367 294 294 290 231 284 c 1
 228 121 l 2
 228 67 236 53 269 53 c 0
 283 53 300 55 311 56 c 1
 314 51 l 1
 305 -3 l 1
 294 -2 234 0 204 0 c 0
 149 0 65 -6 49 -11 c 1xeb
376 -210 m 0
 300 -210 260 -151 244 -91 c 1
 265 -71 l 1
 277 -69 l 1
 295 -114 333 -136 376 -136 c 0
 419 -136 457 -114 475 -69 c 1
 487 -71 l 1
 508 -91 l 1
 493 -151 452 -210 376 -210 c 0
EndSplineSet
Fore
SplineSet
49 -11 m 1xeb
 56 43 l 1
 116 55 131 73 131 129 c 2
 132 533 l 2
 132 576 125 587 95 587 c 0xeb
 87 587 72 586 63 585 c 1
 59 591 l 1xf3
 67 641 l 1
 99 641 153 639 181 639 c 0xeb
 207 639 259 643 307 647 c 1
 303 593 l 1xe7
 249 584 242 575 239 511 c 2
 233 357 l 1
 384 356 l 2
 427 356 460 358 519 364 c 1
 520 533 l 2
 520 576 513 587 483 587 c 0xeb
 474 587 460 586 451 585 c 1
 447 591 l 1xf3
 454 641 l 1
 464 641 532 639 565 639 c 0xeb
 593 639 646 643 697 647 c 1
 692 593 l 1xe7
 643 586 631 576 629 537 c 0
 621 398 616 212 616 120 c 0
 616 68 625 53 659 53 c 0
 673 53 690 55 700 56 c 1
 704 51 l 1
 695 -3 l 1
 659 -2 598 0 562 0 c 0
 535 0 476 -1 436 -2 c 1
 445 52 l 1
 505 53 519 71 519 152 c 2
 519 293 l 1
 479 293 417 294 386 294 c 0
 367 294 294 290 231 284 c 1
 228 121 l 2
 228 67 236 53 269 53 c 0
 283 53 300 55 311 56 c 1
 314 51 l 1
 305 -3 l 1
 294 -2 234 0 204 0 c 0
 149 0 65 -6 49 -11 c 1xeb
376 -210 m 0
 300 -210 260 -151 244 -91 c 1
 265 -71 l 1
 277 -69 l 1
 295 -114 333 -136 376 -136 c 0
 419 -136 457 -114 475 -69 c 1
 487 -71 l 1
 508 -91 l 1
 493 -151 452 -210 376 -210 c 0
EndSplineSet
Substitution2: "'c2sc' Capitals to Small Capitals lookup 35 subtable" uni1E2B.sc
Substitution2: "'aalt' Access All Alternates lookup 0 subtable" uni1E2B.sc
Position2: "'cpsp' Capital Spacing lookup 0 subtable" dx=10 dy=0 dh=20 dv=0
EndChar

StartChar: uni021E
Encoding: 542 542 82
Width: 751
GlyphClass: 2
Flags: MW
HStem: 0 53<176.5 276> 294 62<384 401.5> 571 20G<59 59 447 447> 587 52 627 20G<307 307 697 697>
VStem: 131 97<101 121 94 129> 519 97<152 166 94 293>
AnchorPoint: "Anchor-17" 0 0 basechar 0
AnchorPoint: "Anchor-16" 376 320 basechar 0
AnchorPoint: "Anchor-15" 376 774 basechar 0
AnchorPoint: "Anchor-14" 0 0 basechar 0
AnchorPoint: "Anchor-13" 376 0 basechar 0
LayerCount: 2
Back
SplineSet
368 701 m 1xd6
 368 701 290 766 222 817 c 1
 240 848 l 1
 252 850 l 1
 299 824 348 800 376 788 c 1
 404 800 452 824 500 850 c 1
 512 848 l 1
 530 817 l 1
 461 766 384 701 384 701 c 1
 368 701 l 1xd6
49 -11 m 1
 56 43 l 1
 116 55 131 73 131 129 c 2
 132 533 l 2
 132 576 125 587 95 587 c 0xd6
 87 587 72 586 63 585 c 1
 59 591 l 1xe6
 67 641 l 1
 99 641 153 639 181 639 c 0xd6
 207 639 259 643 307 647 c 1
 303 593 l 1xce
 249 584 242 575 239 511 c 2
 233 357 l 1
 384 356 l 2
 427 356 460 358 519 364 c 1
 520 533 l 2
 520 576 513 587 483 587 c 0xd6
 474 587 460 586 451 585 c 1
 447 591 l 1xe6
 454 641 l 1
 464 641 532 639 565 639 c 0xd6
 593 639 646 643 697 647 c 1
 692 593 l 1xce
 643 586 631 576 629 537 c 0
 621 398 616 212 616 120 c 0
 616 68 625 53 659 53 c 0
 673 53 690 55 700 56 c 1
 704 51 l 1
 695 -3 l 1
 659 -2 598 0 562 0 c 0
 535 0 476 -1 436 -2 c 1
 445 52 l 1
 505 53 519 71 519 152 c 2
 519 293 l 1
 479 293 417 294 386 294 c 0
 367 294 294 290 231 284 c 1
 228 121 l 2
 228 67 236 53 269 53 c 0
 283 53 300 55 311 56 c 1
 314 51 l 1
 305 -3 l 1
 294 -2 234 0 204 0 c 0
 149 0 65 -6 49 -11 c 1
EndSplineSet
Fore
SplineSet
368 701 m 1xd6
 368 701 290 766 222 817 c 1
 240 848 l 1
 252 850 l 1
 299 824 348 800 376 788 c 1
 404 800 452 824 500 850 c 1
 512 848 l 1
 530 817 l 1
 461 766 384 701 384 701 c 1
 368 701 l 1xd6
49 -11 m 1
 56 43 l 1
 116 55 131 73 131 129 c 2
 132 533 l 2
 132 576 125 587 95 587 c 0xd6
 87 587 72 586 63 585 c 1
 59 591 l 1xe6
 67 641 l 1
 99 641 153 639 181 639 c 0xd6
 207 639 259 643 307 647 c 1
 303 593 l 1xce
 249 584 242 575 239 511 c 2
 233 357 l 1
 384 356 l 2
 427 356 460 358 519 364 c 1
 520 533 l 2
 520 576 513 587 483 587 c 0xd6
 474 587 460 586 451 585 c 1
 447 591 l 1xe6
 454 641 l 1
 464 641 532 639 565 639 c 0xd6
 593 639 646 643 697 647 c 1
 692 593 l 1xce
 643 586 631 576 629 537 c 0
 621 398 616 212 616 120 c 0
 616 68 625 53 659 53 c 0
 673 53 690 55 700 56 c 1
 704 51 l 1
 695 -3 l 1
 659 -2 598 0 562 0 c 0
 535 0 476 -1 436 -2 c 1
 445 52 l 1
 505 53 519 71 519 152 c 2
 519 293 l 1
 479 293 417 294 386 294 c 0
 367 294 294 290 231 284 c 1
 228 121 l 2
 228 67 236 53 269 53 c 0
 283 53 300 55 311 56 c 1
 314 51 l 1
 305 -3 l 1
 294 -2 234 0 204 0 c 0
 149 0 65 -6 49 -11 c 1
EndSplineSet
Substitution2: "'c2sc' Capitals to Small Capitals lookup 35 subtable" uni021F.sc
Substitution2: "'aalt' Access All Alternates lookup 0 subtable" uni021F.sc
EndChar

